<?xml version="1.0" encoding="utf-8"?>
<!-- Generator: Adobe Illustrator 24.0.0, SVG Export Plug-In . SVG Version: 6.00 Build 0)  -->
<svg version="1.1" id="Layer_1" xmlns="http://www.w3.org/2000/svg" xmlns:xlink="http://www.w3.org/1999/xlink" x="0px" y="0px"
	 viewBox="0 0 864 864" style="enable-background:new 0 0 864 864;" xml:space="preserve">
<style type="text/css">
	.st0{fill:#181B20;}
</style>
<g>
	<path class="st0" d="M596.7,267.6c-2,7.3-6.2,13.1-11.8,18c-2.2,1.9-4.3,3.7-6.4,5.6c-1.4,1.2-2.7,2.5-4,3.8c2.9-1,5.5-2.3,8.2-3.6
		c4.6-2.2,8.4-5.3,10.8-9.9c2-4.3,3.1-8.9,3.6-13.7c0-0.1,0-0.3-0.1-0.4c0,0-0.1,0-0.1-0.1C596.8,267.4,596.7,267.5,596.7,267.6z"/>
	<path class="st0" d="M357.3,672.6c-0.3-0.1-0.5-0.2-0.8-0.4l0,0c0.2,0.2,0.4,0.4,0.6,0.6C357.2,672.7,357.3,672.7,357.3,672.6z"/>
	<path class="st0" d="M320.1,269c0.1,0.2,0.3,0.3,0.4,0.5c0-0.1,0.1-0.1,0.1-0.2c-0.1-0.1-0.3-0.2-0.4-0.4
		C320.2,269,320.2,269,320.1,269z"/>
	<path class="st0" d="M590.2,308.7c-0.1,0.1-0.3,0.1-0.4,0.2c0.1,0.1,0.1,0.1,0.2,0.2C590.1,309,590.1,308.8,590.2,308.7z"/>
	<path class="st0" d="M509.1,459c-7.8-6.4-17.2-8.7-27-10c-2.7-0.4-5.4-0.9-8.1-1.4c-0.3,0-0.6,0-0.8-0.1
		c-7.3-1.4-14.5-0.6-21.6,1.1c-0.3,0.1-0.5,0.4-0.8,0.5l0,0c6.1-1.1,12.1-0.8,18.2,0.1c-5.2-0.3-10.2,0.6-14.8,3
		c-4.9,2.5-11.4,7.8-11.6,9.6c3.7-3,7.7-5.2,12.2-6.7c0.2,0,0.4-0.1,0.6-0.1c0,0.1,0,0.1,0.1,0.2c-0.2,0.1-0.3,0.1-0.5,0.2
		c-2.4,1.4-4.9,2.7-7.1,4.3c-5.7,4.1-10.4,9.1-13,15.8c-1,2.6-1.5,5.2-1.2,8c1.5-4.9,4.3-9,7.9-12.5c8.8-8.6,19.6-13.1,31.8-14.1
		c12.2-1,23.7,1.5,34.6,7.2c0.7,0.4,1.5,0.6,2.2,1.1c2.3,1.4,4.6,2.8,6.9,4.1c0.3,0.2,0.6,0.3,0.9,0.5c0.1-0.1,0.1-0.1,0.2-0.2
		c-1.1-1.6-2.2-3.1-3.3-4.7C512.9,462.7,511.1,460.7,509.1,459z"/>
	<path class="st0" d="M435.1,439.1c-0.3,0.1-1,0.3-0.1,0.7c0.2,0,0.4,0,0.5-0.1c0.2-0.1,0.4-0.1,0.6-0.2c0.2,0,0.4,0,0.5-0.1
		c0-0.1,0-0.2,0-0.2c0.2,0,0.4,0,0.6,0c5.3-1,10.6-1.6,15.9-1.2c0.5,0,1,0.2,1.8,0.4c-2.5,0.3-4.6,0.6-6,0.7c3.8,1.2,8.2,2.6,12.6,4
		c4.1,1.3,8.2,2.7,12.3,4c6.7,1.5,13.1,0.4,19.4-1.9c-7.6,1.1-14.8-0.8-22-2.6c4.5-0.5,8.8-1.7,12.7-4c-4.9,0.6-9.7,0.1-14.5-0.9
		c-8.1-1.7-16.3-3.6-24.4-5.3c-2.9-0.6-5.8-0.8-8.7-1.2c0,0.1,0,0.3-0.1,0.4c4.3,0.8,8.6,1.7,13.2,2.6c-2.1,0.2-3.9,0.4-5.7,0.6
		c-5.5,0.9-10.8,2.4-15.9,4.8c0,0,0,0,0,0c-0.4,0.2-0.7,0.4-1.1,0.6l0,0c-0.2,0-0.3,0.1-0.5,0.1c0,0.1,0,0.1,0,0.2
		c0.2-0.1,0.3-0.2,0.5-0.2l0,0c0.4-0.2,0.8-0.3,1.2-0.5c4.2-1.3,8.3-2.8,13-3C439,437.7,437,438.4,435.1,439.1z M436.3,439.2
		c0,0,0.1-0.1,0.1-0.1c0.1,0.1,0.1,0.1,0.2,0.2C436.6,439.2,436.4,439.2,436.3,439.2z"/>
	<path class="st0" d="M559.3,470.7c-11.7-6.4-24.2-9.2-37.6-7.7c-2.3,0.3-4.6,0.9-6.9,1.4c0.9-0.1,1.8-0.3,2.6-0.3
		c5.7-0.1,11.5,0,17.1,1.1c11.5,2.3,22.1,6.7,31.4,14c2.8,2.2,5.6,4.6,8.4,6.9c0.8,0.2,1.6,0.3,2.6,0.5c-0.2-0.3-0.3-0.6-0.5-0.8
		C571.9,479.4,566.1,474.4,559.3,470.7z"/>
	<path class="st0" d="M545.8,519.3c0.6,1.6,2.2,2.7,4.1,2.6C548.9,520,547.4,519,545.8,519.3z"/>
	<path class="st0" d="M566.3,526.4c1.2,1.5,2.5,2.4,4.4,2.4C570.1,527.2,568.2,526.1,566.3,526.4z"/>
	<path class="st0" d="M450,449c0,0,0,0.1,0,0.1c0.3,0,0.6,0,0.9,0c0,0,0,0,0,0C450.6,449.1,450.3,449,450,449z"/>
	<path class="st0" d="M427.7,460.4C427.8,460.3,427.8,460.3,427.7,460.4C427.8,460.3,427.8,460.3,427.7,460.4z"/>
	<path class="st0" d="M427.7,460.4C427.7,460.4,427.7,460.5,427.7,460.4C427.7,460.4,427.7,460.4,427.7,460.4
		C427.7,460.4,427.7,460.4,427.7,460.4z"/>
	<path class="st0" d="M441.2,462.6c-0.2,0.2-0.4,0.4-0.6,0.7c0.1,0.1,0.2,0.2,0.3,0.3c0.2-0.3,0.3-0.5,0.5-0.8
		c0.1-0.1,0.1-0.1,0.2-0.2c0.3-0.3,0.6-0.5,0.8-0.8c-0.1-0.1-0.2-0.2-0.3-0.3c-0.2,0.3-0.5,0.5-0.7,0.8
		C441.4,462.4,441.3,462.5,441.2,462.6z"/>
	<path class="st0" d="M452.4,510.5c-0.5-0.5-1-1-1.5-1.5c0,0-0.1,0.1-0.1,0.1c0.5,0.6,1,1.1,1.5,1.7v0c0.1,0,0.2,0,0.3,0
		C452.6,510.8,452.5,510.6,452.4,510.5z"/>
	<path class="st0" d="M531.8,309.3c0.1,0,0.2,0.1,0.3,0.1c0-0.1-0.1-0.2-0.1-0.3c-0.5-0.6-1-1.2-1.5-1.8c-0.2,0.2-0.4,0.4-0.5,0.5
		C530.6,308.4,531.2,308.9,531.8,309.3C531.8,309.3,531.8,309.3,531.8,309.3z"/>
	<path class="st0" d="M353.3,482.7c0-0.2,0-0.3,0-0.5c0,0-0.1,0-0.1,0c0,0.2,0,0.3,0,0.5C353.3,482.7,353.3,482.7,353.3,482.7z"/>
	<path class="st0" d="M532.7,310.4c0.1,0.1,0.2,0.2,0.3,0.3c0.1,0.1,0.2,0.2,0.3,0.3c0.1-0.1,0.1-0.1,0.2-0.2
		c-0.1-0.1-0.2-0.2-0.3-0.3c0,0,0,0,0,0c-0.1-0.1-0.2-0.2-0.3-0.3c-0.1-0.1-0.2-0.2-0.4-0.4C532.6,310,532.7,310.2,532.7,310.4
		L532.7,310.4z"/>
	<path class="st0" d="M534.8,312.7C534.8,312.7,534.8,312.6,534.8,312.7C534.8,312.6,534.8,312.7,534.8,312.7
		c0.1,0.1,0.2,0.2,0.3,0.3c0.1,0.1,0.2,0.1,0.2,0.2c0-0.1-0.1-0.2-0.1-0.2l0,0c0,0,0,0,0,0C535,312.8,534.9,312.7,534.8,312.7
		c0-0.3-0.1-0.4-0.2-0.6c0,0,0,0,0,0c-0.1-0.1-0.2-0.2-0.3-0.3c0,0-0.1,0.1-0.1,0.1c0.1,0.1,0.2,0.2,0.3,0.3
		C534.5,312.3,534.6,312.5,534.8,312.7z"/>
	<path class="st0" d="M523.7,341.7c-0.1-0.1-0.3-0.1-0.4-0.2c0,0,0,0.1,0,0.1c0.1,0.1,0.2,0.1,0.4,0.2
		C523.6,341.8,523.7,341.7,523.7,341.7z"/>
	<path class="st0" d="M524.1,342.2c0.1-0.1,0.1-0.1,0.2-0.2c-0.2-0.1-0.4-0.2-0.6-0.3c0,0-0.1,0.1-0.1,0.1
		C523.8,341.9,523.9,342,524.1,342.2z"/>
	<path class="st0" d="M434.9,354.5c-0.1-0.1-0.3-0.3-0.4-0.4c0,0.1-0.1,0.1-0.1,0.2C434.6,354.4,434.7,354.4,434.9,354.5z"/>
	<path class="st0" d="M435,354.5C435,354.5,434.9,354.5,435,354.5C434.9,354.5,434.9,354.5,435,354.5L435,354.5z"/>
	<path class="st0" d="M476.9,357c0.1,0,0.2,0,0.2-0.1c0,0-0.1-0.1-0.1-0.1C476.9,356.9,476.8,356.9,476.9,357
		C476.8,357,476.8,357,476.9,357z"/>
	<path class="st0" d="M427.6,368.8C427.5,368.8,427.5,368.8,427.6,368.8C427.5,368.8,427.5,368.8,427.6,368.8L427.6,368.8z"/>
	<path class="st0" d="M370.3,386.7c0-0.1-0.1-0.1-0.1-0.2c-0.1,0.1-0.2,0.1-0.3,0.2c0,0,0,0,0,0
		C370.1,386.8,370.2,386.7,370.3,386.7z"/>
	<path class="st0" d="M445.2,387.8c0.1,0,0.2,0,0.3,0.1c-0.1-0.1-0.2-0.1-0.3-0.2C445.2,387.8,445.2,387.8,445.2,387.8z"/>
	<path class="st0" d="M445.5,387.9C445.5,387.9,445.5,387.9,445.5,387.9L445.5,387.9C445.5,387.9,445.5,387.9,445.5,387.9z"/>
	<path class="st0" d="M388.1,389.3c0.1,0,0.2-0.1,0.2-0.1c0,0-0.1-0.1-0.1-0.1C388.2,389.1,388.1,389.2,388.1,389.3
		C388,389.2,388.1,389.3,388.1,389.3z"/>
	<path class="st0" d="M387.6,389.5c0-0.1,0-0.1-0.1-0.2c-0.2,0.1-0.3,0.1-0.5,0.2c0,0.1,0.1,0.1,0.1,0.2
		C387.3,389.7,387.4,389.6,387.6,389.5z"/>
	<path class="st0" d="M445.5,387.9C445.5,387.9,445.5,387.9,445.5,387.9C445.6,387.9,445.5,387.9,445.5,387.9
		C445.5,387.9,445.5,387.9,445.5,387.9z"/>
	<path class="st0" d="M427.6,368.8C427.6,368.8,427.5,368.8,427.6,368.8c0,0.1,0.1,0.1,0.2,0.2C427.7,368.9,427.6,368.9,427.6,368.8
		z"/>
	<path class="st0" d="M464,367c0,0,0-0.1-0.1-0.1c0,0-0.1,0.1-0.1,0.1C463.8,367,463.9,367,464,367C463.9,367,464,367,464,367z"/>
	<path class="st0" d="M435.1,354.6C435.1,354.6,435,354.6,435.1,354.6C435,354.6,435.1,354.7,435.1,354.6
		C435.1,354.7,435.1,354.6,435.1,354.6z"/>
	<path class="st0" d="M435,354.5C435,354.5,435,354.6,435,354.5C435,354.6,435,354.6,435,354.5C435,354.6,435,354.6,435,354.5z"/>
	<path class="st0" d="M533.8,311.6c0.1,0.1,0.2,0.2,0.3,0.3c0,0,0.1-0.1,0.1-0.1c-0.1-0.1-0.2-0.2-0.3-0.3c0,0,0,0,0,0
		c-0.1-0.1-0.2-0.2-0.3-0.3c0,0,0,0,0,0c-0.1-0.1-0.2-0.2-0.3-0.3c-0.1,0-0.1,0.1-0.2,0.2c0.1,0.1,0.2,0.2,0.3,0.3
		C533.7,311.4,533.8,311.5,533.8,311.6z"/>
	<path class="st0" d="M455.4,425.7c-2.8,0-5.5,0.2-8.2,0.5c-10.9,1.4-21.3,4.6-30.7,10.5c-3.6,2.3-6.8,5.2-10.1,7.8c0,0,0,0,0,0
		c0,0.1-0.1,0.2-0.1,0.3c0.1,0,0.2-0.1,0.3-0.1c0.3-0.2,0.7-0.5,1-0.7c4.3-3.3,8.8-6.3,13.8-8.5c7.9-3.5,16.4-5.3,24.7-7.6
		C449.1,427,452.3,426.4,455.4,425.7z"/>
	<path class="st0" d="M405.7,445.3c-0.1,0.1-0.2,0.2-0.3,0.2c0.1,0,0.3-0.1,0.4-0.1C405.7,445.3,405.7,445.3,405.7,445.3z"/>
	<path class="st0" d="M590.2,455.1C590.2,455.1,590.2,455.1,590.2,455.1L590.2,455.1z"/>
	<path class="st0" d="M590.1,454.9C590.1,455,590.1,455,590.1,454.9C590.1,455,590.1,454.9,590.1,454.9
		C590.1,454.9,590.1,454.9,590.1,454.9C590.1,454.9,590.1,454.9,590.1,454.9L590.1,454.9z"/>
	<path class="st0" d="M590.1,455C590.1,455,590.1,455,590.1,455C590.1,455.1,590.2,455.2,590.1,455z"/>
	<path class="st0" d="M590.1,455C590.1,455,590.1,455,590.1,455C590.1,455,590.2,455,590.1,455C590.2,455,590.2,455,590.1,455z"/>
	<path class="st0" d="M602.3,479c0,0,0,0.1,0,0.1c0,0,0.1,0,0.1,0c0,0,0-0.1,0-0.1C602.4,479,602.4,479,602.3,479z"/>
	<path class="st0" d="M433.9,440.1C433.8,440.1,433.8,440.1,433.9,440.1C433.8,440.1,433.8,440.1,433.9,440.1L433.9,440.1z"/>
	<path class="st0" d="M425.9,440.8C425.9,440.8,426,440.9,425.9,440.8c0.1,0.1,0.1,0,0.2,0C426.1,440.8,426,440.8,425.9,440.8
		C426,440.8,425.9,440.8,425.9,440.8z"/>
	<polygon class="st0" points="425.4,441.1 425.5,441.1 425.4,441 	"/>
	<polygon class="st0" points="424.9,441.4 424.9,441.4 424.8,441.4 	"/>
	<path class="st0" d="M405,445.8L405,445.8c0.1-0.1,0.2-0.2,0.3-0.3l0,0c0,0,0,0,0,0c0,0,0,0-0.1,0
		C405.2,445.6,405.1,445.7,405,445.8z"/>
	<path class="st0" d="M405,445.8C405,445.8,405,445.8,405,445.8c0,0.1-0.1,0.1-0.1,0.2C405,445.9,405,445.9,405,445.8z"/>
	<polygon class="st0" points="548,456.4 548,456.5 548.1,456.5 	"/>
	<path class="st0" d="M561.2,465.7c0-0.1,0-0.2-0.1-0.3c0,0-0.1,0.1-0.1,0.1C561,465.6,561.1,465.7,561.2,465.7z"/>
	<path class="st0" d="M283.9,376.6c-0.1-0.1-0.1-0.1-0.2-0.2c-7.4,7.5-16.6,12.6-25.5,18C269.8,392.9,277.3,385.4,283.9,376.6z"/>
	<path class="st0" d="M258.7,347.1c0.3,0,0.5,0,0.8,0c0,0,0-0.1,0-0.1c-0.3,0-0.5,0-0.8,0C258.7,347,258.7,347,258.7,347.1z"/>
	<path class="st0" d="M284.2,376.1C284.2,376.1,284.2,376.1,284.2,376.1c0.1-0.1,0.1-0.3,0.2-0.4c-0.1,0.1-0.2,0.2-0.3,0.2
		c-0.1,0.1-0.3,0.3-0.4,0.4c0.1,0.1,0.1,0.1,0.2,0.2C284,376.4,284.1,376.2,284.2,376.1z"/>
	<path class="st0" d="M257.9,390.8c0.1-0.1,0.1-0.1,0.2-0.2c-0.1,0-0.2,0-0.3,0C257.8,390.7,257.9,390.8,257.9,390.8z"/>
	<path class="st0" d="M284.5,375.4c0,0.1-0.1,0.1-0.1,0.2l0,0C284.5,375.6,284.5,375.5,284.5,375.4z"/>
	<path class="st0" d="M284.4,375.7C284.4,375.7,284.4,375.7,284.4,375.7C284.4,375.7,284.4,375.7,284.4,375.7
		C284.4,375.7,284.4,375.7,284.4,375.7z"/>
	<path class="st0" d="M263.9,374.8C263.9,374.8,263.9,374.8,263.9,374.8C263.9,374.8,263.9,374.8,263.9,374.8
		C263.9,374.8,263.9,374.8,263.9,374.8z"/>
	<path class="st0" d="M264,374.7c0,0,0,0.1-0.1,0.1C263.9,374.8,264,374.8,264,374.7C264,374.7,264,374.7,264,374.7z"/>
	<path class="st0" d="M258.5,416.5c0.1,0,0.1-0.1,0.2-0.1C258.6,416.3,258.5,416.3,258.5,416.5C258.4,416.4,258.5,416.5,258.5,416.5
		z"/>
	<polygon class="st0" points="297.4,336.7 297.3,336.7 297.4,336.8 	"/>
	<path class="st0" d="M298,336.5c0-0.1,0.1-0.1,0.1-0.2c0,0,0,0,0,0c0,0,0,0,0,0C298.1,336.4,298,336.4,298,336.5z"/>
	<path class="st0" d="M386.4,323.8C386.4,323.8,386.4,323.9,386.4,323.8c0,0.1,0,0.3,0,0.4c0,0,0,0,0,0
		C386.4,324.1,386.4,324,386.4,323.8C386.4,323.9,386.4,323.8,386.4,323.8C386.4,323.8,386.4,323.8,386.4,323.8
		C386.4,323.8,386.4,323.8,386.4,323.8z"/>
	<path class="st0" d="M448.2,273.4c0.1-0.1,0.1-0.2,0.2-0.2c-0.6-0.6-1.2-1.2-1.8-1.7c-0.1,0.1-0.2,0.2-0.3,0.2
		C446.9,272.2,447.5,272.8,448.2,273.4z"/>
	<path class="st0" d="M440.1,248c-0.3-0.2-0.5-0.5-0.8-0.7c0,0.1,0,0.2-0.1,0.4c0.2,0.2,0.5,0.4,0.7,0.6
		C440,248.2,440,248.1,440.1,248z"/>
	<path class="st0" d="M439.3,247.3C439.3,247.3,439.3,247.3,439.3,247.3c-0.1,0-0.3,0.1-0.4,0.1c0.1,0.1,0.2,0.2,0.3,0.2
		C439.2,247.6,439.2,247.4,439.3,247.3z"/>
	<polygon class="st0" points="463.6,246.8 463.6,246.9 463.7,246.9 	"/>
	<path class="st0" d="M561.4,326.2c0,0.1,0.1,0.2,0.1,0.2c0,0,0.1-0.1,0.1-0.1C561.5,326.3,561.5,326.2,561.4,326.2
		C561.4,326.1,561.4,326.2,561.4,326.2z"/>
	<path class="st0" d="M567.2,330.9C567.3,330.9,567.3,330.9,567.2,330.9L567.2,330.9C567.3,330.9,567.3,330.9,567.2,330.9
		C567.3,330.9,567.3,330.9,567.2,330.9C567.3,330.9,567.3,330.9,567.2,330.9z"/>
	<path class="st0" d="M567.2,330.8C567.2,330.8,567.2,330.8,567.2,330.8C567.2,330.8,567.2,330.8,567.2,330.8
		C567.2,330.8,567.2,330.8,567.2,330.8z"/>
	<path class="st0" d="M307,296.4c-0.2,0-0.3,0.1-0.5,0.1c0.2,0.1,0.3,0.1,0.5,0.2C307,296.6,307,296.5,307,296.4z"/>
	<path class="st0" d="M320.3,301.8c-0.2,0.1-0.4,0.2-0.6,0.2c-0.5,0-0.9,0.1-1.4,0.1c-5,0.6-10,1.4-15.1,1.9
		c-4.7,0.4-9.5,0.4-14.2,0.9c-2.6,0.3-5.2,1.2-7.8,1.8c3.2,0.5,6.2,0.8,9.3,0.9c7,0.2,13.9-0.8,20.6-2.7c2.9-0.8,5.7-2,8.5-2.9l0,0
		c0.2,0,0.4-0.1,0.6-0.1C320.4,302,320.3,301.9,320.3,301.8z"/>
	<path class="st0" d="M287.6,433.9c0,0.1-0.1,0.1-0.1,0.2c0,0,0,0,0,0c0,0,0,0,0.1,0C287.6,434.1,287.6,434,287.6,433.9z"/>
	<path class="st0" d="M402.1,432c0.1,0,0.3-0.1,0.4-0.1c0,0-0.1-0.1-0.1-0.1C402.3,431.8,402.2,431.9,402.1,432z"/>
	<path class="st0" d="M582.5,380.1c-0.1,0.1-0.2,0.3-0.3,0.4c0.1,0.1,0.2,0.2,0.3,0.3c0.1-0.2,0.1-0.5,0.2-0.7
		C582.6,380.2,582.6,380.2,582.5,380.1z"/>
	<path class="st0" d="M666.9,529c-0.5-1.5-1-3.1-1.9-4.4c-3.2-4.5-6.3-9.2-10-13.3c-5-5.7-10.5-11-15.9-16.3
		c-10.2-10.2-19.4-21.2-28.3-32.5c-5-6.4-9.7-13.1-14.5-19.5c0.5-1,0.9-1.6,1.2-2.2c2.8-5.3,4.4-10.8,4-16.8
		c-0.2-3.1-0.7-6.1-1.3-9.1c-0.7-3.7,0-4.9,3.5-6.1c1.6-0.5,3.2-0.9,4.8-1.4c2.2-0.7,4.4-1.6,6-3.3c-1.4-0.8-2.7-1.6-4.3-2.5
		c2.1,0.2,3.8,0.3,5.7,0.5c-1.7-1.3-3.1-2.3-4.4-3.4c-1.2-1.1-1.7-2.4-1.2-4.1c0.9-3.4,1.9-6.8,2.5-10.2c0.6-3.3,0.2-6.6-0.5-9.6
		c-1.3,1.7-2.7,3.6-4.1,5.4c-0.1,0.1-0.2,0.2-0.3,0.2c0-0.2,0-0.3,0-0.5c0.5-1.2,1-2.5,1.4-3.7c-2.5,1.1-4.8,2.2-7.1,3.2
		c-0.1-0.1-0.1-0.2-0.2-0.4c6-7.1,8.6-17.1,5.9-22.6c-0.8,2.9-2.1,5.5-4.4,7.5c-1.6,1.4-2.5,1.3-3.5-0.6
		c-4.9-10.2-9.6-20.4-14.5-30.6c-1.9-3.9-1.8-7.7-0.1-11.5c0.4-0.9,0.7-1.8,1.1-2.8c0.9-2.2,1.8-4.5,2.7-6.7
		c-1.6,1.6-3.1,3.3-4.4,5.1c-1.3,1.8-2.4,3.7-3.5,5.5c-0.7-1.9-0.5-3.8,0.7-5.5c1.1-1.5,2.5-2.8,3.9-4.1c1.3-1.2,2.7-2.3,4.1-3.5
		c-0.1-0.1-0.1-0.1-0.2-0.2c-0.7,0.2-1.5,0.4-2.2,0.5c-1.9,0.3-3.9,0.2-5.5-1.1c5.1-2.8,7.6-6,9.6-11.5c1.4-4,2.1-8.1,2.3-12.4
		c-0.3,1.1-0.7,2.3-1,3.4c-1.8,6.3-5.2,11.5-10.7,15.2c-3.5,2.3-6.1,5.5-7,9.8c-0.1,0.4-0.1,0.7-0.2,1.3c-0.5-0.8-0.9-1.5-1.3-2.1
		c-1.6-2-3-4.2-4.7-6c-2.2-2.4-2.6-5-1.9-8c1.2-5.3,3.9-9.6,8-13.1c0.2-0.2,0.5-0.4,0.5-0.9c-3.2,1.8-6.5,3.6-9.8,5.4
		c0.4-5.2,2.1-9.9,5.1-14.2c-2.4,1.9-4.6,4-5.9,6.9c-1.4,3.6-1.8,7.4-1.7,11.3c0.1,2.2-0.1,4.3-0.2,6.9c-1.9-1.6-3.5-2.9-5-4.3
		c-4.6-4.1-8.3-8.8-9.2-15.1c-0.8-5.7,0.2-11.2,2.5-16.5c3.3-7.6,8.2-14,13.9-19.8c5.6-5.8,11.3-11.5,16.7-17.5
		c7-7.7,12.8-16.3,18.1-25.2c2.2-3.8,4.5-7.6,6.8-11.6c0,3.2-0.8,6-1.7,8.7c-1.4,4.2-3.6,8.1-6.1,11.7c-6.7,9.7-13.5,19.4-20.1,29.2
		c-2,3-3.7,6.2-5.5,9.3c-0.2,0.4-0.6,0.6-0.9,0.9c-0.1,0.5-0.2,1-0.4,1.4c-1.2,2.9-2.4,5.8-3.6,8.6c-0.1,0.3-0.2,0.7-0.1,1.2
		c0.5-1,0.9-2,1.4-3.1c3.6-8.2,8.9-15.4,14-22.7c5.3-7.6,10.7-15.2,16.1-22.7c0.6-0.8,1.1-1.6,1.6-2.5c0-0.1,0.1-0.2,0.1-0.4
		c0.2-0.4,0.4-0.7,0.6-1.1c0.1,0,0.2,0.1,0.2,0.1c-0.2,0.4-0.4,0.8-0.6,1.2c0,0.1-0.1,0.2-0.1,0.4c-3.8,6.8-7.4,13.8-11.5,20.4
		c-4.7,7.5-9.9,14.6-14.9,21.9c-0.1,0.1-0.1,0.2-0.2,0.3c-0.3,0.4-0.5,0.7-0.8,1.1c0.3,0.1,0.4,0,0.5-0.1c0.2-0.2,0.4-0.5,0.6-0.8
		c0.1-0.1,0.1-0.2,0.2-0.3c5.2-6,10.8-11.6,17.2-16.4c0.3-0.2,0.5-0.4,0.9-0.5c-4,8.2-8.3,16.2-14.3,23.2c0.1,0.1,0.2,0.2,0.3,0.4
		c3.7-2.8,7.5-5.6,11.1-8.3c-0.5,5.1-3,9.5-6.4,13.7c-2.9,3.6-5.6,7.4-8.4,11.1c-0.2,0.3-0.4,0.6-0.7,1.3c2.1-1,3.9-1.9,5.6-2.8
		c3.2-1.8,6.5-3.5,9.5-5.6c2.1-1.4,3.8-3.2,4.5-5.7c0.2-0.7,0.2-1.4,0.3-2.1c-0.2-1.5-0.5-3.1-0.6-4.6c-0.5-4.4,0.3-8.6,1.6-12.8
		c3.4-11.7,6.9-23.3,10.3-35c1.9-6.8,3.4-13.7,3-20.9c-0.1-2.3-0.6-4.5-1.9-6.4c-1.5-2.1-3.4-2.7-5.7-1.4c-1.5,0.9-3,2-4.3,3.3
		c-3.2,3.1-6.2,6.4-9.3,9.6c-9.4,9.7-20.2,17.8-31.4,25.3c-12.3,8.3-24.5,16.7-37.7,23.5c-6,3.1-11.8,6.5-19.1,6.3
		c-4.6-0.1-8,2.8-9.8,7.3c-0.1,0.2-0.2,0.4-0.2,0.3c-4.1-2-8.1-4.3-12.2-5.9c-2.4-0.9-3.7-2.2-4.7-4.3c-7.2-15.5-11-31.8-11.3-48.9
		c-0.2-7.2-0.1-14.3-0.3-21.5c-0.1-3.5-0.8-7-2.5-10.1c-1.8-3.2-4.7-4.8-8-4.2c-1.7,0.3-3.3,0.8-4.8,1.5c-5.3,2.5-9.7,6.3-14,10.2
		c-7.9,7.1-15.6,14.3-23.5,21.4c-6.3,5.6-12.8,10.9-18.9,16.7c-11.4,10.8-21.8,22.5-29.1,36.6c-0.2,0.4-0.7,0.8-1.1,0.9
		c-8.6,1.9-17.2,3-26,1.5c-6.6-1.1-11-5-13.1-11.3c-1-3-1.2-6-1-9.1c-1.3,3.2-2.2,6.6-2.4,10.1c-0.6,8.6,2.4,16.1,7.6,22.7
		c4.1,5.2,9.4,8.6,16.1,9.6c-2,0.5-4.1,1-6.2,1.1c-5,0.4-9.6-0.9-13.9-3.7c0,0.1-0.1,0.1-0.1,0.2c2,3,4.9,4.8,8.2,6.1
		c4.3,1.7,8.7,2.6,13.7,3c-5.4,2.3-10.7,2.6-16.1,2c-5.1-0.6-9.7-2.5-14.2-4.6c-15.1-7-29.6-5-43.7,3.1c-0.9,0.5-1.7,1.2-2.6,1.8
		c0.6,0.1,1.1-0.1,1.6-0.3c6.8-2.5,13.7-3,20.8-1.3c5.2,1.3,8.5,5.2,12.5,8.6c-4.1-0.1-7.9-0.3-11.7-0.4c-9.3-0.3-18.5,0.4-27.5,2.7
		c-10,2.6-18.8,7.1-25.8,14.9c-0.2,0.2-0.4,0.4-0.6,0.7c0.1,0,0.1,0.1,0.2,0.1c0.3-0.2,0.5-0.4,0.8-0.6c9.2-4.5,19-4.5,28.9-3.8
		c-0.1,0.1-0.2,0.2-0.4,0.2c-8.5,2.2-16.8,4.8-24,10.1c-0.3,0.2-0.9,0.3-1.3,0.3c-7.6-0.8-14.8,0.4-21.4,4.6
		c-1.7,1.1-3.2,2.3-4.8,3.5c1.6,0,3.1-0.4,4.5-0.5c8.5-0.9,16.9-0.1,25.2,1.2c6.9,1.1,13.9,1.9,21.2,2.9c-2.3-1.8-4.3-3.3-6.2-4.8
		c6.8,1,13.5,1.4,20.1,0.4c6.6-0.9,13.3-2.1,19.8-3.7c6.4-1.6,12.6-3.9,19-6c-0.6,0.4-1.1,0.7-1.6,1c-13.2,7.9-27,14.8-41,21.1
		c-9.4,4.2-19.1,7.4-29.4,8c-10.7,0.6-21.3,0-31.8-2.4c-2.6-0.6-5.1-1.2-8-1.9c4.2,3.6,8.1,7,12.1,10.3c4.2,3.6,9,6.2,14.3,7.5
		c4.8,1.2,9.6,2.1,14.1,3.1c-12.5,4.5-25.4,9.2-38.3,13.9c0,0.2,0.1,0.4,0.1,0.7c7.5,0.4,15.1,1,22.6,1.2c7.6,0.2,15.1,0,22.5,0
		c-2.3,2-4.8,4.2-7.3,6.4l0,0c-0.4,0.3-0.8,0.6-1.1,0.9c-0.3,0.2-0.6,0.4-0.9,0.7c-0.8,0.6-1.6,1.1-2.3,1.7
		c-9.7,8.1-19.7,15.6-30.3,22.4c-4.5,2.9-9,5.9-13.5,8.8c17,1.9,33.7,0.9,49.9-4.9c-4.6,3.2-9.1,6.4-13.9,9.1
		c-4.8,2.7-10,4.8-15,7.2c0.5-0.2,1.2-0.2,1.8-0.2c8.1-0.9,15.9-2.7,24-5.5c-0.6,0.6-0.9,0.9-1.3,1.1c-3.8,2.6-7.5,5.5-11.5,7.8
		c-6.6,3.9-13.5,7.5-20.1,11.4c-4.1,2.4-8,5.3-12,8c0.1,0.1,0.1,0.2,0.2,0.3c1.9-1,3.8-2,5.8-2.9c2-0.9,4-1.8,6-2.6
		c2.1-0.8,4.2-1.5,6.3-2.2c2-0.6,4.1-0.9,6.2-1.4c-0.3,0.6-0.7,0.8-1.1,1.1c-6.4,4.5-11.7,9.9-14,17.6c-1.3,4.2-2.1,8.5-3,12.8
		c-0.6,2.8-0.8,5.8-1.2,8.6c4-11.7,7.7-19.4,11.3-22.5c-9.8,17.4-11.3,36.1-11.5,55.2c0.2-0.2,0.4-0.5,0.5-0.8
		c1.4-5.1,3.4-10,6.1-14.6c2.6-4.6,5.9-8.6,10.9-10.9c3.1-1.5,6.3-2.1,9.8-1.8c-3.1,7.2-4.4,14.7-4.6,22.4c-0.2,9,0.7,20.7,1.5,22.4
		c0.4-3.1,0.8-6.5,1.4-9.8c1-5,2.4-9.9,4.8-14.5c0-0.2,0.1-0.3,0.1-0.5c0,0,0.1,0,0.1,0c0,0.2,0,0.4,0,0.6
		c-0.8,6.1-1.9,12.2-2.5,18.3c-1.2,11.6-0.2,23.1,2.1,34.5c3.2,15.6,8.8,30.3,16.6,44.2c2.9,5.3,6.5,10.2,9.8,15.3l0,0
		c0.2,0.2,0.3,0.5,0.5,0.7c0.1,0,0.1-0.1,0.2-0.1c-0.2-0.3-0.3-0.5-0.5-0.8c-0.8-1.3-1.5-2.6-2.3-3.9c-12-20.7-17.3-42.9-14-66.8
		c2.2-16.1,8-30.8,17.1-44.2c1.5-2.1,3-4.2,4.5-6.2c0.2,0.4,0.1,0.6,0,0.8c-10,18.2-14.6,37.8-14.1,58.5c0.2,7.8,1.1,15.4,3.4,22.8
		c3.2,10.5,8.3,20.1,15,28.8c4.7,6.2,9.8,12.1,14.7,18.1h0c0.1,0.1,0.2,0.2,0.3,0.3c0.2,0.2,0.3,0.4,0.5,0.7
		c0.2,0.2,0.4,0.5,0.6,0.7c0.1-0.1,0.1-0.1,0.2-0.2c-0.2-0.2-0.4-0.5-0.6-0.7c-0.2-0.2-0.3-0.4-0.5-0.7c-0.1-0.1-0.1-0.2-0.2-0.3
		c0,0-0.1,0.1-0.1,0.1c0,0,0.1-0.1,0.1-0.1c-2.7-4.4-5.7-8.8-8-13.4c-4.3-8.5-6.9-17.5-7.5-27c-0.8-12.4,1.3-24.5,5.8-36.1
		c2.6-6.7,5.9-13.1,10.1-19c0.2-0.3,0.3-0.5,0.5-0.8c0.1,0,0.1,0.1,0.2,0.1c-0.1,0.3-0.3,0.6-0.4,0.9c-4.8,10-7.7,20.6-8.4,31.6
		c-0.7,10.7,0.9,21.1,4.7,31.1c4.2,11.1,10.2,21.2,17.4,30.7c0.5,0.7,1,1.4,1.5,2.1c0.5,0.7,1.1,1.3,1.6,2
		c-9.9-15.1-16-31.4-17.2-49.4c-1.7-24.1,6-44.4,10.8-51c0,0.1,0,0.2,0,0.3c-3.7,10.7-5.9,21.7-6.4,33.1
		c-0.5,10.3,0.3,20.6,2.5,30.7c4.4,19.6,13.8,36.4,27.8,50.8c7.8,7.9,16.1,15.2,24.5,22.4c3.7,3.2,7.6,6.2,11.4,9.2
		c0.2,0.2,0.4,0.3,0.6,0.5c0,0,0,0,0,0c-0.1-0.2-0.3-0.5-0.4-0.7l0,0c-6.8-7-12.7-14.7-17.4-23.3c-3.4-6.3-6.2-12.7-7.4-19.8
		c0-0.2-0.1-0.3-0.1-0.5c0.1,0,0.1,0,0.2-0.1c0,0.1,0.1,0.3,0.1,0.4c0.1,0.1,0.2,0.2,0.3,0.3c5.2,9.4,11.2,18.1,18.4,26.1
		c18.9,20.9,41.3,36.7,67.4,47.2c1.1,0.5,2.3,0.9,3.4,1.3c-16.4-11.6-31.8-24.4-45.9-38.8c-1.9-2.1-3.9-4.1-5.8-6.3
		c-6.2-7.1-11.9-14.6-16.2-23.1c-0.2-0.4-0.4-0.9-0.3-1.5c0.9,1.5,1.8,3,2.7,4.5c4.8,8,10.7,15.1,16.8,22c1.1,1.3,2.2,2.5,3.4,3.8
		c5.3,4.6,10.6,9.2,16,13.7c4,3.3,8.1,6.4,12.2,9.5c0.1,0.1,0.2,0.2,0.3,0.3c0.1,0.1,0.3,0.3,0.4,0.4c0.2,0.2,0.5,0.3,0.7,0.5
		c0-0.1,0.1-0.1,0.1-0.2c-0.2-0.2-0.4-0.3-0.6-0.5c-0.2-0.2-0.4-0.4-0.5-0.5c0,0,0,0,0,0c0,0-0.1-0.1-0.1-0.1
		c-0.2-0.2-0.4-0.5-0.7-0.7c-10-10-18.5-21.1-24.9-33.8c-1.4-2.8-2.5-5.8-3.7-8.8c0.1,0,0.2,0,0.3-0.1c6.8,6.1,13.6,12.1,20.4,18.2
		c0.1-0.1,0.2-0.2,0.3-0.3c-0.2-0.2-0.4-0.5-0.6-0.7c-2.6-3.1-5.3-6.1-7.9-9.2c-9.6-11.7-16.6-24.7-19.7-39.7c0-0.3-0.1-0.5-0.1-0.8
		c0.1,0,0.1,0,0.2,0c0.1,0.2,0.1,0.4,0.2,0.6c1.4,2.7,2.7,5.4,4.3,8c7.5,12.7,17.7,23.1,29.7,31.5c10.5,7.3,21.5,14,32.2,21
		c0,0,0.1-0.1,0.2-0.1c-0.1-0.1-0.1-0.3-0.2-0.4c-7.4-10.5-11.6-22.2-12.9-34.9c-1.1-11,1-21.5,5.8-31.5
		c5.2-10.8,12.9-19.7,21.1-28.2c0.1-0.1,0.1-0.1,0.2-0.2c0.2-0.2,0.4-0.5,0.6-0.7c0.1,0,0.1,0.1,0.2,0.1c-0.2,0.2-0.4,0.5-0.6,0.7
		c-0.1,0.1-0.2,0.2-0.2,0.3c-3.7,5.6-6.9,11.5-9.4,17.8c-6.3,15.6-8,31.7-5.4,48.3c1.3,8.8,3.6,17.4,6.4,25.9
		c0.9,2.6,1.8,5.2,2.7,7.8c0.1-6.7,0.9-13.2,2.4-19.7c3.6-15.4,11.3-28.5,22.2-39.8c4.8-5,9.7-9.9,14.4-15c2.3-2.5,4.1-5.5,6.2-8.4
		c-3.1,10.6-7.2,20.6-12.1,30.4c-4.9,9.7-10.7,18.8-16.8,27.8c0.2,0,0.3,0,0.4-0.1c10.2-9.2,20.1-18.7,28.7-29.5
		c6.1-7.6,11.6-15.4,15.2-24.5c0.4-0.9,0.7-1.9,1.1-2.9c0,1.9-0.2,3.8-0.5,5.7c-1.8,9.1-5.4,17.5-10.3,25.4
		c-2.9,4.6-6.4,8.7-9.6,13.1c-0.1,0.1-0.2,0.2-0.3,0.3c-0.1,0.1-0.2,0.2-0.3,0.3c-0.1,0.1-0.2,0.2-0.3,0.3c-0.1,0.1-0.2,0.2-0.2,0.3
		c0.1,0,0.3-0.1,0.4-0.1c0.1-0.1,0.2-0.2,0.3-0.3c0.1-0.1,0.2-0.2,0.3-0.3c0.1-0.1,0.2-0.2,0.3-0.3c0.9-0.9,1.9-1.7,2.8-2.6
		c7.8-7.6,14.9-15.7,20.4-25.1c5.9-10.3,9.3-21.5,11.2-33.2c0.1-0.7,0.8-1.4,1.3-2c1-1.3,2.3-2.4,3.2-3.7c0.9-1.3,1.4-2.8,2.3-4.1
		c0.8-1.1,2-1.9,3.1-2.8c0.7-0.6,1.3-0.3,2,0.1c3,1.9,6,3.9,9.2,5.6c7.1,3.7,14.7,6.3,22.3,8.8c9.4,3.1,18.9,5.3,28.9,4.7
		c4.5-0.3,8.8-1,13.1-2.5c4.4-1.6,7.5-4.4,9-8.8c0.3-0.8,0.7-1.6,1-2.5c3,0.5,5.8,0.3,8.2-1.6c1-0.8,2-1.8,2.8-2.8
		c1.9-2.4,4.3-4.2,7.1-5.6c1.9-1,3.9-1.9,5.9-2.7c6.6-2.7,12.6-6.1,15-13.6c1.1-3.3,3.6-5.5,6.8-7c1.7-0.8,3.4-1.7,5-2.7
		C666.9,533.7,667.6,531.5,666.9,529z M595.6,441.4c-0.6-1.1-1.2-2-1.7-2.9c-1.5-2.7-2.9-5.4-4.3-8.2c-0.5-0.8-0.4-1.5,0.4-2.2
		c3.7-3.3,5.4-7.8,6.9-12.5C599.8,424.2,597.9,432.7,595.6,441.4z M589.7,409.4c1.9-0.9,2.5-0.7,3,1.3c0.7,2.8,0.4,5.6-0.8,8.2
		c-0.4,0.9-1,1.7-1.7,2.4c-1.1,1.1-2.6,1.8-4,1.2c-1-0.4-1.5-1.9-2.3-3C590.7,418.4,593,414.2,589.7,409.4z M584.3,413.2
		c0-0.7,0.6-1.3,1.3-1.3s1.3,0.6,1.3,1.3c0,0.7-0.6,1.3-1.3,1.3S584.3,413.9,584.3,413.2z M593.5,414.5c0.2-1.7,0.4-3.4,0.6-5.2
		c0.6,0.2,1.2,0.4,1.8,0.6c-0.8,1.6-1.4,3.2-2.1,4.7C593.7,414.6,593.6,414.6,593.5,414.5z M611.6,377.9
		C611.6,377.9,611.7,377.9,611.6,377.9c0.1,0,0.1,0.1,0.1,0.1c0,0-0.1,0-0.1,0C611.6,377.9,611.6,377.9,611.6,377.9z M606,381.9
		c0.1-0.1,0.1-0.1,0.2-0.2c0,0.1,0,0.2-0.1,0.3c-0.5,1-1.1,2-1.6,2.9c0,0,0,0,0,0c0,0.1,0,0.2,0,0.3c0.1-0.1,0.1-0.1,0.2-0.2
		c3.1-1.2,4.9-3.8,6.9-6.4c-0.2,1-0.2,2-0.5,2.9c-1.2,3.4-2.6,6.7-3.6,10.2c-0.8,2.6-1.3,5.2-1.6,7.9c-0.4,4-2.1,5.4-6.1,4.6
		c-1.7-0.4-3.3-0.7-5-0.8c-2.6-0.2-4.7,0.9-6.6,2.6c-0.7,0.6-1.4,1.4-2.1,2.1c-0.1-0.1-0.2-0.1-0.3-0.2c0.8-2.5,1.4-5.1,2.4-7.5
		c1.3-3.1,2.8-6.2,4.4-9.2c1.5-2.7,3.8-4.5,6.6-5.8C601.4,384.3,603.7,383.1,606,381.9z M539.4,296.9c3.9,3.1,8.1,6,11.8,9.4
		c6.5,5.8,12.9,11.6,19,17.9c10.4,10.8,19.8,22.5,26.8,36c0.7,1.3,1.3,2.6,1.9,3.8c0.2,0.4,0.4,0.8,0.6,1.1c2,3.3,4.3,3.5,6.8,0.6
		c0.2-0.2,0.3-0.4,0.6-0.6c-1,3.8-3,7-6.4,9.2c-1.4,0.9-2.9,1.6-4.3,2.5c-1.9,1.2-3.8,2.5-5.7,3.7c0-0.3-0.1-0.9-0.1-1.7
		c-2.4,2.4-3.6,5.3-4.6,8.2c-0.1,0-0.2-0.1-0.3-0.1c0.6-2.7,1.2-5.4,1.9-8.2c-2.2,3.2-3.5,6.8-4.5,10.6c-0.6,2.3-1,4.7-1.4,6.8
		c-0.2-4.9-0.5-10.1,1.2-15.1c-0.1-0.1-0.2-0.2-0.3-0.3c-2.4,3.4-3.5,7.3-4.2,11.4c0.2-9.3,2.2-18,8.1-25.4c1.1-1.4,2.5-2.7,3.8-4
		c-1.8,1-3.7,1.9-5.4,3.2c-1.5,1.1-2.7,2.6-4.1,3.9c0.3-2.7,0.6-5.4,0.9-8.1c1.1-9.9-1.6-18.6-8.5-25.8c-1.5-1.6-3.2-2.9-4.8-4.4
		c0,0,0,0,0,0c-0.1-0.1-0.2-0.2-0.3-0.3c0,0,0,0,0,0c-0.1,0-0.2-0.1-0.4-0.1c0.1,0.1,0.1,0.2,0.2,0.3c0.1,0.1,0.2,0.2,0.2,0.3
		c0,0,0,0,0,0c3.2,5.2,5.6,10.7,7.1,16.7c1.4,5.9,1.5,11.7,0.6,17.7c0,0.2-0.1,0.4-0.3,1c-1.8-8.1-4.4-15.7-8.2-22.9
		c1,4.9,1.9,9.7,2.8,14.5c-0.1,0-0.2,0.1-0.4,0.1c-0.8-2.6-1.5-5.2-2.3-7.8c-3.6-12-8.1-23.6-14.4-34.4c-0.1-0.2-0.2-0.5-0.3-0.8
		c-0.1-0.2-0.2-0.4-0.3-0.6c-0.1-0.1-0.1-0.1-0.2-0.2c0.1,0,0.2,0.1,0.2,0.1c0.1,0.2,0.3,0.3,0.4,0.5c2.5,3.1,5,6.1,7.6,9.2
		c0.3,0.4,0.6,0.8,1,1.2c0.1-0.1,0.2-0.1,0.3-0.2c-0.5-1.2-0.9-2.4-1.4-3.5c-2.5-5.7-6-10.7-10.5-15.1c-3.4-3.4-6.9-6.6-10.4-9.9
		c-0.1-0.1-0.1-0.2-0.2-0.3C539.2,296.8,539.3,296.8,539.4,296.9z M554.7,355.3c0,0.1-0.1,0.1-0.1,0.2c0,0-0.1-0.1-0.1-0.1
		C554.5,355.3,554.6,355.3,554.7,355.3C554.6,355.2,554.7,355.3,554.7,355.3z M538.6,296.3c0.1,0.1,0.1,0.2,0.2,0.3
		c-0.1,0-0.2-0.1-0.3-0.1c0-0.1-0.1-0.2-0.1-0.3C538.4,296.2,538.5,296.2,538.6,296.3z M512.3,286.9c0.1,0.1,0.2,0.2,0.3,0.3
		c0.1,0.1,0.2,0.2,0.3,0.3c0.1,0.1,0.2,0.2,0.3,0.3c0.1,0.1,0.2,0.2,0.3,0.3c0.1,0.1,0.2,0.2,0.3,0.3c0.1,0.2,0.2,0.3,0.3,0.5
		c-0.2-0.1-0.3-0.2-0.5-0.2c-0.1-0.1-0.2-0.2-0.3-0.3c-0.1-0.1-0.2-0.2-0.3-0.3c-0.1-0.1-0.2-0.2-0.3-0.3c-0.1-0.1-0.2-0.2-0.3-0.3
		c-0.1-0.1-0.2-0.2-0.3-0.3c0-0.1-0.1-0.2-0.1-0.3C512.2,286.8,512.2,286.8,512.3,286.9z M458.9,192.2c0.1,5.5,0,10.9,0.3,16.4
		c0.9,18.5,5.9,35.6,17.1,50.7c3.1,4.2,6.2,8.4,8.8,12.9c5.7,9.7,3.7,22.6-4.5,30c-4,3.6-9,5.4-14.2,6.5c-1,0.2-2.1,0.6-3.1,0.5
		c-2.9-0.3-4.6,1.2-6.5,3.3c-2.4,2.5-5.4,4.5-8.2,6.5c-3.4,2.4-7,4.5-10.5,6.8c-3.9,2.7-8,4.9-12.5,6.4c-0.2,0.1-0.4,0.1-0.7,0.1
		c3.1-2.6,5.3-5.9,7.4-9.3c3.2-9.5-0.1-17.7-5.2-25.4c-3.5-5.3-8.1-9.6-13.6-13c4.5,0.2,13.4,4.6,18.5,9.1
		c5.4,4.8,8.9,10.7,9.2,18.2c1.3-3.4-2.2-19.8-5.5-26.5c-4.2-8.3-10.4-14.9-17.4-21.1c1.6,0.7,3.3,1.3,4.9,2.1
		c9.3,4.2,17.4,10,24.3,17.5c0,0,0.1-0.1,0.1-0.1c0,0-0.1,0.1-0.1,0.1c0.4,0.5,0.8,1,1.1,1.4c0.1-0.2,0.1-0.4,0.1-0.5
		c-0.3-0.5-0.6-0.9-1-1.4v0c-2.9-3.8-5.5-7.7-8.7-11.2c-4.7-5.2-9.7-10.1-14.6-15.2c-0.3-0.3-0.5-0.6-0.7-0.9
		c3.2,1.9,6.6,3.5,9.7,5.6c4.5,3.1,8.7,6.5,13,9.8c0.1-0.1,0.2-0.2,0.3-0.2c-5.3-5.5-10.6-11-14.9-17.3c-3.2-4.6-6.3-9.3-9.6-14.1
		c6.3,1.3,11.7,4,16.8,7.5c0.1,0,0.3-0.1,0.4-0.1c-2.3-3.4-4.8-6.7-6.9-10.2c-3.6-5.8-5.9-12.2-7.3-18.8c0-0.2,0-0.5-0.1-0.8
		c4.4,1.2,7.7,3.8,10.3,7.4c1.4,2,3,3.9,4.5,5.8c0.2,0,0.4-0.1,0.6-0.1c0.5-2.2,1-4.4,1.5-6.6c1.4-6.8,2.9-13.6,4.3-20.4
		c0.2,0,0.4,0.1,0.6,0.1c-0.2,1.4-0.4,2.9-0.6,4.3c-1.1,6.9-1.4,13.8-1.2,20.7c0.3,10.2,3.1,19.7,8.1,28.5c1.5,2.6,3,5.1,4.7,7.6
		c-0.9-2-1.9-3.9-2.8-5.9c-2.8-6-5.3-12.2-6.5-18.8c-0.9-5-0.9-10-0.7-15c0-0.6,0.1-1.2,0.1-1.8c0.1-0.6,0.2-1.2,0.3-1.6
		c0,1.1,0,2.3,0,3.5c-0.1,12.2,3.6,23.4,8.4,34.4c2.4,5.4,3.5,11.2,4.3,17c0.2,1.8,0.4,3.5,0.6,5.3c0.4,2.4,0.9,4.8,1.1,7.2
		c0.2,2.8,0,5.6,0,8.4c0.1,0,0.2,0,0.3,0c0.3-2.1,0.6-4.3,0.7-6.4c0.3-6.3-0.3-12.5-1-18.7c-0.2-1.7-0.2-3.4-0.4-5.1c0,0,0,0,0,0
		c0.1-0.3,0.4-0.6,0.3-0.8c-0.9-3.8-1.6-7.6-2.7-11.3c-2.1-7.5-3.4-15-4-22.8c-0.3-3.3-0.5-6.5-0.6-9.8c0.9,3.8,1.7,7.7,2.9,11.5
		c1.1,3.7,2.7,7.2,4.1,10.7c0.2,0.4,0.4,0.7,0.7,1.1l0,0c0,0.1,0.1,0.3,0.1,0.4c0.1,0,0.1-0.1,0.2-0.1c-0.1-0.1-0.2-0.3-0.2-0.4
		c-1.2-4-2.6-7.9-3.6-12c-2.3-9.1-2.9-18.3-2.2-27.7c0.4-5,0.7-10,1.4-15C458.9,191.5,458.9,191.8,458.9,192.2z M423.2,256
		c0,0,0.1-0.1,0.1-0.1c0.1,0.1,0.2,0.1,0.3,0.2C423.4,256.1,423.3,256.1,423.2,256z M462.2,267.2
		C462.3,267.2,462.3,267.2,462.2,267.2C462.3,267.2,462.3,267.2,462.2,267.2C462.3,267.2,462.3,267.2,462.2,267.2z M350.9,299.5
		c0.6-2.2,1.2-4.4,3.6-5.5c0.4-0.2,0.5-1,0.5-1.6c0.2-2.9,0.3-5.9,0.6-8.8c0.8-7.3,3-14.2,5.6-20.9c3.8-9.5,9.4-18,15.4-26.2
		c10.6-14.6,22.8-27.8,35.9-40.2c7.2-6.8,14.7-13.3,23-18.6c4.5-2.9,9.3-5,14.8-4.5c2.9,0.2,5.4,1.2,6.9,4
		c-6.3-0.3-11.6,2.3-16.7,5.5c-8.2,5.1-15.7,11.2-23.1,17.4c-8,6.7-15.4,14.1-22.3,22c-9.1,10.4-16.5,21.8-21,34.9
		c-2,6-3.1,12.2-3.3,18.6c-0.1,4.8,0.8,9.5,2.8,14c0.1,0.3,0.1,0.6,0.2,0.9c1.8,2.6,3.6,5.2,5.4,7.8c0.2-0.1,0.3-0.2,0.5-0.3
		c-0.2-0.4-0.4-0.9-0.7-1.2c-5.6-7.1-7.2-15.2-6.3-24c1.3-12.3,6.6-23.1,13.4-33.2c8.5-12.5,18.7-23.5,30-33.6
		c2.1-1.8,4.1-3.7,6.2-5.5c0.2-0.2,0.5-0.4,0.9-0.4c-19.6,19.8-33.2,43-40.4,70.4c4.7-3.5,9.4-5.9,15-7.4c-0.5,0.7-0.9,1.2-1.3,1.6
		c-3.9,4.9-5.7,10.8-7.1,16.7c-1.1,4.8-1.9,9.7-2.9,14.5c-0.2,1-0.6,2-0.9,3c-0.1,0.1-0.2,0.3-0.3,0.4c0,0,0.1,0.1,0.1,0.1
		c0.1-0.1,0.2-0.3,0.3-0.4c4.8-5.2,8.5-11,10.8-17.8c0.2,0,0.3,0.1,0.5,0.1c-0.4,4-0.6,8.1-1.2,12.1c-1.2,7.9-2.9,15.7-6,23.2
		c-1,2.4-2.3,4.8-3.4,7.1l0,0c-0.1,0-0.2,0.1-0.3,0.1c0.2,0,0.3,0,0.5,0c7.2-7.2,11.6-15.8,13.1-25.9c0,1.6,0.1,3.3,0,4.9
		c-0.1,1.7-0.2,3.4-0.4,5.1c-0.8,5.7-2.1,11.3-4.6,16.5c-1.4,2.8-3.1,5.5-5.1,7.8c-2.7,3.1-5.7,2.9-8.6,0.1
		c-0.7-0.7-1.3-1.4-1.8-2.2c-3-4.2-4.6-9-5.7-13.9c-1.1-5-1.5-10-1.4-15.1c0-0.5,0-1-0.1-1.5c-2,7.8-3,15.7-2.3,24
		c-5.8-9.6-9-19.8-9.9-30.7c-0.4,1.7-0.8,3.4-1,5.1c-1.2,9.8,0.3,19.2,4.5,28.3c1.8,3.9,4,7.6,6.7,11c0.1,0.1,0.1,0.2,0.2,0.4
		c-0.1-0.1-0.2-0.1-0.3-0.2c-9.9-7.1-17.2-16-19.3-28.4C350.1,305.9,350,302.6,350.9,299.5z M379.4,355.2
		c-4.2,2.2-15.5-1.6-17.9-6.1C366.7,353.2,372.6,355.6,379.4,355.2z M361.2,348.9c-0.1,0.1-0.2,0.2-0.3,0.3c-0.3-0.4-0.7-0.8-1-1.1
		c-0.1-0.1-0.2-0.2-0.3-0.3c-0.1-0.1-0.2-0.2-0.3-0.3c-0.1-0.1-0.2-0.2-0.3-0.3c-0.1-0.1-0.2-0.2-0.2-0.3c0.1,0.1,0.2,0.1,0.3,0.2
		c0.1,0.1,0.2,0.2,0.3,0.3c0.1,0.1,0.2,0.2,0.3,0.3c0.1,0.1,0.2,0.2,0.3,0.3C360.5,348.2,360.8,348.6,361.2,348.9z M358.4,346.2
		C358.3,346.1,358.3,346.1,358.4,346.2c-0.1-0.1-0.1-0.1-0.1-0.1C358.3,346.1,358.3,346.1,358.4,346.2z M358.2,346
		c0,0-0.1-0.1-0.1-0.1C358.1,345.9,358.2,345.9,358.2,346C358.2,345.9,358.2,345.9,358.2,346z M343.9,358.7L343.9,358.7L343.9,358.7
		L343.9,358.7z M342.5,359.3c0.2-0.1,0.4-0.2,0.6-0.3c0.1,0,0.2-0.1,0.3-0.1c-0.1,0.1-0.1,0.1-0.2,0.2c-0.2,0.1-0.3,0.3-0.5,0.4
		c-4.8,4.6-9.6,9.3-14.5,13.8c-1.9,1.7-4.1,3-6.2,4.5c-5.2,3.8-9.5,8.5-12.5,14.3c0.4-1.3,0.7-2.7,1.1-4c2.1-6.4,5.4-12.2,10-17.1
		c2.6-2.7,5.5-5.2,8.3-7.8c0.3-0.3,0.7-0.5,1.1-0.7c0.2-0.2,0.4-0.3,0.7-0.5c0.1,0,0.2-0.1,0.3-0.1c0,0.1-0.1,0.2-0.1,0.3
		c-0.2,0.2-0.4,0.4-0.6,0.5c-2.3,2.5-4.6,5.1-6.9,7.6l0,0c0,0.1,0,0.1-0.1,0.2c0-0.1,0.1-0.1,0.1-0.2c1.9-1.1,3.7-2.2,5.6-3.3
		c4.2-2.5,8.4-5,12.5-7.5C341.7,359.6,342.1,359.5,342.5,359.3z M329.7,417.1c0,0.1-0.1,0.2-0.1,0.3c-0.1,0.1-0.2,0.2-0.3,0.3
		c-0.1,0-0.2,0.1-0.3,0.1c0-0.1,0.1-0.2,0.1-0.3c0.1-0.1,0.2-0.2,0.3-0.3C329.5,417.2,329.6,417.1,329.7,417.1z M320.4,350.5
		c0.1-0.1,0.1-0.1,0.2-0.2c0.1-0.1,0.2-0.2,0.3-0.3c0.1,0,0.2-0.1,0.3-0.1c-0.1,0.1-0.1,0.2-0.2,0.3c-0.1,0.1-0.2,0.2-0.3,0.2
		C320.6,350.4,320.5,350.4,320.4,350.5z M321.5,349.6c0-0.1,0.1-0.2,0.1-0.3c0.1-0.1,0.2-0.2,0.3-0.3c2.3-2.5,4.5-5.1,5.9-8.3
		c0.7-1.7,1.4-3.4,2-4.9c0.2,3.8-3.6,10.4-7.7,13.4c-0.1,0.1-0.2,0.2-0.3,0.3C321.7,349.5,321.6,349.6,321.5,349.6z M331.2,361.8
		c0.1,0,0.1-0.1,0.2-0.1c0-0.1,0.1-0.1,0.1-0.2c0,0.1-0.1,0.2-0.1,0.2c0,0.1-0.1,0.1-0.1,0.2C331.3,361.8,331.3,361.8,331.2,361.8z
		 M338.3,294.7C338.3,294.7,338.4,294.8,338.3,294.7c0,0.1-0.1,0.1-0.1,0.2c0,0-0.1-0.1-0.1-0.1
		C338.2,294.8,338.2,294.7,338.3,294.7z M300.3,280.5c-1.8-1.6-3.6-3.1-5.4-4.6c-0.1-0.1-0.2-0.2-0.3-0.3c0.2,0,0.3,0.1,0.5,0.1
		c3,1.2,6.1,2.3,9.1,3.6c3.9,1.7,7.7,3.5,11.6,5.3c-2.1,1.2-4.6,1.5-7.2,0.8C305.4,284.5,302.8,282.7,300.3,280.5z M299.5,308.4
		c-5.8,0.7-11.7,1-17.6,1.5c-4.1,0.4-8.2,0.8-12.2,1.2c0,0.2,0,0.3,0,0.5c4,0.7,8,1.4,12.1,2.1c-3.7,0.4-20.3-1.2-22.6-2.3
		c11.4-3.5,22.5-7.2,34.3-9c-5.5-0.5-10.9-0.9-16.5-1.4c0.5-0.4,0.9-0.7,1.6-1.1c-5.7-1.9-11.4-2.8-17.3-3.4
		c2.3-0.4,4.6-0.8,6.9-1.1c7.6-0.8,15.1,0.2,22.5,1.3c2.3,0.3,4.7,0.6,7.2,0.5c-0.7-0.7-1.4-1.5-2.2-2.3c2.2-0.1,4.3-0.2,6.3-0.3
		c4.6-0.3,9-1.2,13.3-2.8c0.2-0.1,0.4-0.1,0.6-0.1c0.1-0.1,0.2-0.1,0.3-0.2c0,0,0.1,0.1,0.1,0.1c-0.1,0.1-0.2,0.1-0.4,0.2
		c-2.3,1.3-4.6,2.6-7,3.9c-0.5,0.3-1,0.4-1.5,0.6c0,0.1,0.1,0.3,0.1,0.4c1.6-0.4,3.1-0.7,4.7-1.1c4.2-1.2,8.4-2.4,12.5-3.5
		c0.1-0.1,0.2-0.2,0.2-0.2c0,0,0.1,0.1,0.1,0.1c-0.1,0-0.2,0.1-0.4,0.1c-2.5,1.6-5,3.1-7.4,4.7c-0.5,0.3-1,0.7-1.5,1.1
		c7.4,0.8,14.5-0.6,21.7-2.5c-0.8,0.4-1.5,0.9-2.3,1.3C324.2,302.7,312.3,306.9,299.5,308.4z M324.8,318.2
		C324.8,318.2,324.8,318.2,324.8,318.2c-0.1,0.1-0.1,0-0.2,0C324.7,318.2,324.7,318.1,324.8,318.2
		C324.8,318.1,324.8,318.2,324.8,318.2z M321.2,314.6C321.2,314.6,321.3,314.6,321.2,314.6C321.3,314.6,321.3,314.6,321.2,314.6
		C321.4,314.6,321.3,314.6,321.2,314.6z M242.7,381.1C242.7,381.1,242.7,381.1,242.7,381.1C242.7,381.1,242.7,381.2,242.7,381.1
		C242.6,381.2,242.6,381.1,242.7,381.1z M229.1,399.9c0.1,0,0.1,0.1,0.1,0.1c-0.1,0-0.1,0.1-0.2,0.1c0,0-0.1,0-0.1-0.1
		C229,400,229.1,400,229.1,399.9z M222.2,407.2c-0.2,0-0.4,0-0.5,0c0,0,0,0,0,0C221.9,407.2,222,407.2,222.2,407.2
		C222.2,407.2,222.2,407.2,222.2,407.2z M240.9,446.8c-7.4,8.2-12.7,17.5-14.5,28.5c-0.3,2-0.5,3.9-0.8,6.1
		c-2.1-10.4-0.8-20.2,3.4-29.6c4.5-10,11.1-18.4,19.1-25.8c3.4-3.2,6.9-6.4,10.4-9.5l-0.1-0.1c-2.4,0.7-4.8,1.4-7.3,2.1
		c-0.5,0.1-1,0.2-1.5,0.3c3.3-3.4,6.8-6.6,9.9-10.2c5.2-6.1,10.2-12.4,15.3-18.6c0.2-0.2,0.3-0.5,0.6-0.9c-0.4,0.1-0.5,0.1-0.6,0.2
		c-7.6,6.6-16.7,10.2-26.3,12.6c-5.8,1.4-11.7,2.5-17.5,3.8c-0.3,0.1-0.7,0-1,0c-2.2,0.5-4.5,1-6.7,1.5c0-0.1,0-0.2-0.1-0.4
		c2.3-0.4,4.5-0.8,6.8-1.2c2.5-0.8,5-1.4,7.4-2.3c6.7-2.3,13-5.2,18.3-10c0.8-0.8,1.5-1.7,2.3-2.5c-0.1,0-0.1-0.1-0.2-0.2
		c-8.6,4.2-17.6,6.9-26.9,9.1c-0.4,0.1-0.7,0.1-1.1,0.2c-0.1-0.1-0.2-0.2-0.2-0.3c0.2-0.1,0.4-0.2,0.6-0.2
		c10.6-5.1,20.1-12,28.8-19.8c1.7-1.5,3.2-3.1,4.8-4.7c-1.4,0.5-2.7,1.1-4.2,1.5c-5.4,1.6-10.8,3.1-16.2,4.7c-0.2,0.1-0.4,0-0.7,0
		c0.1-0.2,0.2-0.3,0.3-0.5c0.3-0.3,0.5-0.6,0.8-1l0,0c0.4-0.2,0.9-0.4,1.3-0.7c0,0,0,0,0,0c2-1.6,4-3.1,6.1-4.7c1.3-1,2.7-1.9,4.3-3
		c-8.3-1.6-16.4-3.1-24.7-4.7c6.3-2,12.5-3.9,18.7-5.8c6.3-1.9,12.8-2.6,19.4-3.3c-4.9-1.3-9.7-2.8-14.6-4c-7.3-1.8-14.7-3.3-22-5.2
		c-2.7-0.7-5.2-2-7.7-3.3c2.2,0.3,4.4,0.6,6.7,0.9c6.6,0.8,13.2,0.6,19.7-0.2c9.9-1.3,18.9-4.9,27.7-9.4
		c11.3-5.8,22.6-11.4,33.9-17.1c2.7-1.4,5.4-2.8,8.1-4.1c0.1-0.1,0.2-0.1,0.3-0.2c-0.1,0.1-0.1,0.2-0.2,0.3c-3,2.3-5.9,4.6-9,6.8
		c-9.6,6.7-19.6,12.9-30.4,17.6c-6.5,2.9-13.2,5.3-20.1,7c-0.5,0.1-0.9,0.2-1.3,0.7c1.4-0.3,2.9-0.5,4.3-0.8
		c9.4-2.1,18.3-5.7,27-9.7c10.7-5,20.9-11,31-17.1c0.4-0.2,0.8-0.4,1.1-0.6c0.2-0.1,0.4-0.3,0.6-0.4c0,0.1,0.1,0.1,0.1,0.2
		c-0.2,0.2-0.3,0.3-0.5,0.5c-5,3.5-9.9,7.1-14.9,10.5c-3.4,2.3-6.9,4.4-10.3,6.5c0,0,0,0,0,0c-0.2,0.1-0.3,0.2-0.5,0.3
		c0.2-0.1,0.4-0.1,0.6-0.2c3.1-1.4,6.2-2.7,9.2-4.2c6.7-3.4,13.2-7,19.9-10.6c0.3-0.2,0.6-0.3,1.1-0.3c-5.9,9.3-13.2,17.3-22.2,23.6
		c-9.1,6.3-19.1,10.2-30.3,11.3c1.7,0.8,3.4,1.6,5.2,2.5c-10.1,4.5-20.4,4.7-31,3.8c0.9,0.3,1.7,0.7,2.6,1c0.9,0.3,1.8,0.7,2.7,1
		c8.7,3.2,17.6,4.5,26.8,4c6.7-0.4,13-2.4,19.1-5.3c2.4-1.1,3.5-0.6,3.3,2.2c-0.2,3.2-0.6,6.5-1.5,9.6c-4,13.8-10.1,26.7-18.4,38.5
		c-1.1,1.5-2.3,3-3.6,4.4c-2.3,2.7-5.1,4.6-8.4,6C260.6,428.9,249.9,436.8,240.9,446.8z M303.7,412.9c-0.1,0.1-0.1,0.3-0.2,0.4
		c0,0.1-0.1,0.2-0.1,0.2c0,0-0.1-0.1-0.1-0.1c0.1,0,0.1-0.1,0.2-0.1c0-0.2,0-0.3,0.1-0.5C303.6,412.9,303.7,412.9,303.7,412.9z
		 M287.1,434.6c0.1-0.1,0.3-0.3,0.4-0.4c-0.2,0.1-0.4,0.1-0.6,0.2c0,0,0,0,0,0c0,0,0,0,0,0c-5.8,2.8-11.8,4.9-18.2,5.9
		c-3.2,0.5-6.4,0.8-9.6,1.1c3.5-0.9,7.1-1.5,10.6-2.6c3.5-1.1,6.8-2.6,10.1-4.2c9.4-4.6,17.1-11,22.7-20c0.1-0.2,0.2-0.3,0.4-0.4
		c0.1-0.1,0.2-0.1,0.3-0.2c0,0.1,0,0.2-0.1,0.3c-1.2,2.3-2.2,4.6-3.5,6.8c-2.1,3.2-4.3,6.3-6.5,9.5c-0.3,0.4-0.5,0.7-1,1.3
		c5.5-0.8,10.6-1.9,15.7-3.6c7.3-2.5,14.2-5.7,20.5-10.2c0.1,0,0.3-0.1,0.4-0.1c-0.1,0.1-0.1,0.2-0.2,0.3c-3.3,2.9-6.5,6-10,8.6
		c-8.9,6.7-18.6,11.6-29.5,13.9c-3.6,0.8-7.4,1-11.1,1.3C281.3,440,284.5,437.6,287.1,434.6C287.1,434.6,287.1,434.6,287.1,434.6z
		 M282.9,483.8c-0.4,0.2-0.8,0.2-1.1,0.4c4.3-2.9,8.8-5.6,13-8.8c11.9-9.2,21.5-20.4,29-33.5c0.9-1.5,1.7-2.9,2.6-4.4
		c0.2-0.5,0.2-1.1,0.5-1.6c9.5-17.6,23.8-29.9,42-37.9c5.7-2.5,11.4-5.1,17.1-7.7c0.4-0.2,0.8-0.5,1.2-0.7c0-0.1-0.1-0.1-0.1-0.2
		c-4.4,1.5-8.8,3-13.2,4.5c-6.1,2-12.4,3.1-18.9,2.7c-8.3-0.5-15.9-3.1-22.9-7.3c-0.1-0.1-0.2-0.2-0.3-0.3c-0.1-0.1-0.2-0.2-0.3-0.2
		c0.1,0,0.3,0.1,0.4,0.1c3.4,0.6,6.8,1.5,10.2,1.9c9.1,1.1,18.1,0.3,26.7-3.3c0.5-0.2,0.9-0.5,1.3-0.8l0,0
		c-3.9,0.3-7.9,0.5-11.8-0.3c-2.6-0.5-5.2-1.3-7.8-1.9c0-0.1,0-0.3,0.1-0.4c0.9-0.1,1.8-0.2,2.8-0.4c9.3-1.6,18-5,26.7-8.7
		c6.3-2.7,12.6-5.4,19-7.5c9.4-3,18.8-2.7,28,1.1c0,0,0,0,0,0c0.2,0,0.4,0.1,0.6,0.1c-0.1-0.1-0.3-0.2-0.4-0.3c0,0,0,0,0,0
		c0,0,0,0,0,0c-2.9-2.5-6.3-3.6-9.9-4.5c-4.3-1-8.7-1.1-13.2-0.7c-1.7,0.2-3.5,0.1-5.3,0.1c-0.5,0-1.1-0.3-1.3-0.7
		c-0.1-0.3,0.2-1,0.5-1.3c1.4-1.1,2.8-2.3,4.4-3.1c5.5-3,11.2-5.5,17.6-6.4c5.1-0.7,9.9-0.2,14.5,2.4c0-0.1,0.1-0.1,0.1-0.2
		c-1.9-1.5-3.7-3.1-5.7-4.4c-2.3-1.5-2.5-1.9-0.2-3.4c2.5-1.5,5.2-2.8,7.9-3.8c8.2-2.8,16.1-6.1,23.8-10.1
		c4.9-2.5,10.1-2.6,15.4-1.5c2.2,0.4,4.3,1,6.7,1.6c-1.4-2.6-3.3-4.4-5.5-6c-5.6-4.1-12-6.4-18.6-8.3c-0.5-0.1-1-0.3-1.4-0.5
		c16.2-2.4,31.4,0,45.6,9.4c-2.7-5.3-6.5-9.1-11.5-12c7.1-0.2,13.7,0,18.5,6.2c0.1-8.3-2.1-27-11.8-38.7c0-0.1,0-0.2-0.1-0.3
		c0.1,0.1,0.1,0.1,0.2,0.2c8.2,4.4,15.8,9.7,22.7,15.8c2.8,2.5,5.4,5,8.1,7.6c0.3,0.2,0.6,0.5,0.8,0.7c0.1-0.1,0.2-0.2,0.3-0.3
		c-5.1-5.7-10.2-11.4-15.2-17c0.1-0.1,0.1-0.2,0.2-0.2c0.3,0.2,0.7,0.4,1,0.7c9.3,9,18,18.5,25.6,29c0.1,0.1,0.1,0.2,0.1,0.3
		c0,0.1,0.1,0.2,0.1,0.3c-0.1,0-0.2-0.1-0.3-0.1c-3.4-1.9-6.9-3.9-10.3-5.8c-0.4-0.2-0.9-0.4-1.3-0.6c0,0,0,0,0,0
		c-0.1-0.1-0.3-0.1-0.4-0.2c0,0,0,0.1,0,0.1c0.1,0.1,0.2,0.1,0.3,0.2c0,0,0,0,0.1-0.1c0,0,0,0-0.1,0.1c4.2,4,8.1,8.4,11.5,13.2
		c5.9,8.4,10.1,17.7,13.1,27.5c0.1,0.3,0.2,0.5,0.2,0.8c0,0.1,0,0.2-0.1,0.4c-1.7-2.6-3.2-5.2-4.9-7.8c-1.9-2.9-4-5.8-6-8.7
		c0,0,0,0,0,0c-0.1-0.1-0.2-0.3-0.3-0.4c-0.1,0-0.1,0.1-0.2,0.1c0.1,0.2,0.2,0.3,0.2,0.5c0,0,0,0,0,0c0,0,0,0,0,0
		c2.6,5.8,5.4,11.6,7.7,17.5c1.9,4.9,3.2,10,4.8,15c0.1,0.2,0,0.4-0.1,0.7c-0.2-0.4-0.5-0.7-0.7-1.1c-7-11.1-15.6-20.5-27.2-27
		c-1.2-0.6-2.4-1.2-3.5-1.8c-0.1,0.1-0.1,0.1-0.2,0.2c3.5,2.8,7.2,5.5,10.6,8.6c4,3.6,7.1,7.9,10,12.4c0.2,0.3,0.3,0.7,0.5,1
		c0,0.1,0,0.2,0,0.3c-0.1-0.1-0.1-0.1-0.2-0.2c-4.6-4-9.7-7.3-15.3-9.7c-6-2.6-12.2-4-18.7-4.3c-11.4-0.6-22.3,1.8-32.9,6.1
		c-0.2,0.1-0.3,0.2-0.4,0.5c0.6-0.2,1.2-0.4,1.9-0.5c0.7-0.2,1.4-0.3,2.1-0.5c9.1-1.9,18.1-1.9,26.7,2.1c6.9,3.2,12.4,8,14.7,15.6
		c1,3.1,1.1,6.5,1.5,9.7c-9.8-14.6-24-18.7-40.5-17.5c3.6,0.6,7.2,1,10.8,1.8c3.6,0.8,7,2,10.6,3.1c0,0.1-0.1,0.2-0.1,0.3
		c-6.9,1-13.9,1.9-21.1,2.9c2.1,0.5,4,1.1,5.9,1.4c5.3,0.8,10.6,1.5,15.9,2.3c5.6,0.9,10.8,2.6,14.9,6.7c3.7,3.6,5.6,8,6.1,13
		c0.1,0.6,0,1.1-0.2,1.7c-0.4,1.6-1.3,2.2-2.8,1.5c-2-0.9-3.9-2-5.8-2.9c-3.2-0.7-6.4-1.6-9.6-2.2c-5.2-0.9-10.3-0.2-15.4,0.9
		c-3.9,0.9-7.7,2.2-11.7,1.6c-3.3-0.5-6.6-1-10-1.5c-2.4-0.1-4.8-0.3-7.2-0.4c0-0.1-0.1-0.1-0.1-0.2c4.2-1.5,8.3-2.9,12.9-4.5
		c-8.2,0.6-16.1,2.4-23.8-0.8c9.4,1,17.9-2.9,26.6-5.3c5.8-1.6,11.6-3.2,16.9-4.7c-3.4-0.6-7.3-1.3-11.2-1.9
		c-7.1-1.1-13.5-3.6-18.9-8.6c-0.9-0.8-1.7-1.8-2.7-2.5c2.3,4.3,5.3,7.9,9.1,11c0.1,0.1,0.2,0.1,0.4,0.2c0,0,0,0.1,0,0.1
		c-0.1,0-0.3-0.1-0.4-0.1c-3.6-1.3-6.3-3.9-8.8-6.6c-3.2-3.5-5.8-7.4-7.9-11.6c-0.1-0.2-0.2-0.3-0.4-0.6c1.6,7.6,7.1,20.1,17.6,22.4
		c-4,0-7.9-0.7-11.6-2.6c0,0,0,0,0,0c-0.1,0-0.2,0-0.3,0c0.1,0.1,0.1,0.1,0.2,0.2l0,0c3.4,3,7.5,4.2,12.4,4.6c-1.2,0.4-2,0.8-2.9,1
		c-0.9,0.3-1.8,0.6-2.7,0.8c-4.7,1.3-9.3,2.8-14.2,3.1c-3,0.2-5.8-0.4-8.7-1.1c0,0,0,0,0,0c-0.1,0-0.2-0.1-0.4-0.1
		c0.1,0.1,0.1,0.2,0.2,0.3c2.5,1.9,5.1,3.9,7.6,5.8c-2.2-0.7-4.6-1.2-6.8-2.1c-3.2-1.3-6.3-3-9.5-4.5c0,0,0,0,0,0
		c-0.1-0.1-0.2-0.1-0.4-0.2c0,0,0,0,0,0c-0.1,0-0.2-0.1-0.3-0.1c0.1,0.1,0.1,0.2,0.2,0.2c0.1,0.1,0.2,0.2,0.3,0.3
		c4.9,5,10.6,8.4,17.9,9.2c-0.8,0.5-1.5,1-2.1,1.4c-8.1,5.4-16.7,9.8-26.3,12c-4.4,1-8.8,1.6-13.4,1.7c-11.8,0.2-23.2,2.2-33.7,7.9
		c-13.3,7.2-23,17.6-27.4,32.4c-2.9,9.6-2.2,19.1,0.7,28.6c0.1,0.3,0.2,0.5,0.6,0.7c-0.1-0.5-0.1-1.1-0.2-1.6
		c-1.3-11.8,2.2-23.5,14.4-30.5c0.1-0.1,0.1-0.1,0.2-0.2c0,0.1,0,0.2-0.1,0.3c-2,4.3-4.3,8.5-5.8,12.9c-2.5,7.1-3,14.5-2.3,21.9
		c0.3,3.3,0.6,6.7,0.9,10c0.5-4.3,0.8-8.6,1.5-12.8c0.5-3,1.6-5.9,2.5-8.8c0-0.2,0-0.4,0-0.6c0.1,0,0.2,0.1,0.2,0.1
		c-0.1,0.2-0.2,0.4-0.3,0.6c-0.3,2.2-0.8,4.5-0.9,6.7c-0.1,4.4-0.1,8.8,0.2,13.2c0.1,2.8,0.7,5.5,1.2,8.3c1.1-11.9,2.5-23.6,10-33.7
		c0,2.2,0,4.4,0,6.6c-0.1,14.4-2.9,28.3-9.8,41.1c-5.8,10.6-13.8,19.3-23.7,26.1c-0.6,0.4-1.2,1-1.7,1.5c-0.6,0.2-1.3,0.5-1.9,0.7
		c-0.1,0.1-0.2,0.1-0.4,0.2c-0.2,0.1-0.4,0.2-0.6,0.3c-0.1,0-0.2,0.1-0.3,0.1c0.1-0.1,0.1-0.2,0.2-0.3c0.2-0.1,0.3-0.2,0.5-0.3
		c0.1-0.1,0.2-0.2,0.3-0.2c3-1.5,2.9-4.5,3.5-7.2c1.6-7.5,2.5-15,2.4-22.7c0-0.1,0.1-0.1,0.2-0.4c0.8,1.1,1.5,2.2,2.2,3.3
		c0.1,0,0.1,0,0.2-0.1c-0.7-3.4-1.5-6.8-2.1-10.2c-1.7-9-3.3-18-3.7-27.1c-0.3-7.5-0.1-14.9,1.8-22.2c0.1-0.2,0-0.5,0-0.7
		c-1.5,4-3.3,7.9-4.5,12c-3.4,12.1-3,24.1,0.8,36.1c0,0.1,0,0.2,0,0.5c-0.3-0.4-0.5-0.7-0.7-0.9c-6.2-10.3-8.5-21.5-7.7-33.5
		c0.9-12.6,6.4-23.1,14.8-32.2c0.3-0.3,0.5-0.6,0.7-0.9h0c0.1-0.1,0.2-0.2,0.3-0.3c0.1-0.1,0.2-0.2,0.3-0.3c0.2-0.2,0.3-0.3,0.5-0.5
		c0-0.1-0.1-0.1-0.1-0.2c-0.2,0.2-0.4,0.3-0.6,0.5c-0.1,0-0.1,0.1-0.2,0.2c-0.2,0.2-0.4,0.3-0.5,0.5c0.1,0,0.1,0.1,0.2,0.1
		c-0.1,0-0.1-0.1-0.2-0.1c-8.4,6.2-16.8,12.3-23.8,20.2C310.4,469,297.5,477.6,282.9,483.8z M555.3,424.7c-0.1,0-0.2,0-0.3-0.1
		c0,0,0-0.1,0-0.1C555.1,424.6,555.2,424.6,555.3,424.7z M515,357.6c5,1.3,9.6,2.8,13.8,5.5c6.7,4.3,12.1,9.6,14.9,17.2
		c2,5.4,1.7,10.8,0.6,16.3c-0.5,2.6-1.2,5.2-1.9,7.8c-0.1,0-0.2,0-0.4,0.1c-1.8-4.3-3.5-8.5-5.3-12.8c-0.1,0-0.1,0-0.2,0
		c0.5,2.3,1,4.7,1.6,7c1.8,7.8,4.1,15.5,7.7,22.8c0.9,1.8,2,3.4,3,5.1c0.2,0.2,0.3,0.4,0.5,0.6c0,0-0.1,0.1-0.1,0.1
		c-0.2-0.2-0.4-0.3-0.6-0.5c-6.6-4.2-11.6-9.9-14.5-17.2c-2.4-6.2-4.6-12.5-6.9-18.8c-0.1-0.4-0.3-0.8-0.5-1.2c-0.8-1.6-1-3.2-0.8-5
		c0.4-3.2,0.4-6.4,0.6-9.5c0.3,0.7,0.7,1.5,1,2.3C526.4,369,521.3,363,515,357.6z M502.1,404.4c0.4,3.2,3.1,5.3,6.4,5.1
		c2.9-0.1,5.3-2.6,5.5-5.7c0-0.8,0-1.7,0-2.5c2,1,2.5,1.9,2.1,4.1c-0.7,3.9-3.4,7-6.9,7.7c-1.9,0.4-3.8,0.1-5.5-0.9
		c-4-2.4-5.8-6.3-6.8-10.9c2-0.3,3.9-0.5,5.5-0.7C502.3,402,502,403.3,502.1,404.4z M506.7,403.1c0-1.1,0.9-2,2-2c1.1,0,2,0.9,2,2
		c0,1.1-0.9,2-2,2c-0.4,0-0.8-0.1-1.1-0.3c-0.2-0.1-0.4-0.3-0.6-0.6C506.9,403.9,506.7,403.5,506.7,403.1z M452.8,390.4
		c-0.2,0-0.3,0.1-0.5,0.1c0-0.1,0-0.2,0-0.3C452.5,390.3,452.7,390.3,452.8,390.4z M409.7,430.1
		C409.7,430.1,409.6,430.1,409.7,430.1C409.6,430.1,409.6,430.1,409.7,430.1C409.6,430.1,409.7,430.1,409.7,430.1z M402.4,431.8
		c0,0,0.1,0.1,0.1,0.1c2.4-0.6,4.7-1.2,7.1-1.8c-1.5,1.2-3.1,2.3-4.6,3.5c-6.3,4.9-12.1,10.4-16.6,17c-0.1,0.2-0.3,0.3-0.4,0.4
		c-0.1,0.1-0.1,0.2-0.2,0.4c0,0-0.1,0-0.1,0c0-0.1,0.1-0.3,0.1-0.4c1.8-6.2,4.1-12.2,7.1-17.9c0.2-0.4,0.4-0.8,0.4-1.5
		c-1.9,1.4-3.8,2.8-5.6,4.3c-1.7,1.4-3.3,2.9-4.9,4.4c5.7-9,12.4-17.1,21.2-23.2c0.3-0.2,0.7-0.4,1-0.6c0.2-0.1,0.4-0.2,0.6-0.3
		c0-0.1,0.1-0.1,0.1-0.2c0,0.1-0.1,0.2-0.1,0.2c-0.2,0.1-0.3,0.3-0.5,0.4c-2.2,2.5-4.5,5-6.7,7.5c0.1,0.1,0.1,0.1,0.2,0.2
		c5.1-1.2,10.2-2.5,15.3-3.7c0,0.1,0.1,0.2,0.1,0.3c-1.8,1.2-3.7,2.2-5.4,3.6C407.9,426.8,405.2,429.3,402.4,431.8z M384.4,441.4
		c0,0-0.1,0.1-0.1,0.1c0,0-0.1-0.1-0.1-0.1c0,0,0.1-0.1,0.1-0.1C384.4,441.3,384.4,441.3,384.4,441.4z M336,544.4
		c0,0-0.1,0.1-0.1,0.1c0,0-0.1-0.1-0.1-0.1C335.8,544.3,335.9,544.3,336,544.4C335.9,544.3,336,544.3,336,544.4z M316.3,584.2
		c-0.2,0-0.3,0-0.5,0c0.1-1.2,0.2-2.3,0.2-3.5c0.1-6.5-0.7-12.9-2.8-19.1c-1.7-5.2-3.7-10.3-3.2-16c-2.7,4.6-4.6,9.6-5.9,14.7
		c-1.3,5.2-1.9,10.5-1.4,15.9c-0.2-0.9-0.5-1.8-0.7-2.7c-0.2-1-0.5-1.9-0.7-2.9c-1.2-6.4-1.6-12.8-1.2-19.3
		c0.8-12.4,3.8-24.2,8.7-35.6c2.9-6.7,6.5-13.1,10.8-19c0.2-0.3,0.5-0.6,0.8-1c0.1-0.1,0.2-0.2,0.3-0.3c0,0.1-0.1,0.3-0.1,0.4
		c-0.9,4.1-2.1,8.2-2.6,12.4c-0.8,6.2-1.4,12.4-1.6,18.7c-0.2,6.7,0.1,13.4,0.3,20.1c0.2,8.4,0.7,16.7,0.7,25
		C317.4,576,316.7,580.1,316.3,584.2z M318.7,586.5c-0.1,0.1-0.2,0.2-0.3,0.3c-0.1,0.1-0.2,0.2-0.3,0.3c-0.1,0.2-0.2,0.3-0.4,0.5
		c-0.1,0.1-0.1,0.1-0.2,0.2c0-0.1,0.1-0.2,0.1-0.2c0.1-0.2,0.2-0.4,0.3-0.5c0.1-0.1,0.2-0.2,0.3-0.3c0.1-0.1,0.2-0.2,0.2-0.3
		c0.1-0.1,0.2-0.1,0.3-0.2C318.8,586.2,318.7,586.3,318.7,586.5z M318.9,585.8c0.2-0.3,0.3-0.6,0.5-0.9
		c8.6-12.6,15.3-26.1,19.5-40.8c0.1-0.4,0.3-0.9,0.5-1.3c3.1-0.6,6.2-1.2,9.4-1.8C340.4,557,331,572.2,318.9,585.8z M332.3,602.4
		c0,0-0.1,0-0.1,0c0-0.2-0.1-0.4-0.1-0.6c0.1,0,0.1,0,0.2,0C332.3,602,332.3,602.2,332.3,602.4z M362.1,652.3
		C362.1,652.4,362.1,652.4,362.1,652.3C362.1,652.4,362,652.3,362.1,652.3C362,652.3,362.1,652.3,362.1,652.3z M353.5,642.5
		c1.7,2.2,3.5,4.3,5.3,6.5c0.1,0.1,0.2,0.2,0.3,0.3c0.1,0.1,0.2,0.2,0.3,0.3c0.1,0.1,0.2,0.2,0.3,0.3c0.1,0.1,0.2,0.2,0.3,0.3
		c0.1,0.1,0.2,0.2,0.3,0.3c0.1,0.1,0.2,0.2,0.3,0.3c0.1,0.1,0.2,0.2,0.3,0.3c0.1,0.1,0.2,0.2,0.2,0.3c0.1,0.1,0.1,0.2,0.2,0.3
		c-0.1-0.1-0.2-0.2-0.3-0.2c-0.1-0.1-0.2-0.2-0.3-0.3c-0.1-0.1-0.2-0.2-0.3-0.3c-0.1-0.1-0.2-0.2-0.3-0.3c-0.1-0.1-0.2-0.2-0.3-0.3
		c-0.1-0.1-0.2-0.2-0.3-0.3c-0.1-0.1-0.2-0.2-0.3-0.3c-0.1-0.1-0.2-0.2-0.3-0.3c-0.1-0.1-0.2-0.2-0.3-0.3c-3.8-4.3-7.9-8.5-11.4-13
		c-7.4-9.5-12.2-20.2-14.6-31.9c-0.1-0.4-0.1-0.7-0.2-1.5c1.2,3.5,2.2,6.6,3.4,9.7C340,623.4,346.2,633.3,353.5,642.5z M351.4,631.3
		c0.1,0,0.1,0,0.2-0.1c0,0.2,0.1,0.3,0.1,0.5c0.1,0.2,0.2,0.3,0.3,0.5c0,0.1,0.1,0.2,0.1,0.3c-0.1-0.1-0.2-0.1-0.2-0.2
		c-0.1-0.2-0.2-0.4-0.3-0.6C351.6,631.6,351.5,631.5,351.4,631.3z M352.3,633C352.4,633,352.4,632.9,352.3,633c0.1-0.1,0.1,0,0.2,0
		c0,0,0,0.1,0,0.1C352.4,633.1,352.4,633,352.3,633z M362.7,621.1c0,0-0.1-0.1-0.1-0.1c0,0,0.1-0.1,0.1-0.1
		C362.7,621,362.7,621,362.7,621.1C362.7,621.1,362.7,621.1,362.7,621.1z M414.2,648.9C414.2,648.9,414.2,648.9,414.2,648.9
		C414.2,648.9,414.3,648.9,414.2,648.9C414.3,649,414.2,649,414.2,648.9z M422.6,656.3C422.6,656.3,422.6,656.4,422.6,656.3
		c0,0.1,0,0.1,0,0.2C422.5,656.4,422.5,656.4,422.6,656.3C422.5,656.4,422.6,656.3,422.6,656.3z M418.4,597.9
		c-5.9,19.7-5.5,39.2,3.8,58c-13.6-18.8-22.3-39.2-21.8-62.9c-0.1,0-0.3,0-0.4,0c0,3.8-0.2,7.6,0,11.3c0.5,7.9,2.1,15.7,4.4,23.3
		c2.1,6.8,5.2,13.2,8.8,19.4c0.3,0.5,0.5,1,0.7,1.5c0.1,0.1,0.1,0.2,0.2,0.2c-0.1-0.1-0.2-0.1-0.2-0.2c-2.9-2.1-5.9-4.2-8.7-6.4
		c-8.4-6.6-16.4-13.7-23.2-22c-9.7-11.6-16.8-24.6-20.4-39.5c-1.3-5.3-2-10.6-2.1-16c0-1.2,0.1-2.4,0-3.6c-0.2,0.6-0.5,1.2-0.7,1.8
		c-2.4,6.5-3.6,13.3-4,20.3c-0.7,12.8,1.8,24.9,7.3,36.4c0.1,0.2,0.1,0.5,0.2,0.7c0,0.1,0.1,0.2,0.1,0.3c-0.1-0.1-0.2-0.1-0.3-0.2
		c-7-9.1-12.1-19.1-14.2-30.5c-1.1-5.5-1.5-11.1-1.1-16.7c1-13.8,6.3-25.5,18-33.7c3.9-2.7,8.3-4.6,13.1-5.1
		c4.5-0.4,7.6,1.4,8.7,5.7c0.8,3.5,1.3,7.2,1.4,10.8c0.2,6.7,0.1,13.4,0.1,20.1c0,19.6,4.4,38.3,12.8,56c1.3,2.7,2.6,5.3,3.9,7.9
		c0.1,0.1,0.2,0.2,0.5,0.3c-0.1-0.3-0.2-0.6-0.3-0.9c-4.2-9.2-6.7-18.8-8-28.8c-0.9-6.6-1.3-13.2-1-19.9c0.4-10,2-19.7,6.5-28.8
		c5.3-10.4,13.6-17.5,24.1-22.3c0.1-0.1,0.3-0.1,0.4-0.1c0,0,0.1,0,0.2,0.1c-17.9,18.2-23.6,40.1-19.6,64.8
		c-0.1-1.1-0.2-2.2-0.3-3.3c-0.7-15.3,6.1-26.4,18.6-34.5c7.3-4.7,15.4-7.5,23.7-9.8c1.2-0.3,2.4-0.6,3.7-0.8
		C435.4,562,424.4,578.1,418.4,597.9z M454,550.9C453.9,550.9,453.9,550.9,454,550.9c0-0.1,0-0.1,0.1-0.1c0,0,0,0.1,0,0.1
		C454,551,454,551,454,550.9z M618,485c-4.4-2.7-9.1-4.6-14.2-5.7c-0.2-0.1-0.5,0-0.7,0c6.6,2.9,12.3,7.2,17.7,11.8
		c-3.1-1.6-6.2-3.2-9.3-4.8l0,0c-0.1-0.1-0.3-0.1-0.4-0.2c0,0,0,0.1,0,0.1c0.1,0,0.2,0.1,0.4,0.1c2.4,2.3,5.1,4.3,7.2,6.8
		c5.7,6.8,5.4,15.4-0.6,22c-0.1,0.1-0.2,0.2-0.4,0.3c-0.4-0.5-0.8-1-1.2-1.5c-4.2-5.2-9.4-9-15.6-11.5c-0.3-0.1-0.6-0.3-1-0.5
		c-9.6-3-19-2.1-28.3,1.4c2-0.2,4-0.6,6.1-0.7c11.5-0.6,22.3,1.3,31.2,9.4c1.6,1.5,3,3.5,4.1,5.4c1.3,2.3,0.1,4-2.5,3.6
		c-1.9-0.3-3.8-1-5.6-1.8c-4.8-2.1-9.5-4.4-14.2-6.6c-0.5-0.2-1-0.3-1.4-0.6c3.3,2.2,6.6,4.3,9.8,6.7c4,3,6,7.2,6.5,12.2
		c0.7,7.6,3.2,14.6,7.1,21.2c0.1,0.1,0.1,0.3,0.3,0.6c-6.3,2.1-12.6,1.1-19,1.1c4,1,8.1,2,12.1,3c-7.1,1.8-14.3,3.5-21.5,5.3
		c0,0,0,0.1,0,0.1c8.1-0.4,16.3-0.7,24.4-1.1c0,0.1,0.1,0.2,0.1,0.3c-1.8,0.7-3.7,1.4-5.5,2c-9.3,3-18.9,4.2-28.6,3.7
		c-7.3-0.4-14.4-1.6-20.9-5.1c-5.4-2.9-10.1-6.7-14.1-11.1c-7.1-7.6-13.9-15.5-20.7-23.3c-4.1-4.8-8-9.8-13.3-13.4
		c-5.3-3.7-11.1-5.9-17.7-5.7c-3.4,0.1-4.4,1.2-3.9,4.5c0.8,6.6,4,12.2,7.7,17.5c5.7,8.2,13.9,13,23.2,15.9
		c8.9,2.7,16.5,7.5,23.1,14c4,3.9,8.1,7.7,12.3,11.5c1.1,1,2.5,1.8,3.7,2.9c-1.8-0.7-3.7-1.3-5.5-2.1c-4.8-2.1-8.9-5.2-12.9-8.5
		c-7.9-6.5-16.8-11.3-25.9-15.8c-6.1-3-12.3-5.8-18.4-8.9c-7.9-4.1-14.9-9.4-19.6-17.1c-1.7-2.8-3-5.9-4.4-8.9
		c-0.2-0.4-0.3-0.8-0.6-1.1c1.6,9.8,10.3,22.3,19.7,28.5c-3.4-1.1-6.5-2.7-9-5.2c-2.5-2.4-4.4-5.3-6.8-7.8
		c-4.8-4.9-9.8-9.7-14.7-14.5c-0.8-0.8-1.7-1.5-2.5-2.3c-0.1,0.1-0.2,0.2-0.3,0.3c3.6,4.4,7.1,8.8,10.8,13.2c-2.5-1-4.8-2.1-7.2-2.9
		c-7.9-2.9-16.1-4.8-24.6-4.6c-9.7,0.2-18.1,3.5-24,11.7c-2.8,3.9-4.5,8.4-5.3,13.2c-0.1,0.6-0.3,1.1-0.4,1.9
		c-0.5-30.5,15.8-44.7,39.7-49.4c-2.1,1.2-4.2,2.3-6.1,3.5c-2,1.3-4,2.7-5.9,4.3c-1.8,1.5-3.5,3.2-5.1,5.1c0.5-0.2,1-0.4,1.4-0.7
		c9.7-6.4,20.2-11.4,31.4-14.6c3.8-1.1,7.6-1.8,11.5-2.7c-1.6,0.1-3.1,0.2-4.7,0.2c-6.4,0.1-12.7,0.2-19.1,0.3
		c-10,0.2-19.9,1.3-29.6,4.2c-0.1,0-0.2,0-0.4-0.1c7.2-4.3,14.6-7.8,22.5-10.4c-3.7,0.7-7.4,1.3-11.1,2c-5.6,1.1-11.1,2.7-16.2,5.3
		c-6.5,3.3-11.8,7.9-15.5,14.2c-3.7,6.4-9.4,10.4-16,13.4c-0.2,0.1-0.5,0.1-0.8,0.1c8.1-4.1,12.3-11.1,15.1-19.3
		c1.6-4.8,3.1-9.6,5.3-14.2c4.8-10.4,13-17.3,23.1-22.3c1.9-0.9,3.9-1.7,5.9-2.5c-1.2,0.1-2.4,0.2-3.6,0.5c-7.7,1.7-15.2,3.9-22.1,8
		c-1.1,0.7-2.2,1.4-3.4,2.1c-0.2,0.2-0.3,0.3-0.5,0.5c0,0-0.1-0.1-0.1-0.1c0.1-0.2,0.3-0.4,0.4-0.6c9.3-11.3,21-18.9,34.5-24.1
		c0.3-0.1,0.7-0.3,1-0.7c-2.3,0.7-4.6,1.3-6.8,2.1c-2.3,0.8-4.6,1.7-6.9,2.5c-2.2,0.9-4.5,1.7-6.7,2.6c-2.2,1-4.4,2-6.6,3.1
		c-0.1-0.1-0.1-0.2-0.2-0.3c5.7-3.2,11.5-6.5,16.8-9.5c-2.2,0-16.3,7.2-22.3,11.6c-7,5.1-12.9,11.4-18.4,18.1
		c0.5-0.9,1.1-1.8,1.6-2.7c1.9-3,3.9-5.9,5.8-8.8c0.2-0.5,0.3-1,0.6-1.4c11.2-18.3,26-32.8,44.6-43.4c6.9-4,13.9-7.9,21.3-10.9
		c0-0.1-0.1-0.3-0.1-0.4c-3.9,1.1-7.9,2.1-11.8,3.2c-0.1,0.1-0.3,0.1-0.4,0.2c0-0.1-0.1-0.1-0.1-0.2c0.1-0.1,0.3-0.1,0.4-0.2
		c2.9-1.3,5.8-2.6,8.7-3.9c4.3-1.1,8.5-2.5,12.8-3.4c5.1-1,10.4-0.7,15.5,0.3c4.4,0.9,8,3.2,11.2,6.1c2.1,1.9,4.2,3.9,6.2,5.9
		c4.4,4.5,9.9,6.5,16.1,7c2.2,0.2,4.4,0.4,6.7,0.6c3.2,0.3,5.4,1.9,6.5,5c0.9,2.6,1.8,5.3,2.9,7.9c1.7,4,4.3,7.4,7.3,10.5
		c2.5,2.6,5.1,5.1,7.7,7.5c0.3,0.3,0.7,0.5,1.1,0.7c0,0,0,0,0,0c0.1,0.1,0.2,0.2,0.3,0.3c0,0,0,0,0,0c0.1,0,0.2,0.1,0.3,0.1
		c0-0.1-0.1-0.2-0.1-0.3c-0.1-0.1-0.2-0.2-0.3-0.3c-1.7-3.2-3.4-6.5-5.1-9.8c-0.3-0.5-0.4-1.2-0.5-1.8c-0.1-0.2-0.1-0.4-0.2-0.6
		c-0.1-0.2-0.2-0.5-0.3-0.7c0.1,0,0.1,0,0.2-0.1c0.1,0.2,0.1,0.4,0.2,0.6c0.1,0.2,0.2,0.4,0.3,0.6c2.1,4.2,4.3,8.2,7.3,11.7
		c3.4,3.9,7.1,7.4,11.6,10.1c0,0,0.1-0.1,0.1-0.1c-2.9-5.7-5.7-11.4-8.7-17c-3-5.5-6-11.1-10.4-15.9c1.9,0.4,3.7,0.8,5.6,1.3
		c8.6,2.2,16.4,5.9,23.4,11.2c0.1,0.1,0.3,0.1,0.4,0.2c0,0,0,0,0,0c0.1,0,0.2,0,0.3,0.1c-0.1-0.1-0.1-0.1-0.2-0.2l0,0
		c-2.7-3.6-5.3-7.2-8.1-10.7c-2.5-3.1-5.1-6.1-7.7-9.1c-0.1-0.1-0.1-0.2-0.2-0.4c0,0-0.1-0.1-0.1-0.1c0,0,0.1,0.1,0.1,0.1
		c0.1,0.1,0.2,0.2,0.3,0.2c6,4.3,12,8.5,17.9,13.1c5.4,4.2,10.1,9.2,14.4,14.5c0.2,0.2,0.4,0.4,0.6,0.6c0,0,0,0,0,0
		c0.2,0.3,0.4,0.5,0.6,0.8c0,0,0,0,0,0c0.1,0.2,0.3,0.3,0.4,0.5l0,0c0.1,0.1,0.2,0.1,0.2,0.2c-0.1-0.1-0.1-0.2-0.2-0.2
		c-0.1-0.2-0.2-0.4-0.3-0.6c-0.2-0.3-0.4-0.6-0.5-0.9c0,0,0,0,0,0c0,0,0,0,0,0c-2.3-4.7-4.7-9.3-6.7-14.1
		c-3.1-7.1-4.9-14.5-6.1-22.1c-0.1-0.4,0-0.7,0.1-1.2c0.2,0.5,0.5,1.1,0.7,1.6c3.7,8.8,8.8,16.7,14.3,24.4
		c9.7,13.8,20.4,27,31.5,39.7c7.9,9,16.4,17.3,25.2,25.3c0.2,0.2,0.4,0.4,0.6,0.6c0.1,0.1,0.2,0.2,0.3,0.2c-0.2,0-0.3,0-0.5-0.1
		c-3.7,0.1-7.4,0.1-11.1,0.2c0.5-0.5,1.2-1.2,1.7-2c0.7-1,0.8-2-0.2-2.8C632,496.8,626,489.8,618,485z M621.7,491.9
		c-0.1,0-0.2-0.1-0.3-0.1c-0.1-0.1-0.1-0.2-0.2-0.3c0.1,0,0.2,0.1,0.3,0.1C621.6,491.8,621.6,491.8,621.7,491.9z M654.4,524.5
		c-1.5,0-3.1-0.1-4.4-0.7c-5.6-2.5-9.8-6.8-13.6-11.6c5.5-2.2,12-2.7,16.2,2.4c1.4,1.7,3,3.4,4.3,5.3
		C658.5,522.4,657.4,524.5,654.4,524.5z"/>
	<path class="st0" d="M263.9,374.8C263.8,374.8,263.8,374.8,263.9,374.8C263.8,374.8,263.9,374.8,263.9,374.8L263.9,374.8z"/>
	<path class="st0" d="M427.7,460.4C427.6,460.5,427.6,460.5,427.7,460.4C427.6,460.5,427.7,460.5,427.7,460.4L427.7,460.4z"/>
</g>
</svg>
