<?xml version="1.0" encoding="utf-8"?>
<!-- Generator: Adobe Illustrator 24.0.0, SVG Export Plug-In . SVG Version: 6.00 Build 0)  -->
<svg version="1.1" id="Layer_1" xmlns="http://www.w3.org/2000/svg" xmlns:xlink="http://www.w3.org/1999/xlink" x="0px" y="0px"
	 viewBox="0 0 864 864" style="enable-background:new 0 0 864 864;" xml:space="preserve">
<g>
	<path d="M431.6,644.5c0.1,0,0.2-0.1,0.4-0.1c1,2.8,2.1,5.6,3.2,8.4c4.8-5.5,8.7-11.7,12.2-18.1c8.7-16.2,13.9-33.3,14.5-51.8
		c3.6,8.6,3.9,17.4,2.1,26.4c11.5-13.8,14.3-30,12.8-47.4c5.2,10.6,6.4,21.9,5.5,33.8c0.2-0.6,0.4-0.9,0.6-1.3
		c2-5.7,2.9-11.5,3.2-17.5c0.4-7.4-0.7-14.7-2.1-22c-1-5.1-1.8-10.3-2.7-15.6c2.3,4.8,4.3,9.6,6.8,14.1c2.6,4.6,6.3,8.2,11.2,11
		c-9.1-13.8-12.1-28.3-7.5-44.2c1.8,5.2,4,10.1,7.7,14.8c-1.7-6.5-2.3-12.6-1.4-18.9c1.2-8.1,5.1-14.3,12.5-18
		c5.4-2.7,11.2-4.1,17.1-4.4c7.9-0.4,15.8-0.5,23.7-0.6c0.7,0,1.5,0.4,2,1c3.7,3.8,7.7,7.1,12.8,8.9c7.5,2.6,15.2,2.4,22.8,0.6
		c6.1-1.4,11.3-4.1,15.2-9.2c1.4-1.9,2.6-3.9,4.1-5.7c0.5-0.6,1.2-1.1,1.9-1.4c1.7-0.8,3.7-1.2,5.3-2.2c3.1-1.8,4.1-5.1,3-8.5
		c-0.3-0.9-0.7-1.8-1.1-2.7c6-6.1,8.9-13.2,8.2-22c-0.5,0.6-0.8,0.9-1.1,1.3c-3.9,4.3-8.4,7.8-14.1,9.3c-0.9,0.2-2,0.1-2.8-0.2
		c-2.1-0.8-4.1-1.9-6.2-2.9c-0.7-0.3-0.8-0.6-0.6-1.3c1.1-4.1,1.4-8.2,0.7-12.4c-0.4-2.2-0.9-4.4-1.4-6.6
		c-3.2,4.4-6.4,8.3-10.4,11.5c-3.9-3.6-7.9-7-11.7-10.6c-1.6-1.5-3-3.1-4.3-4.8c-2.5-3.3-2.9-6.9-0.7-10.4c1.5-2.5,3.6-4.6,5.4-6.9
		c0.3-0.3,0.8-0.5,1.2-0.5c2.7-0.5,5.4-0.9,8.2-1.3c2.2-0.3,4.4-0.6,6.7-1c0.7,6.1-0.7,11.7-3,17.3c0.4-0.2,0.6-0.2,0.7-0.3
		c0.5-0.3,1.1-0.5,1.6-0.8c7-3.7,12.4-9.1,16.8-15.6c0.3-0.4,0.7-1,1.2-1c4.3-0.6,8.6-1.1,13.1-1.7c2.1,7.8,0.6,14.9-3.3,22.1
		c10.8-4.5,16.8-12.6,19.7-23.4c1.6,0.6,2.2-0.3,2.6-1.6c0.4-1,0.8-2,1.2-3c1.6-4.2,3.3-8.4,6.5-11.7c2.9-3,6-5.8,9-8.7
		c3-3,5.7-6.2,7.2-10.3c0.2-0.6,0.4-1.1,0.6-1.7c0.1-0.5,0.2-1.1,0.4-1.6c-2.9,4.1-5.5,8.2-9.6,11.1c0-1.5,0.1-2.8-0.1-4
		c-0.1-0.8,0.1-1.1,0.7-1.6c3.2-2.3,5.9-5,7.9-8.4c1.2-2.1,2-4.4,1.5-6.8c-1-5.2-3.7-9.4-7.8-12.6c-4.3-3.4-9.5-4.3-14.7-5
		c-8-1.1-16-1.9-23.9-3.1c-12.9-1.9-25.5-5.2-37.9-9.4c-2.9-1-5.7-2-8.7-3.1c1,1.1,1.8,2.1,2.9,3.3c-5.5-0.5-11.4-6.3-11.7-11.1
		c2.9,2,5.7,3.9,8.5,5.8c-0.3-1.8-0.9-3.3-1.4-4.9c-1.3-4.1-2.3-8.4-3.8-12.4c-3.8-9.8-10.7-17.4-19.1-23.4
		c-7.8-5.6-15.9-10.8-23.9-16.1c-2.5-1.7-5.3-3.1-7.9-4.6c-0.2,0.1-0.3,0.3-0.5,0.4c2.3,4,4.6,7.9,6.8,11.9
		c-1.6-1.6-3.2-3.3-4.7-4.9c-4.2-4.4-8.2-9.2-13.7-12.2c-1-0.6-1.1-1.2-0.9-2.3c2.1-9.8,4.2-19.5,6.1-29.4c0.8-4.1-0.1-8.1-2.9-11.5
		c-2.3-2.8-5.4-3.4-8.6-1.8c-1.1,0.6-2.2,1.2-3.3,1.9c-12.2,8.2-24.5,16.4-36.6,24.8c-2.4,1.7-4.2,1.8-6.4,0.2
		c-2.4-1.7-5-3.2-7.7-4.9c2.7,5.3,6.4,9.8,10.3,13.9c4,4.1,8,8.2,12,12.3c-0.3,0.1-0.4,0-0.5-0.1c-2.2-1.9-4.4-3.9-6.6-5.9
		c-12.8-11.1-22.4-24.4-28.4-40.3c-3.6-9.4-6-19.1-8.8-28.6c-1.5-5-2.9-10.1-5.5-14.7c-1.2-2.2-3-3.8-5.6-4.3
		c-3.6-0.7-6.7,0.4-9.5,2.4c-3.8,2.6-7,5.9-10,9.4c-7.8,9.3-14,19.7-19.5,30.4c-5.3,10.3-9.6,20.9-12.2,32.2c-0.1,0.5-0.5,1-0.9,1.3
		c-6.6,4.5-11.3,10.6-14.3,18c-0.2,0.5-0.9,1-1.4,1.2c-2.2,0.8-4.5,1.5-6.7,2.3c-1.7,0.7-3.4,1.6-5.1,2.4c1.3,0.4,2.5,0.5,3.7,0.6
		c1.3,0.1,2.5,0.3,3.8,0.5c1.1,0.2,2.2,0.5,3.3,0.8c-9.4,2.1-18.7,4.3-28,6.4c3.6,0.3,7.1,0.4,10.6,0.3c3.5-0.2,7-0.6,10.6-1
		c-7.5,2.9-22.4,7.3-39.9,2.7c6.1,6.3,13.6,7.9,21.7,8.1c-2.9,1-5.9,1.8-8.6,3.1c-6,3-11.9,6.2-17.9,9.4c-8.5,4.5-17.2,8.2-27,8.9
		c-0.8,0.1-1.7,0.1-2.5,0.2c10.8,5,20.6,0.9,30.3-3.2c-8.3,5.1-17.4,7.8-27.4,8.6c4.6,2.1,9.2,1.9,13.7,1.9c0,0.1,0,0.3,0,0.4
		c-12.4,7.1-24.7,14.1-37.1,21.2c0,0.1,0.1,0.3,0.1,0.4c3.9-1.1,7.9-2,11.6-3.4c8.6-3.1,17.2-6.2,26.5-6.6c4.1-0.2,8.1,0.1,12,1.2
		c-14.1,1.1-27.1,5.5-39.3,12.7c-12.1,7.2-22.6,16.1-31.8,26.7c4.1-1.5,8-3.1,12.1-4.4c4.1-1.3,8.3-1.7,12.6-1.6
		c-0.2,0.3-0.5,0.5-0.8,0.6c-20.4,11.6-40.8,23.2-61.3,34.8c-2.4,1.4-4.1,2.6-4,5.7c0.1,3-0.4,6-0.7,9.4c5.2-6,10.6-11,17.2-14.6
		c-0.7-3.8-0.4-4.2,3.2-5.2c6.2-1.6,12.4-2,19.2-1.6c-1.4,0.6-2.4,1-3.4,1.5c-13.9,6.7-25.5,16.3-35.6,27.9c-0.4,0.5-0.7,1.3-0.7,2
		c0,8.7,0,17.3,0.2,26c0.2,9.6,1.4,19,3.1,28.4c3.3,18.4,8.7,36.2,16.2,53.4c16.1,36.6,39.3,67.9,70,93.6
		c20.5,17.2,43.2,30.6,68.1,40.5c23.2,9.2,47.2,15.1,72.1,17.4c3,0.3,5.3,0,6.9-2.8c0.4-0.7,1.1-1.3,1.6-1.9
		c6.7-8.3,10.7-17.7,11.8-28.4C431.4,649.2,431.5,646.9,431.6,644.5z M642.8,356.1c4.6-3.7,9.7-4.5,15.3-3c1.2,0.3,2.2,1.1,3.2,1.9
		c0.4,0.4,0.3,1.3,0.5,2c-0.6,0.1-1.4,0.3-1.9,0.1c-3.1-1.3-6.2-1.6-9.3-0.6c-4.6,1.3-7.9,3.9-8.7,8.9c-0.2,1.2-1.2,1.7-2.1,0.8
		c-0.7-0.6-1-1.6-1.3-2C638.8,360.5,640.4,358.1,642.8,356.1z M632.6,416.9c0.2-1.4,0.1-2.8,0.2-4.2c0-0.4,0.3-1,0.6-1
		c1.8-0.3,3.6-0.4,5.6-0.7c-2.4,7.2-5.9,13.5-11.3,18.6C630,425.6,632,421.5,632.6,416.9z M461.7,558.6c-1.9,3.2-4.3,6-7.1,8.4
		c-0.2,0.2-0.5,0.4-1,0.7c2.9-6.1,3.5-12.1,1.9-18.7c-2,8.2-5,15.6-9.9,22.1c2.2-5.7,3.6-11.6,3.8-17.7c-2.4,4.6-4.7,9.1-7.1,13.7
		c-0.2,0-0.3-0.1-0.5-0.1c-1.2-4.2-1.9-8.6-1.8-13c0.1-4.4,0.3-8.8,1-13.1c0.8-4.3,2.3-8.5,3.5-12.7c-3.2,1.1-6.1,3.2-8.5,5.9
		c-2.3,2.7-4.3,5.7-6.3,8.3c1-9.7,4.3-19,9.9-27.4c-7.2,3.2-12.7,8.3-16.8,15.1c0.8-10.2,5-19.1,10.7-27.8c-6,1.3-10,5-13.5,9.4
		c-1-8,7.3-23.7,16.1-29.8c-2.6,4.6-3.8,9.1-3.7,13.9c2.3-4.2,4.7-8.5,7-12.8c0.2,0.1,0.3,0.2,0.5,0.3c-1.8,4.5-2.7,9.2-2.1,14.1
		c1.7-5.5,4.7-10.4,8.1-15c-2.6,5-3.8,10.4-4,15.8c2.5-4.8,5-9.9,7.6-14.9c0,0,0.1,0.1,0.1,0.1c-1.2,4.4-2.7,8.8-3.7,13.3
		c-1.8,8.2-2,16.4,0.7,24.5c0.6,1.7,1.5,3.3,2.3,5c0.1,0,0.3-0.1,0.4-0.1c0.2-1.5,0.5-3,0.7-4.5c0.6,3.4,1,6.9,2.6,10
		c-0.6-7.2-0.3-14.4,1.4-21.5c-1.6,9.1-0.8,17.9,3.1,26.3c-1.7-9.3-1.3-18.4,1.5-27.4c-1.5,8.1-0.4,16.1,1.4,24
		c-0.2-9.4,0.6-18.6,4.2-27.4c-0.5,2.5-1.1,5-1.3,7.5c-0.2,2.6-0.3,5.2-0.1,7.7c0.2,2.6,0.8,5.1,1.3,7.7c-0.1-5.9,0.9-11.6,2.6-17.4
		c0.1,0.4,0.2,0.5,0.2,0.6c0.4,7.8,1,15.5,1,23.3C467.8,543.2,466.2,551.3,461.7,558.6z M624.6,455.3c-0.5,3.8-1.9,7.3-4.1,10.5
		c-1.4,2-3,3.8-4.5,5.7c-0.5,0.6-0.9,0.8-1.6,0.3c-1.1-0.8-2.3-1.6-3.6-2.5C616.3,465.5,621.2,461.2,624.6,455.3z M604,466.9
		c-1.5-1.3-3-2.5-4.5-3.8C602.2,463.1,604.2,464.7,604,466.9z M587.5,460.1c4.6-4.5,8.8-9.3,11.3-15.3c0.2-0.5,0.5-1.1,0.9-2
		c0.6,6.5-0.5,12.3-3.3,17.7c-0.6,1.2-1.3,2.4-2.2,3.4c-1.8,2-4.9,1.9-6.8-0.1C586.3,462.5,586.3,461.2,587.5,460.1z M585.3,468.1
		c6,1.2,12.1,2.4,18.1,3.7c3.5,0.8,6.9,2.2,9.7,4.6c0.4,0.4,0.9,0.6,1.4,0.9c-0.2,0.2-0.3,0.3-0.5,0.5c-6.1-3.2-12.8-4.2-19.6-5
		c-3.4-0.4-7-0.5-10-2.4c-0.6-0.4-0.9-1.1-1.4-1.7C583.8,468.5,584.6,468,585.3,468.1z M574.5,453.2c0.7,0.2,1.5,0.5,1.2,1.5
		c-0.2,1-0.9,1.4-1.9,1.4c-1.1-0.3-2.1-0.6-3.2-1c-0.8-0.3-1.2-1-0.9-1.9c0.3-1,1-1,1.8-0.8C572.5,452.6,573.5,452.9,574.5,453.2z
		 M594.9,428.7c3.9-7,6.1-14.3,5.5-22.5c2.7-0.5,5.3-0.9,8.1-1.4C606.7,414.5,602.1,422.3,594.9,428.7z M574.9,335.3
		c-6.4-1.9-10.9-6.9-16.6-10.1c3.4-1.8,5.3-1.5,7.8,1.1C569,329.3,571.9,332.3,574.9,335.3z M565,330.8c2,1.6,3.9,3.1,6.2,4.9
		C568.1,335,566.6,332.8,565,330.8z M566.6,340.2c-2.6-0.8-4.6-2.3-6.2-4.3C562.4,337.3,564.4,338.7,566.6,340.2z M543.1,338.4
		c-0.8,2.8-2.1,5.3-4.7,7.5c0.5-1.1,0.9-1.8,1.2-2.5c-3.8,4.4-8.7,5.9-14.2,6.4c3.9-1.2,7.1-3.4,9.8-6.5c-4.5,3.1-9.3,5.4-15,5.3
		c1.4-0.6,2.8-1.2,4.2-1.8c-7.2,1.1-14.3,2-21.4-1.6c3.2-0.8,6-1.5,8.6-2.1c-1.5-0.6-3.3-1.1-5-1.9c-2.9-1.4-5.9-2.6-9.3-2.2
		c0-0.1,0-0.3-0.1-0.4c2.2-0.5,4.5-1.1,6.7-1.6c-2.8-1-5.7-1.2-8.8-1.1c0-0.2,0-0.3,0-0.5c2-0.3,4-0.6,5.8-0.8
		c-1.3-0.9-4-1.3-7.9-1.3c0.9-0.1,1.7-0.2,2.6-0.3c0.9,0,1.9,0,3.1,0c-3.8-1.3-7.2-0.4-10.6,0.8c1.6-2.1,3.7-3.5,6.6-4.4
		c-2.8-1-5.3-0.4-7.8,0c1.5-1.8,5.2-2.8,9.9-2.9c-1.1-0.2-2.3-0.4-3.4-0.5c-1.2,0-2.4,0.1-3.6,0.1c3.3-1.3,6.7-1.8,9.4,0.8
		c3.2,2.9,6,6.3,8.7,9.7c-0.7-0.2-1.5-0.3-2.6-0.6c4.1,2.7,8,5.2,11.8,7.7c-2.7,0.6-5.6,1.2-8.6,1.8c7.5,0.8,14.6-0.8,21.4-3.4
		c3.9-1.5,7.8-3.2,11.7-4.7c0.5-0.2,1.1-0.3,1.6-0.4c1.7,2.6,1.2,5.9-1.2,8.4c0.4-1.3,0.9-2.4,1-3.5
		C543.4,340.8,543.3,339.6,543.1,338.4z M521.9,321.8c-0.6-0.8-1.3-1.5-1.9-2.2c-0.6-0.7-1.2-1.4-2-2.2c0.6,0,1.3,0,1.9,0.1
		c4.2,1.1,6.5,5.9,4.8,9.9c-0.7,1.7-2,2.5-3.3,2.2c0.5-1.1,1.2-2.2,1.5-3.4C523.4,324.6,523,323.1,521.9,321.8z M518.7,320.7
		c-1.5-0.1-2.5,0.8-3.1,2c-0.1,0.2-0.2,0.3-0.3,0.5c-1.4,2.1-3.8,1.9-4.8-0.4c-0.2-0.4-0.1-1,0.2-1.4c0.9-1.5,2.3-2.4,4-2.9
		C516.4,318.1,517.4,318.6,518.7,320.7z M511.2,328.4c1.2,0.7,2.5,1.5,3.7,2.3c3.2,2.2,6.7,2.8,10.5,2.6c4.5-0.3,8.8,0.2,13.3,1.9
		c-2,0.2-3.7,0.2-5.3,0.6c-2.6,0.7-5.1,1.5-7.5,2.6c-3,1.3-5.9,1.4-8.6-0.4c-3.2-2.2-6.2-4.7-9.3-7c-2.1-1.6-4.2-3.2-6.3-4.7
		c-3.2-2.1-6.6-3.5-10.6-3.1c2.9-1.1,5.9-1.2,8.9-0.3C504.2,324,507.7,326.3,511.2,328.4z M532.6,323.9c-2.3-2.3-4.6-4.6-7-6.7
		c-3.3-2.8-7.1-4.7-11.5-4.2c-2.8,0.3-5.5,1.3-8.2,2.3c-1.7,0.6-3.3,1.6-4.9,2.4c-2.2,1.2-4.4,1.4-6.8,0.8c-2.3-0.6-4.6-1.2-7.2-1.9
		c5.2-6.6,11.9-10.1,20.1-10.5c8.3-0.4,15,3.1,20.7,9c-3.8-10.1-11.4-15.4-21.9-17.2c2.7-1,5.5-0.8,13.5,0.8
		c-1.4-1.2-2.7-2.4-4.1-3.6c0-0.1,0.1-0.2,0.1-0.3c2.4,1.1,4.7,2.1,7.1,3.2c0.1-0.1,0.2-0.1,0.2-0.2c-1.3-1.4-2.6-2.8-3.8-4
		c1.1-0.2,2.3,0.4,6.4,3c-0.6-0.8-1-1.4-1.3-1.9c3.5,2.2,5.8,5.4,8,9c0.9-2.9,0.2-5.3-1.1-7.6c2.9,3.3,4.8,7,5,11.7
		c0.4-1.2,0.8-2.4,1.2-3.6c0.1,0,0.3,0,0.4-0.1c0.6,3.2,1.3,6.4,1.9,9.7c1.6-1.3,2.3-3.2,2.6-5.3c2.7,4.8,0.8,11.7-4.6,16.4
		c1.4,0.8,2.7,1.6,4,2.3c3.7,1.8,7.4,3.4,11,5.1c1.1,0.5,2,1.3,2.9,2.2c-0.6-0.2-1.1-0.5-1.7-0.7c-2.7-0.9-5.5-1.9-8.3-2.7
		C540.4,330,536.2,327.5,532.6,323.9z M552.8,301.9c0.4,0.5,0.9,1,1.2,1.5c2.2,3.6,4.4,7.1,6.3,10.9c1.5,2.9,1.1,5.9-0.3,9
		c-1.6-2-2.3-4.2-2.9-6.5C555.9,311.8,555,306.7,552.8,301.9z M550.5,291.8c5.5,5.5,10,11.7,12.9,19c-0.1-0.1-0.2-0.3-0.3-0.4
		c-4.4-8.2-10.6-14.8-17.6-20.7c-5.3-4.5-10.5-9-15.8-13.5c-0.4-0.4-0.8-0.7-1.2-1.1C536.1,280.3,544,285.2,550.5,291.8z M533.7,292
		c4.2,1.5,6.8,4.3,7.8,8.6c0.1,0.4,0.1,0.7,0.1,1.1c0,0.4,0,0.8,0,1.6c-3.2-6-8-9.9-13.6-12.9c-4.2-2.2-7.9-5.3-11.1-8.7
		c-0.4-0.4-0.7-0.8-1-1.4c1.6,1.4,3.2,2.9,4.8,4.3C524.7,287.9,529,290.4,533.7,292z M487.7,244.2c2.4-2,5.3-3.6,7.6-5.7
		c3.2-2.8,6-6,9-9c0.1,0,0.1,0,0.2,0c-1.8,3.4-3.6,6.9-5.4,10.4c1.6-1.4,3.1-2.7,5-4.4c-2.1,4.6-4.8,8.2-8.5,11
		c0.1,0.1,0.2,0.3,0.2,0.4c2.4-1.2,4.8-2.3,7.2-3.5c-2.5,4.8-6.5,8.5-11.5,11.7c3.4,0,6.1-1.2,8.6-2.6c0.1,0.1,0.2,0.2,0.2,0.3
		c-1.6,1.3-3.1,2.6-4.7,3.8c-0.2,0.1-0.6,0.2-0.8,0.1c-3.1-0.8-6.2-1.7-9.3-2.5c0-0.1,0-0.3,0-0.4c0.9-0.6,1.7-1.1,2.8-1.8
		c-1.7-1-3.2-2-5.1-3.2C484.9,247.3,486.2,245.6,487.7,244.2z M462.1,251.3c0.4-0.3,0.5-0.3,0.6-0.3c6.6,3.3,13.7,5,20.7,6.8
		c6.4,1.7,12.8,3.4,19.1,5.5c7.9,2.7,14.2,7.8,19.4,14.4c0.2,0.2,0.3,0.4,0.5,0.7c-0.1,0.1-0.1,0.1-0.2,0.2c-1-0.8-2-1.6-3.1-2.4
		c-7.7-5.8-16.5-9.3-25.5-12.3c-7.7-2.5-15.3-5.1-22.9-8C467.7,254.8,465,252.9,462.1,251.3z M456.5,273.3
		c-1.3-4.6-3.7-8.5-7.6-11.4c2.4,5.2,3.2,10.5,1.8,16.1c-0.8,3.1-2.2,6.1-3.9,8.1c2.2-7.4,3.5-14.7-1.1-21.5c-0.1,1.5-0.3,3-0.4,4.6
		c-1.4-6.1-2.8-12.1-4.3-18.2C448,252.5,456.6,260.1,456.5,273.3z M435.3,270.7c-1.1,3.2-6.4,5.5-16.1,7c3.3,0.9,6.7,1.1,10.2,0.9
		c-0.8,0.2-1.5,0.5-2.3,0.7c-3.8,0.8-7.5,1-11.2-0.4c-4-1.5-7.2-5.6-7.5-9.1c1.4,1.3,2.9,3,4.6,4.3c1.8,1.4,4.1,1.6,6.2,1.4
		c-2.3-1.6-4.6-3.2-6.9-4.9c0.1-0.2,0.2-0.3,0.3-0.5c4.2,2.9,8.6,4.5,13.7,3.6c-4.9-1.5-9.8-3.2-14.2-5.8c-1-0.6-1.9-1.3-2.8-2.1
		c3.3,2,6.9,2.8,10.9,2.2c-10.7-3.4-16.7-10.3-16.6-21.9c0.9,3.1,2.4,5.8,4.3,8.4c2,2.6,4.3,4.7,7.5,6c-4-4-6.5-8.8-8.1-13.8
		c7.1,5.7,13.7,12.6,22.5,16.8c-4.4,0.7-8.5,0.9-12.3-1.5c3.7,3.7,8.3,5.1,13.5,5c0,0.1,0.1,0.3,0.1,0.4c-2.1,1-4.1,2.1-6.6,3.3
		C428.4,270.7,431.9,270.7,435.3,270.7z M426.5,224.6c0.1,0.1,0.1,0.3,0.3,0.7c-1.3-0.8-2.4-1.5-3.5-2.2c-0.1,0.1-0.2,0.1-0.3,0.2
		c1.5,3.2,3,6.4,4.5,9.7c-0.1,0-0.1,0.1-0.2,0.1c-1.7-1.8-3.4-3.6-5.1-5.5c-0.1,0-0.2,0.1-0.3,0.1c0.8,2.6,1.2,5.4,2.4,7.9
		c1.2,2.4,3.1,4.5,4.7,6.8c-2.1-1.6-4.1-3.2-6.3-5c1.6,3.6,3.5,6.7,6,9.5c-0.1,0.1-0.2,0.3-0.3,0.4c-2.5-1.8-4.9-3.5-7.4-5.3
		c-0.1,0.1-0.2,0.1-0.3,0.2c1.4,2.3,2.8,4.5,4.3,6.9c-3.8-1.3-6.3-3.9-8.2-7.4c0.6,4.7,5.3,9.8,12.8,14c-1.8-0.1-3.6-0.2-5.8-0.4
		c2.8,2.5,5.9,3.1,9.2,3.7c-2.8,0.7-7.5-0.4-10.8-2.4c-7.1-4.4-12.2-10.4-14.7-18.5c-0.3-1-0.7-2-1-3c3.1,2.2,4.8,5.3,6.3,8.7
		c1.1-6.7,0-16.4-7.4-21.3c0.6,0.2,1.3,0.3,1.8,0.5c3.1,1.2,5.6,3.4,7.1,6.3c1.7,3.2,2.9,6.6,4.3,9.8c0.3,0.6,0.4,1.2,0.7,1.8
		c-0.3-5.4-1.8-10.4-4.9-14.8c-3.2-4.5-7.4-7.3-13-8.1c6.6-1.8,11.8,0,15.6,5.8c-1-3.4-2.8-6.1-5.8-8c-2.9-1.8-6.1-2.4-9.5-2.3
		c0-0.2,0-0.3,0-0.5c1.7-0.3,3.3-0.7,5-0.9c2-0.2,3.9-0.2,5.9-0.2c0.8,0,1.8,0.3,2.5,0.7C419.9,215.8,423.5,219.9,426.5,224.6z
		 M407.6,209.1c3.1-1,4.5,0.2,5.7,2.3C411.4,210.6,409.5,209.8,407.6,209.1z M403.1,204.4c1.8-0.9,3.9-1.4,5.9-1.8
		c1.9-0.4,4-0.3,5.9-0.4c-4.5-1.4-8.9-0.6-13.3,0.6c4.9-3.7,10.7-3.3,16.8-3.3c-4.7-4.3-9.6-3.4-14.7-2.1c3.2-1.6,6.6-2,10.3-2.3
		c-1.5-0.8-3-1.6-4.6-2.4c1.1-0.1,2.1-0.3,3.1-0.4c0.1-0.1,0.1-0.2,0.2-0.3c-2.5-1-5-2.1-7.3-3c5-1.2,11,1.5,13.8,5.4
		c-1.2-0.4-2.3-0.7-3.9-1.2c1.8,2.7,3.3,5.1,4.9,7.5c-1,0.5-1.9,1.1-2.9,1.6c1.5,1.6,3,3.2,4.6,4.8c-2.7-0.2-5.1-0.3-7.6-0.4
		c0,0.1,0,0.2-0.1,0.3c1.8,1.3,3.5,2.5,5.3,3.8c0,0.1-0.1,0.1-0.1,0.2c-2.7-0.8-5.5-1.5-8.2-2.6c-4.7-2-8.2-2.5-12.8-0.5
		c-0.1-0.1-0.1-0.2-0.2-0.3C399.8,206.5,401.3,205.2,403.1,204.4z M374.3,248.2c0.4-5.8,1.2-11.4,4.2-16.6c0.3-0.5,0.6-0.9,1-1.6
		c-1.5,13.2-1.1,23.9,0.8,28c-0.1-2.9-0.3-6.3-0.2-9.7c0.1-2.4,0.8-4.7,1.2-7c0.2-1.1,0.5-2.3,0.4-3.4c-1.1-7.8,0.8-15.1,3.6-22.2
		c2.4-6.3,5.9-11.9,10.6-16.7c0.3-0.3,0.5-0.5,0.8-0.8c-3.2,4.6-5.8,9.6-8.2,14.7c-1.1,2.5-2.1,5.1-3.1,7.7c0,0.1,0,0.3,0,0.3
		c1.9-2.8,3.8-5.6,5.7-8.4c0.2,0.1,0.3,0.2,0.5,0.3c-4.6,7.1-7.9,14.6-7.5,23.4c1.9-2.8,3.7-5.5,5.5-8.1c0.1,0.1,0.1,0.1,0.2,0.2
		c-0.8,2.5-1.7,4.9-2.2,7.5c-0.8,4.4-1.4,8.9-2,13.3c-0.6,4.6-1.1,9.2-1.7,13.8c0,0.2,0,0.3,0,0.5c0.1,0,0.2,0.1,0.4,0.1
		c1.6-4.7,3.3-9.4,4.9-13.9c0.7,7.7-1,21.8-7.3,31.2c1.3-0.8,3.6-3.3,5.4-6.4c1.4-2.5,2.6-5,3.8-7.4c0.5,7.6-3.7,20.9-8.1,24.6
		c-1-2-2.1-3.8-2.9-5.8c-2.7-6.6-4.2-13.5-5.2-20.6C374.4,259.4,374,253.8,374.3,248.2z M370.7,302.6c0.1,0,0.1,0,0.2,0
		c1.6,2.4,3.1,4.8,4.7,7.2c0.2-0.1,0.3-0.1,0.5-0.2c-3.5-6.6-5.1-13.5-3.4-20.9c1.6,9,4.7,15.3,10.4,20.8c-1.8-0.1-3.6-0.2-5.7-0.3
		c0.8,1.1,1.4,2.3,2.2,3.2c0.8,0.9,1.8,1.7,2.8,2.7c-1.4,0.2-2.6,0.3-4.1,0.5c1.3,1.2,2.4,2.3,3.6,3.3c0,0.1,0,0.3-0.1,0.4
		c-2.1-0.3-4.2-0.6-6.5-1c0.7,1.2,1.3,2.3,1.9,3.3c-2.8,1.3-5.5,2.6-8.3,3.9c0-0.1-0.1-0.1-0.1-0.2c1.3-0.8,2.7-1.6,4-2.5
		c-8.1-8.7-10.8-18.8-8.4-30.4c0.4,7.9,1.6,15.5,9.2,20C372.6,309.4,371.7,306,370.7,302.6z M369,247.9c-2.5,12.2-3.4,24.4,0.2,36.5
		c-1.7-3.7-2.7-7.6-3.2-11.6c-0.5-4-0.7-8.1-1-12.1c-2.2,9.2-3.1,18.5,0.1,27.8C358.2,279.3,360.5,256.1,369,247.9z M354.8,345.7
		c6.9-3.2,13.6-6.8,20.4-10.3c0.3-0.1,0.5-0.3,1-0.7c-5.8,0.8-11.4,1.4-17,0.8c3-0.8,6-1.5,9-2.5c21.2-6.8,39.9-17.7,55.2-34.1
		c4.3-4.6,8-9.6,10.9-15.3c2.6-5,3.9-10.3,3.9-15.9c0-0.5,0-1,0.1-1.5c1,3.1,1.1,6.2,0.8,9.3c-1,9.9-6,17.8-12.4,25
		c-14.6,16.4-32.2,28.9-52.2,38.1c-1.1,0.5-2.2,1-3.3,1.5c-1.1,0.5-2.2,0.9-3.3,1.7c2.1-0.5,4.3-0.9,6.3-1.4c2.2-0.6,4.4-1.2,6.6-2
		c2.1-0.7,4.2-1.5,6.3-2.4c2-0.8,4.1-1.8,6.1-2.7c-7.6,7.7-16.9,12.6-27.1,16.2c2.4,0.5,11.8-1.8,21.8-5.5c7-2.6,13.8-5.6,20.8-8.4
		c-12.1,16-26.8,28.9-44.9,37.8c0,0.1,0.1,0.2,0.1,0.4c2.9-0.6,5.9-1.2,8.8-1.9c3-0.8,6-1.6,9-2.6c2.9-0.9,5.9-1.9,8.7-3.1
		c2.9-1.2,5.8-2.4,8.6-3.8c2.8-1.3,5.4-2.8,8.4-4.4c-13.1,15.5-28.8,27.3-45.2,38.6c2.7-0.6,5.4-1.2,8.1-1.9
		c2.7-0.8,5.5-1.6,8.1-2.6c2.6-1,5.2-2.1,7.7-3.3c2.6-1.2,5-2.6,7.6-3.8c-7.6,9.2-16.3,17.1-26.4,24.1c2.6,0.3,4.9,0.6,7.2,0.8
		c12.5,0.8,24.9,0.9,37.3-1.1c9.3-1.5,18.1-4.7,26.6-8.9c-4.1,1.1-8.3,2.3-12.4,3.2c-4.2,0.9-8.4,1.5-12.9,2.3
		c5.7-2.2,11.1-4.3,16.5-6.5c-0.1-0.2-0.1-0.4-0.2-0.6c-7.7,2.4-15.4,4.3-23.5,4.9c2.7-0.7,5.4-1.3,8.1-2.2c2.7-0.9,5.3-1.9,7.8-3
		c2.6-1.1,5.1-2.4,7.7-3.8c-7.8,2.7-15.8,4.7-23.8,6c2-1.4,4-2.8,6.1-4.3c-0.1-0.1-0.1-0.3-0.2-0.4c-7.2,3.3-14.5,6.4-22.9,6.6
		c1.3-0.6,2.3-1.1,3.2-1.6c4.2-2.5,7.5-5.9,10.1-9.9c3.2-4.9,6.2-9.9,9.9-14.5c6.8-8.4,15.3-14.7,24.6-20c2.7-1.6,5.6-3.1,8.3-4.6
		c-5.3,0.8-10.2,2.7-14.9,5.2c-0.1-0.1-0.1-0.3-0.2-0.4c4.3-2.4,8.7-4.8,12.8-7.1c-3.4-0.6-12,3.5-20.3,9.4c1.6-1.6,3.1-3.2,4.7-4.7
		c3.9-3.5,8.4-6.1,13.1-8.3c3.4-1.6,6.5-3.6,9.4-6.1c5.2-4.4,11.1-6.8,18-6.6c2.1,0.1,4.1,0.4,6.2,0.9c-5,0.2-9.8,1.1-14.2,3.5
		c7.1-2,14.1-1.9,21.1,0.2c-5.7-0.6-11.1,0.2-16.6,1.8c-5.4,1.5-10.4,3.8-15,7.1c7.3-2.9,14.7-5,22.7-4.6c-7.6,2-14.3,5.8-20.8,10.8
		c3.7-1.7,7-3.2,10.3-4.7c0,0.1,0.1,0.2,0.1,0.2c-2.5,1.9-5.2,3.6-7.6,5.7c-2.4,2.1-4.7,4.3-6.8,6.7c-2.1,2.4-3.9,5.1-5.6,7.9
		c2-2.1,3.9-4.3,6-6.3c2.1-2.1,4.3-4.1,6.6-5.9c2.3-1.8,4.8-3.4,7.3-4.9c-0.7,0.8-1.5,1.6-2.2,2.5c-2,2.7-4,5.4-5.8,8.2
		c-2.3,3.6-4.7,7.1-7.9,10c-0.1,0.1-0.2,0.3-0.2,0.5c4-2.3,7.5-5.2,10.5-8.6c-5,10-12.9,17.1-22.9,21.8c0.1,0.1,0.1,0.3,0.2,0.4
		c2.6-0.8,5.2-1.5,7.7-2.5c7.1-2.8,13.7-6.4,18.7-12.3c1.9-2.3,3.6-4.8,5.4-7.2c2.5-3.4,5.7-6.1,9.5-7.9c0.3-0.2,0.7-0.3,1-0.4
		c0.1,0,0.2,0.1,0.1,0c-2.2,2.3-4.4,4.7-6.7,7c0.1,0.1,0.2,0.2,0.3,0.4c4.5-3,9-5.9,14.1-7.3c-2.1,1.6-4.4,3.3-6.7,5
		c0.1,0.2,0.2,0.3,0.3,0.5c5.9-3.3,11.8-6.3,19.2-5.9c-5.9,5.5-11.6,10.8-17,15.8c6.2-2.8,12.3-6.6,18.1-10.8
		c-1.2,1-2.4,2.1-3.6,3.1c-1.2,1.1-2.4,2.3-3.5,3.5c11-5.1,22.7-6.5,34.5-7.5c-8.8-0.3-17.6-0.3-26.3,2.3c1.3-0.6,2.5-1.2,3.8-1.7
		c1.3-0.5,2.6-1,4-1.4c5.7-1.9,11.6-2.6,17.5-3c12-0.9,23.7-3.1,34.9-7.8c6.6-2.8,13.6-4.1,20.7-3.4c6.3,0.6,12.6,1.5,18.7,2.8
		c8.1,1.7,16,4,24,6c1.2,0.3,1.5,0.8,1.3,2c-0.5,2.8-0.6,5.7,0.8,8.3c5.1,9.9,0,21.9-8.4,27.7c-5.6,3.9-11.9,6.2-18.7,7.2
		c-11.4,1.7-22.6,1-33.4-3.5c-4.9-2-9.6-4.4-14.5-6.5c-5.1-2.1-10.5-3.3-16.1-3.3c-13.5,0-26.3,8.2-31.2,20.1
		c-4.6,11.1-2.5,21.3,4.5,30.8c4.5,6.2,10.6,10.5,17.1,14.4c8,4.7,16.2,9.2,24,14.2c8.1,5.2,15.8,10.9,23.6,16.4
		c0.3,0.2,0.6,0.4,0.9,0.9c-2.5-0.2-5.1-0.4-7.8-0.6c3.1,2.5,6.7,2.9,10.5,3.1c-3.9,1.6-8,1.5-12.2,1.1c5.2,2.3,10.6,2,16,0.8
		c0.1,0.1,0.1,0.2,0.2,0.3c-1.7,1-3.3,2.2-5.1,3c-1.9,0.8-3.9,1.3-5.9,1.9c3.8,1,7.4,1,10.9-0.8c0.1,0.1,0.1,0.3,0.2,0.4
		c-2.2,1.4-4.4,2.7-6.4,4c2.8,0.5,6.5-1.4,12.8-6.4c-1.3,2.1-2.6,4.1-3.9,6.3c3.3-1.5,5.8-4.1,9-6c-0.3,0.7-0.6,1.4-1,2.1
		c-0.4,0.7-0.9,1.3-1.3,2.1c1.3-1,2.6-2.1,3.9-3.1c0.1,0.1,0.2,0.2,0.3,0.3c-1.1,1.2-2.2,2.5-3.4,3.6c-4.1,3.4-8.8,5.3-14.2,5
		c-5.3-0.3-9.8-2.5-13.6-5.9c-2.5-2.2-4.9-4.6-7-7.1c-6.7-7.9-15.4-13-24.5-17.4c-9.5-4.6-19.5-7.7-29.9-9.9c-0.2,0-0.4-0.1-0.7-0.5
		c1.6-0.6,3.2-1.2,4.8-1.8c-4.8-4.7-17-8.4-30-7.3c1.8-1.1,3.5-2.3,5.3-3.4c-15.7-0.1-28.8,5.2-38.4,18.1
		c2.7-7.1,7.4-12.6,13.8-16.7c-9.2,0.5-16.1,5.3-22.2,11.9c0.1-1.1,0.2-2.1,0.3-3.4c-7.1,5.5-12.2,12.4-15.8,20.4
		c1.6-9.9,6.6-17.8,14.8-23.9c-7.9-0.7-15.1,1.1-21.9,5c-6.7,3.9-11.8,9.4-15.9,15.9c1.9-13.7,9.1-23.5,21.8-29.4
		c-2.2-1.6-4.7-2.5-7.3-2.8c-13.6-1.6-25.2,2.3-34.6,12.4c-0.4,0.5-0.8,1-1.3,1.4c3.9-7.2,9.7-12.3,17.2-15.7
		c-2.9-0.8-5.9-0.3-12.6,2c3.1-2.9,14.1-8.1,28-9.7c-0.3-0.2-0.5-0.3-0.6-0.3c-15.5-1.2-29.7,2.6-42.2,12.1c-4.2,3.2-7.7,7.1-10,12
		c-0.1,0.2-0.2,0.3-0.5,0.8c0.1-5.3,1.8-9.6,5-13.7c-7.7,2.8-13,7.9-16.7,14.6c-3.7,6.7-5,13.9-4.5,21.5c-4.2-18.3-1-35,10.2-49.9
		c-3.3,1-6.8,2.2-10.4,3.1c-3.6,0.9-7.3,0.8-11.1,0c9-2.8,17.3-7.1,25-12.5c7.8-5.4,15.1-11.3,21.9-18.4c-11.4,3.6-22.7,5-34.3,4.3
		c15.1-8,29.7-16.9,42.4-28.4c-10.5,4.2-21.2,7.3-32.4,8.5c-3.7,0.4-7.3,0.5-11,0.5c16.7-8.8,32.9-18.2,47.5-30.2
		c-6,2.3-12,4.5-18.5,4.5c4.3-2,8.7-4,13-6c-8.9,0.9-17.9,2.1-27.1,1.1c3.7-1.5,7.2-2.9,10.6-4.4c3.5-1.5,6.9-3.2,10.3-4.9
		c-20.9,2.3-38.4,10.6-51.2,27.7c10.1-4.3,20.2-7.4,31-2.4c-13.3-1.3-24.5,2.2-32.2,13.9c4.5-2.1,9.3-2.8,14.2-3.1
		c-6,4.2-11,9.2-14.1,16c3.9-2.3,7.9-4.3,12.4-5.1c-5.5,3.7-9.8,8.4-12.8,14.5c4.3-2.3,8.5-4.1,13-5c-5.9,4.1-10.5,9.3-14.5,15.4
		c2.5-1.5,4.8-3,7.3-4.1c2.4-1.1,5.1-1.7,7.7-2.3c-4.9,3.1-9.3,6.8-13.3,11c-4,4.1-7.5,8.5-10.3,13.8c-0.7-6,3.9-18.1,9.4-25.2
		c-0.1-0.1-0.2-0.2-0.2-0.3c-1.7,1.4-3.5,2.7-5.1,4.1c-1.6,1.5-3,3.1-4.8,5c0.3-0.8,0.5-1.2,0.6-1.6c1.7-4.7,3.6-9.3,5.1-14.1
		c2.1-6.5,4.5-12.7,9.1-17.9c-3.2,0.6-5.5,2-10.4,6.2c2.4-6.1,5.9-11.5,10.8-16c-1.8,0.2-7.2,3.5-10.5,7c-2.9,3.1-5.5,6.4-8.2,9.8
		c0.2-0.4,0.3-0.7,0.5-1.1c4.2-8.5,9.9-15.8,16.4-22.6C330.4,359.1,342.1,351.6,354.8,345.7z M564,450.6c-0.5,1.2-1.4,2-2.6,1.6
		c-2.2-0.6-4.3-1.5-6.4-2.3c0.7-1.4,1.3-2.5,2-3.9c1.8,0.8,3.8,1.6,5.7,2.5C563.5,448.9,564.5,449.4,564,450.6z M548.9,443.8
		c-0.5,1.2-1.5,1.8-2.7,1.4c-2-0.7-4-1.6-5.9-2.5c-1-0.5-1.1-1.2-0.2-2.1c0.8-0.8,1.3-1.9,2-3c1.8,1,3.8,1.9,5.8,3
		C549,441.3,549.4,442.6,548.9,443.8z M531.3,432.7c-0.1,0.2-0.1,0.7-0.4,1.1c-0.6,1.2-1.2,1.3-2.1,0.4c-1-1.1-2-2.2-2.8-3.5
		c-0.3-0.4-0.3-1.3,0-1.7c0.4-0.5,1.3-0.9,1.9-0.8C529.5,428.4,531.2,430.6,531.3,432.7z M524.7,424.9c-2.7-1.7-3.6-4.7-1.5-6.1
		C524.3,420.7,524.9,422.6,524.7,424.9z M296.8,315.2c8.8-2.2,16.5-6.5,23.6-11.9c4.1-3,8.3-5.7,13.5-6.6c0.9-0.2,1.8-0.2,2.8-0.1
		c-5.7,1.6-10.3,4.7-14,9.8c3.7-1.9,7.3-2.5,11.1-1.5c-3.6,0.5-6.8,1.9-9.9,4c3.2-0.2,6.2-0.5,9.2-0.7c0,0.1,0.1,0.2,0.1,0.3
		c-2.9,2.4-5.8,4.7-8.7,7.1c0.1,0.2,0.1,0.4,0.2,0.6c3-0.4,6-0.8,9.1-1.2c-3.1,2.5-6.6,4.1-10.5,5.6c9.8,2.5,18.5,6.2,24.8,14.8
		c-2-1.4-3.6-2.6-5.3-3.7c-5.8-3.8-12.3-6-19.2-6.6c-5.5-0.5-10.9-0.5-16.4-0.8c-0.4,0-0.8,0-1.6-0.1c7.4-3.6,14.6-6.8,20.8-11.7
		c-10.3,3.3-20.8,4.8-31.6,3.3C295.5,315.5,296.1,315.3,296.8,315.2z M245.5,414.1c7.4-15.7,17.9-28.8,32.5-38.5
		c2.8-1.9,5.8-3.7,8.1-6.7c-1.4,0.3-2.6,0.6-3.7,0.9c-1.2,0.4-2.4,0.8-3.9,1.3c4.6-5.3,9.6-9.5,15.2-13.1
		c-10.3,0.2-19.2,3.3-26.2,11.7c0.1-0.5,0.1-0.7,0.2-0.8c9.4-13.3,20.8-24.5,35-32.5c6.4-3.6,13.2-5.8,20.6-5.5
		c3.2,0.1,6.4,0.8,9.4,2.4c-15.4-2.8-28.3,2.3-40.1,11.2c-5,3.8-9.3,8.1-12.8,13.3c-0.2,0.3-0.3,0.5-0.3,1c2.1-1.3,4.1-2.6,6.3-3.8
		c4.5-2.6,8.9-5.5,13.6-7.8c5.7-2.8,11.9-4.2,18.3-3.9c0.5,0,1,0.1,1.5,0.2c-9.6,1.6-18.1,5.7-26,10.9c0,0.1,0.1,0.3,0.1,0.4
		c2.3-0.5,4.6-1,7-1.4c2.4-0.4,4.8-0.7,7.3-0.7c2.4,0,4.8,0.5,7.2,1c-8.5,0-15.3,3.4-20.9,9.7c5.7-3.7,11.8-5.5,19-4.2
		c-10.1,1.6-18,6.5-25.2,13.4c8.5-2.7,16.6-3.8,24.6,0.3c-18.8-1.9-33.7,5.4-46.1,18.9c9.7-5.1,19.6-9.1,30.9-7.9
		c-7.1,0.9-13.6,3.3-19.3,7.7c4.9-1.8,10-3,15.3-2c-5.6,1.3-10.1,4.4-13.8,8.6c5.5-2.6,11.3-4.5,17.4-5.4
		c-6.9,2.6-13.5,5.8-18.8,11.1c4.4-1.7,9-2.8,13.8-2.9c-18.8,5.8-29.8,19.7-37.9,36.5c3.1-14,9.1-26.4,19.5-36.5
		c-13.3,5.7-24.1,14.5-32.5,26.7C241.7,423,243.4,418.5,245.5,414.1z M265.1,434.9c-0.7-0.4-1.4-0.8-2-1.1
		c6.2-12.2,28.2-21.6,39.2-16.5c-12,0.4-21.4,6.3-30.2,13.2c1-0.1,1.9-0.1,2.9-0.2c0.2,0,0.3,0,0.6,0.1
		c-13.7,10.9-22.6,24.9-28.6,40.9C249.8,457.7,255.6,445.4,265.1,434.9z M258.7,516.4c0,0.1,0,0.2-0.1,0.6
		c-2.3-4.2-3.8-8.5-4.8-12.9c-2.8-13.1-2.1-25.8,3.8-38.1c4-8.2,9.8-14.8,17.6-19.5c0.4-0.2,0.8-0.5,1.4-0.6
		c-6.4,5.7-11.1,12.5-13.9,20.5c5.4-5.6,11.8-9.3,19.2-11.5c-10.1,5.4-18.3,12.7-23.3,23.2c8.8-8.8,19.1-14.9,31.8-17.1
		c-2.9,1.5-5.7,2.8-8.2,4.4c-9,5.5-16.5,12.4-20.9,22.2C257,497,256.1,506.5,258.7,516.4z M404.3,655.7c-2.1,4.8-4.6,9.3-7.9,13.8
		c5.8-16.4,6.1-31.9-5.7-45.7c2.3,8,1.9,15.7-2.4,23c0.9-7,0.6-13.7-4.5-19.4c-0.3,2.1-0.4,4.2-0.9,6.2c-0.5,1.9-1.5,3.8-2.4,5.6
		c0.5-4.5-0.2-8.7-2.3-12.6c-2-3.9-4.9-7-8.7-9.8c6,13.2,5.4,26.4,1.1,40c-0.4-2.8-0.7-5.2-1-7.6c-1.5-9.9-4.9-19.3-9.3-28.3
		c-3.8-7.8-7.6-15.7-11.4-23.6c-0.7-1.4-1.1-2.8-1.9-4.2c0.3,3.5,0.6,7.1,0.9,10.8c-18.2-23.3-32.4-48.1-34.7-78.2
		c-0.2,0-0.4,0-0.6,0c-0.9,1.8-1.9,3.6-2.6,5.5c-1.6,4.3-2.2,8.8-2.4,13.3c-0.4,12.2,2.1,23.8,6.8,35c0.1,0.2,0.1,0.3,0,0.6
		c-0.2-0.2-0.3-0.4-0.5-0.6c-5.3-9.3-9.2-19.1-10.8-29.7c-0.8-5.3-1.2-10.7-0.8-16.1c0.1-0.8-0.1-1.7-0.5-2.4
		c-2.9-5.4-3.7-11.2-3.2-17.1c0.2-2.5,0.6-4.9,1-7.6c-3.6,3.8-5.8,8.1-7.6,13c-1.6-4.8-1.7-9.4-0.2-14.3c-1.8,0.8-3.3,1.3-4.7,2.1
		c-8.3,4.6-13.9,11.6-17.6,20.1c-1.7,3.9-2.8,8-4.1,11.7c0.4-18.5,4.7-36.3,14.2-52.7c-0.1-0.1-0.2-0.2-0.3-0.3
		c-1.4,1-2.7,1.9-4.4,3c5.4-9.8,13.5-15.9,23.4-20.1c-10.6,11.9-18.1,25.5-22.6,40.8c9.3-7.5,18.7-15.1,28-22.6
		c0.1,0.1,0.2,0.1,0.4,0.2c-1.4,4.6-1.6,9.2-0.7,14.3c2.6-4.7,5.9-8.4,9.9-11.5c-3,5.2-5.3,10.7-6.9,16.5
		c-1.6,5.8-2.4,11.8-1.7,18.2c3.9-8.3,8.7-15.6,14.5-22.7c-3,20.5,0.8,39.7,8.4,58.3c-2.3-21.7,1.1-42.2,13.4-60.6
		c-9,23.6-8.4,47.5-2.3,71.5c0-15.8,1.2-28.8,3.2-33.5c-1.6,23.5,5.9,43.4,23.4,59.3c-6-14.4-9.8-29.1-7.5-44.8
		c0.4,4.8,1.4,9.4,2.8,14c2.1,6.5,5.6,12.3,9.4,18c6.6,9.9,12.9,20.1,17.6,31.1c0.6,1.4,1.1,2.9,1.8,4.6c0-0.6,0.1-1,0.1-1.3
		c0.1-8.8-1.4-17.3-3.2-25.9c-1.6-8-2.7-16-1.8-24.1c0-0.5,0.1-1,0.3-1.5c0.2,2.5,0.2,5,0.5,7.4c1,9.2,4.1,17.6,8.9,25.5
		c2.6,4.2,5.3,8.4,7.8,12.7C410.6,626.8,410.6,641.1,404.3,655.7z M426.7,585.7c-0.4-0.1-0.6-0.1-0.8-0.2
		c-18-11.2-31.4-26.3-38.7-46.4c-2.5-6.9-3.6-14-3.5-21.4c-4,4.2-5.8,9.5-6.7,15.1c-0.9,5.6-0.7,11.2,0.6,16.7
		c-4-7.9-9.1-25.1-8.5-46.1c-3.2,3.6-7.1,18.1-5.2,34.4c-3.9-17.1-4.9-34,1.3-51c-3.6,2.1-6.2,5.1-8.1,8.8c-0.6-2.6,2.8-15.6,8-24.5
		c4.4-7.6,10.5-13.7,17.7-18.6c-5.3,6.4-10.1,13.2-13.1,21.1c-0.8,2.1-1.3,4.3-1.8,6.5c2.3-4.3,5.1-8.2,8.3-11.8
		c-4.4,13.6-4.8,27.3-1.7,41.2c1.2-4.6,2.3-9.1,3.7-13.5c1.4-4.4,3.6-8.5,6.7-12.1c-2.6,9.5-3.3,19.2-1.6,29
		c2.2-8,5.7-15.3,11.5-21.7c-8.3,25.8,2.2,44.7,12.9,51.8c-2.6-9.5-4.2-19.1-4.2-28.7c1.1,3.5,2.1,7.3,3.5,11
		c3,7.7,7.4,14.6,12,21.3c5.6,8.1,11.1,16.2,15.5,25c5.8,11.7,8.4,24.1,7.9,37.2c-0.2,6-1.1,12-2.9,17.8c0.1-2,0.3-4,0.4-6
		c0.6-14.3-1.9-27.9-8.9-40.4c-4.7-8.3-11.3-14.9-19-20.4c-0.1,0-0.2,0-0.4-0.1C413.9,569.9,419.5,578.1,426.7,585.7z"/>
	<path d="M687.1,411.8c-1-8.9-2.2-17.7-3.8-26.5c-2.8-15.3-7.4-30.1-13.3-44.5c-10.3-25.4-24.6-48.4-42.3-69.4
		c-3.3-3.9-6.9-7.6-10.4-11.5c-2.3,2.6-5.3,3.4-8.3,3.8c-4,0.5-8.1,1-12.2,0.9c-5.6,0-11.2-0.5-16.8-0.9c-2.5-0.2-4.9-1-7.2-1.4
		c0,0.6,0,1.1-0.1,1.6c-0.5,2.3-2.3,3.3-4.3,4c-3.8,1.3-7.7,1.4-11.7,1.2c-3-0.1-6.1-0.4-9.1-0.6c0,0.1,0.1,0.2,0.2,0.2
		c0.3,0.2,0.7,0.3,1,0.5c5.6,2.1,11.5,2.6,17.4,2c4-0.4,7.8-1.6,9.7-5.7c8,1.6,15.9,2,23.9,1.4c0.5,0,1.2,0.3,1.5,0.7
		c5.4,5.9,11,11.5,16.1,17.7c14.5,17.6,26.1,37,35,58c0.3,0.8,0.7,1.2,1.6,1.5c3.2,0.9,6.3,2.2,8.9,4.3c10.8,8.5,12.3,23.4,3.5,34.4
		c-0.7,0.8-0.8,1.5-0.6,2.5c3,13.2,4.6,26.6,5,40.2c0,1.2,0,2.4,0,3.7c-0.4-0.1-0.8-0.1-1.2-0.2c-3.9-0.8-7.8-1.7-11.6-2.5
		c-4.2-0.9-7.9-0.3-10.5,3.3c-0.7,0.9-1.2,1.1-2.3,0.9c-2.6-0.6-5.4-0.9-7.8,0.7c-1.1,0.7-1.7,2.3-2.8,3c-1.2,0.8-2.8,0.8-4,1.5
		c-2.1,1.3-2.4,3.7-0.8,5.7c0.4,0.5,0.9,1,1.5,1.6c-6.4,0.6-12.6,1.1-18.8,1.7c0,0.1,0,0.2,0,0.4c8.3,0.2,16.6,0.2,25,0.6
		c8.4,0.4,16.4-2.2,24.7-2.7c-3.3-1.1-6.6-1.5-10-1.1c-3.6,0.5-7.1,1.2-10.7,1.4c-2.7,0.2-5.3-0.4-7.6-2c-0.8-0.6-1.8-1.2-1.5-2.5
		c0.3-1.3,1.3-1.7,2.4-1.9c1.5-0.2,3-0.2,4.6-0.3c-0.1-0.2-0.3-0.4-0.4-0.7c-0.8-1.3-0.5-2.5,0.9-3.1c0.5-0.2,1.1-0.5,1.6-0.4
		c2.1,0.1,4.2,0.4,6.5,0.6c2.2-2.7,5.4-3.9,9.2-3.2c1.7,0.3,3.4,0.6,5.1,0.9c3,0.5,6,1,9,1.6c0.3,14.9-0.7,29.6-3.5,44.2
		c-2.8,14.6-6.7,28.8-12.5,42.6c-8.7-4.2-15.9-10.3-22.5-17.3c-0.4,0.7-0.8,1.2-1.1,1.7c-3.7,5.6-7.4,11.3-11.2,16.9
		c-1.6,2.3-0.9,2.2-3.8,1.3c-1.4-0.4-2.7-0.8-4-1.2c-2,3.8-3.9,7.4-5.8,11.1c-0.7,1.5-1.6,2.4-3.4,1.9c-0.8-0.2-1.6-0.2-2.4-0.3
		c-7.7-1-14.8-3.4-21.3-7.6c-0.8-0.5-1.6-1.1-2.4-1.7c-0.3,0.5-0.6,0.8-0.8,1.1c-6.8,9.5-13.6,19.1-20.3,28.6
		c-0.6,0.9-1.2,1-2.2,0.7c-2-0.7-4.1-1.2-6.1-1.8c-0.1,0.2-0.2,0.3-0.3,0.4c-5,8.8-10.7,17.2-16.7,25.3c-0.7,1-1.4,1.2-2.5,0.8
		c-1.6-0.6-3.4-1.1-5-1.6c-3.7,6.5-7.8,12.6-12.4,18.4c-7.1-5.5-12.4-12.3-17.1-19.8c-0.2,0.5-0.4,0.9-0.5,1.3
		c-5.8,16.7-14.4,31.9-25.9,45.3c-2.7,3.1-6,5.7-9,8.6c-0.5,0.5-1.1,1-1.5,1.6c-1.9,3.2-3.6,6.6-5.6,9.7
		c-3.7,5.6-8.1,10.6-13.9,14.3c-0.4,0.2-0.5,0.9-0.6,1.4c-0.3,2.7-0.3,5.5-0.9,8.2c-1.6,7-5.4,12.8-11,17.6c0.3,0.1,0.4,0.1,0.6,0.1
		c11.3,0.5,22.7,0.3,34-0.8c11.4-1.2,22.7-3.1,33.8-5.8c36.8-8.8,70.1-25,99.8-48.5c17.4-13.7,32.8-29.5,46.1-47.2
		c18-24.1,31.4-50.4,39.7-79.3c5-17.4,8.3-35,9.1-53.1C688.4,437.6,688.5,424.6,687.1,411.8z M462,641.3
		c11-13.7,20.2-28.6,28.1-44.3C485.8,614.9,476.3,629.6,462,641.3z M540.9,609.3c4.8-7.2,9.7-14.5,14.3-21.4
		C554.8,593.1,547.3,604.4,540.9,609.3z M553,611.5c13.1-15.1,25.1-31,35.9-47.9C582.2,583.5,569.4,598.9,553,611.5z M592.5,547.5
		c-7.7,14.6-16.3,28.3-26.5,41.6c-3.2-3.4-6.2-6.6-9.3-9.8c-2.3,3.7-4.5,7.5-6.9,11.3c-4.1,6.5-8.9,12.4-14,18.1
		c-0.7,0.8-1.2,0.8-2,0.3c-3.9-3.1-7.9-6.2-11.8-9.3c-0.6-0.5-1.1-1-1.7-1.6c-0.8,1.2-1.5,2.3-2.3,3.6c-1.9-1.1-3.7-2.1-5.6-3.2
		c2.1-2.4,4.2-4.7,6.2-7c2-2.4,3.9-4.9,5.7-7.5c0.5-0.7,0.9-1,1.9-0.8c7.5,1.8,15.1,1.8,22.7,0.6c0.1,0,0.1-0.1,0.4-0.3
		c-6.2-0.3-12.2-0.8-18.2-2.4c2.4-2.8,4.7-5.4,6.9-8.2c3.4-4.4,6.7-8.9,10-13.4c0.6-0.8,1-0.8,1.8-0.6c7.5,1.3,14.9,0.8,22.3-0.6
		c0.2,0,0.3-0.1,0.7-0.3c-2.8-0.2-5.4-0.2-7.9-0.5c-2.6-0.2-5.2-0.7-7.7-1c6.6-8.1,13.1-16.1,19.8-24.3c8.1,4.7,16.9,6.3,26.6,5.9
		c-2.9,4.6-5.5,8.9-8.3,13.3C594.4,549.9,593.5,548.7,592.5,547.5z M623.3,575.2c-0.8-1.4-1.6-2.6-2.4-4c-2,1-3.7,0.2-5.3-0.8
		c-2.7-1.8-5.5-3.6-7.9-5.8c-4.1-3.8-7.8-7.9-11.8-12c6.8-7.9,12.6-16.2,17.8-24.9c5.6,1.2,16.1,0.8,20-0.8c-4-1-7.9-1.9-12-2.9
		c2.1-2.4,4.1-4.7,6.1-7c1.9-2.3,3.8-4.7,5.7-7.1c5.9,5.7,12.5,10.1,20.3,12.9C645.9,541.5,636.2,559.1,623.3,575.2z"/>
	<path d="M197.9,388.1c3.1-1.6,4.6-3.8,5.4-7.3c5.1-22.9,13.7-44.5,25.5-64.8c5.5-9.4,11.7-18.4,18.5-27c0.3-0.3,1.1-0.6,1.5-0.5
		c3.5,1.1,7.1,1.4,10.7,1.2c4.7-0.4,9.2-1.2,13.1-4.1c0.4-0.3,1-0.3,1.4-0.3c1.2,0.1,2.4,0.3,3.6,0.4c2,0.2,4.1,0.5,6.1,0.7
		c0-0.2,0.1-0.3,0.1-0.5c-3.8-0.9-7.6-1.8-11.4-2.6c-0.3-0.1-0.7,0.2-1,0.3c-1.4,0.7-2.8,1.8-4.3,2.2c-4.7,1.4-9.6,1.6-14.4,0.5
		c-2-0.4-3.9-1.3-5.6-2.3c-2.2-1.3-2.1-3.3,0.1-4.7c0.7-0.5,1.6-0.7,2.4-1.1c0.3-0.2,0.7-0.4,0.8-0.8c0.6-1.6,1.6-2.4,3.3-2.6
		c0.9-0.1,1.8,0,2.6,0c2.4-5.7,11.1-6.1,15.1-0.4c9.6-3.2,19.4-5.7,29.7-3.1c-0.4-0.4-0.9-0.7-1.4-1c-4.5-2.4-9.4-3.2-14.5-3
		c-4,0.2-7.9,0.9-11.7,2.2c-0.4,0.1-0.9,0.1-1.3-0.1c-1.6-1-3.2-2-5.1-3.2c4.3-3.9,8.6-7.9,13-11.8c0.3-0.3,1.1-0.3,1.6-0.2
		c0.9,0.3,1.8,0.8,2.7,1.1c5.2,1.7,10.5,1.7,15.8,0.7c5.1-1,9.8-2.8,13.6-6.5c0.3-0.3,0.9-0.4,1.4-0.4c4.5,0,9,0.1,13.5,0.2
		c2.2,0.1,4.4,0.2,6.6,0.3c-7.1-2.2-14.3-3.5-21.7-3.6c-0.3,0-0.7,0.2-0.8,0.4c-1.3,2.7-3.9,3.9-6.5,4.8c-5.6,1.9-11.4,2.3-17.2,1.2
		c-2.1-0.4-4.2-1.4-6-2.6c-1.8-1.1-1.8-2.8-0.6-4.5c0.5-0.7,1.2-1.4,1.9-1.8c1.6-0.8,3.2-1.4,4.8-2c-1.7-3.3-1.2-5.4,2.1-7.7
		c0.5-0.4,1.1-0.7,1.7-1c4.9-2.2,9.9-2,14.9-0.3c0.5,0.2,1.2,0.1,1.6-0.1c19.7-12.5,41-21.4,63.6-27c3.4-0.8,5.5-2.2,7.2-5.3
		c2.9-5.4,6.5-10.4,9.9-15.7c-50.9,8.3-95,30.5-132,66.4c-41.3,40-66.5,88.6-75.4,145.7c0.5-0.2,0.8-0.3,1.1-0.5
		C188.6,393.4,193.2,390.6,197.9,388.1z"/>
	<path d="M510.9,210.9c26,9.1,49.8,22.1,71.2,40c-1.6,0-2.8-0.2-4,0c-3.4,0.7-6.8,0.9-10.3,1c-1.8,0-3.6,0.4-5.4,0.9
		c-2.9,0.7-5.7,1.8-7.9,3.9c0.5-0.1,1.1-0.3,1.6-0.4c5.6-1.6,11.2-2.7,17-0.8c0.4,0.1,0.9,0,1.4-0.1c2.9-0.8,5.8-0.9,8.6-0.3
		c2.5,0.6,5.2,1.1,5.2,4.4c9.3,0,18.5,0,27.8,0c0-0.1,0.1-0.3,0.1-0.4c-25.1-25.5-53.7-45.9-87-59.4
		c-33.2-13.5-67.7-19.9-103.7-18.1c1.7,5.7,3.4,11.2,5.1,16.7C458.1,197.5,484.8,201.8,510.9,210.9z"/>
	<path d="M620.4,491.2c4,0,7.9,0,11.9,0c0.5,0,1,0,1.5,0.3c6.3,3.6,12.6,3.5,18.9,0.1c0.5-0.3,1.1-0.4,1.7-0.4c3.1,0,6.1,0,9.2,0
		c-0.1-0.1-0.3-0.2-0.4-0.2c-3.1-0.7-6.2-1.3-9.3-2c-0.9-0.2-1.6-0.2-2.4,0.6c-0.7,0.7-1.8,1.2-2.8,1.5c-2.7,0.9-5.5,0.9-8.2,0.5
		c-1.4-0.2-2.9-0.7-4.2-1.4c-1.7-0.9-1.5-2.7,0.3-3.4c0.9-0.4,1.9-0.5,2.9-0.5c1.4,0,2.9,0.1,4.4,0.2c-0.5-1.1-0.9-2.2,0.2-2.9
		c0.8-0.5,1.9-0.8,2.8-1.2c-2.8-1.3-4.5-0.8-5.8,1.6c-2.2,0.4-4.3,0.6-6.2,1.1c-2.3,0.7-2.9,2-2.5,4.6c-4,0.4-8,0.8-12,1.2
		C620.4,490.9,620.4,491,620.4,491.2z"/>
	<path d="M646.4,408.2c0.1,0.6,0.6,1.3,1,1.5c0.8,0.3,1.7-1.1,1.7-2.8c-0.2-0.2-0.6-1-1.2-1.2C647.3,405.5,646.2,407.1,646.4,408.2z
		"/>
	<path d="M649.5,403.8c0,0.8,0.2,1.8,1.2,1.7c1.1-0.1,1.4-1.2,1.5-2.7c-0.3-0.2-0.8-1-1.2-1C649.9,401.8,649.5,402.9,649.5,403.8z"
		/>
	<path d="M652.3,398.8c0,0.9,0.4,1.9,1.4,1.7c0.6-0.1,1.1-0.9,1.6-1.4c-0.4-1.2-0.6-2.2-1.8-2.1C652.5,397,652.3,398,652.3,398.8z"
		/>
	<path d="M657.4,393.9c0-0.6-0.7-1.2-1.1-1.7c-0.5,0.5-1,1-1.8,1.7c0.7,0.7,1.2,1.2,1.7,1.7C656.6,395,657.4,394.4,657.4,393.9z"/>
	<path d="M426.1,425.6c1.6-0.1,3.2-0.3,4.7-0.4c-6.4,3.6-13.1,6.4-20.5,7c7.7,1.1,15.3,1.4,22.8-0.8c-5.5,3.8-11.7,6.2-18.1,8.1
		c7.4,0.9,14.4-0.5,21.3-3.1c-3.6,3.2-7,6.5-9.6,10.9c0.7-0.2,1-0.3,1.4-0.5c7.9-2.7,15-7,21.9-11.6c7.1-4.8,14.4-9.3,22.2-12.9
		c1.4-0.6,2.8-1.2,4.2-1.9c0-0.1-0.1-0.2-0.1-0.3c-10.8,4-21.6,8-32.4,12c0-0.1-0.1-0.2-0.1-0.4c11.2-4,21.4-9.9,31.4-16.2
		c-11.3,4.5-22.6,9-34.2,11.9c4.2-2,8.6-3.9,12.9-6.1c4.3-2.3,8.4-4.8,12.6-7.3c-0.1-0.1-0.1-0.3-0.2-0.4
		c-8.9,3.9-17.9,7.5-27.4,9.7c13.1-4.4,25.3-10.8,36.4-19c-15.7,7.2-32,12.5-49.3,13.4c7.2-1,22.2-5.9,25.3-8.4
		c-8.4,2.4-16.8,4.3-25.5,5c7.8-1.5,15.1-4.5,22.2-8c-7.6,2.4-15.2,4.3-23.1,5.7c-7.9,1.3-15.8,1.8-23.8,1.6c0,0.1,0,0.3,0,0.4
		c4.3,0.4,8.5,0.8,12.9,1.3c-9.3,1.7-18.4,0.8-27.5-0.9c5.6,2.4,11.2,4.7,16.9,6.8C410.6,424.1,418.2,425.9,426.1,425.6z"/>
	<path d="M348.9,435.3c-0.5,0.8-0.9,1.7-1.3,2.6c10.8-10.1,27-16.6,44.6-15.3c-0.7-0.6-1.2-1.1-1.8-1.6c-6.4-4.5-13.4-5.3-20.7-3.2
		C360.2,420.6,353.7,426.9,348.9,435.3z"/>
	<path d="M603.9,378.8c-2.6-0.3-5.2-0.5-7.8-0.7c-5.9-0.6-11.9-1.1-17.8-1.8c-4.1-0.5-8.1-1.3-12.1-2c0,0.1,0,0.1-0.1,0.2
		c0.7,0.3,1.3,0.6,2,0.9c6.2,2.3,12.8,3.2,19.3,3.9c1.7,0.2,3.5,0,5,0.6c2.1,1,4.1,1.2,6.2,0.2c0.9-0.4,1.5-0.3,2.2,0.4
		c1.4,1.5,4,1.3,5.6-0.6C605.4,379.5,604.7,378.9,603.9,378.8z"/>
	<path d="M582.7,366.9c3.7-0.2,7.4-0.1,11.1-0.1c0.5,0,1.1,0.1,1.4,0.3c2.6,1.7,4.5,1.7,7.1-0.1c0.3,0.3,0.6,0.5,0.9,0.8
		c1.2,1.1,2.7,1.2,4.2,0.9c0.5-0.1,0.8-0.6,1.3-1c-0.3-0.4-0.6-0.9-1-1.1c-0.7-0.3-1.7-0.8-2.4-0.6c-2.3,0.6-4.3-0.1-6.5-0.7
		c-1.4-0.4-3-0.1-4.6,0c-4.2,0.1-8.3,0-12.5,0.3c-3.5,0.2-7,1.3-10.2,2.8C575.4,367.8,579,367.1,582.7,366.9z"/>
	<path d="M595.1,374.3c1.3,0.9,3.1,0.9,4.5-0.1c1.2-0.9,1.9-0.7,2.9,0.2c1.5,1.3,4.2,1,5.5-0.7c-1.4-1.4-3.1-1.6-5-1.3
		c-0.7,0.1-1.4,0.2-2.1,0.1c-1.7-0.2-3.4-0.6-5.1-0.9c-0.8-0.1-1.6,0.2-2.4,0.2c-6.5-0.5-13.1-1-19.6-1.5c-1.3-0.1-2.6,0-3.9,0
		c0,0.1,0,0.2,0,0.3c0.1,0,0.2,0.1,0.2,0.1c6.8,0.8,13.7,1.5,20.5,2.4C592.3,373.2,593.7,373.2,595.1,374.3z"/>
	<path d="M595.9,386.1c-1.4-0.5-2.9-0.7-4.4-0.9c-0.8-0.1-1.6,0.3-2.3,0.1c-5.7-1.1-11.4-2.1-17-3.3c-2.8-0.6-5.5-1.6-8.3-2.5
		c0,0.1-0.1,0.2-0.1,0.3c1.4,0.7,2.8,1.6,4.3,2.2c6.7,3,13.7,4.2,20.9,5c0.6,0.1,1.2,0.4,1.7,0.7c1.3,1,4,1.2,5.3,0.3
		C596.9,387.4,597,386.5,595.9,386.1z"/>
	<path d="M446.4,441.6c8.4-6.5,17.4-11.8,27.8-14.8C465.1,426.4,449.4,434.8,446.4,441.6z"/>
	<path d="M547.4,356.3c9.4-4.5,19-7.9,29.4-8.8C566,347.1,556.1,349.7,547.4,356.3z"/>
	<path d="M612.8,375.6c0.6-0.3,1.2-0.7,0.4-1.5c-1.2-1.3-3.6-1.3-5-0.1C609.3,375.6,611.4,376.3,612.8,375.6z"/>
	<path d="M611.9,380.7c0-0.3-0.5-0.8-0.9-0.9c-0.8-0.2-1.7-0.4-2.6-0.3c-0.5,0.1-1,0.7-1.5,1c0.4,0.5,0.8,1,1.3,1.4
		c0.2,0.2,0.7,0.1,1.3,0.2c0.4-0.1,0.9-0.1,1.4-0.3C611.3,381.5,611.8,381.1,611.9,380.7z"/>
	<path d="M612.1,370.1c0.8-0.5,1.5-0.9,2.1-1.3c-0.5-0.6-0.9-1.5-1.6-1.6c-0.9-0.2-1.9,0.1-2.9,0.3c-0.1,0-0.3,0.8-0.2,0.9
		C610.3,369,611.2,369.5,612.1,370.1z"/>
	<path d="M600.4,386c0,0-0.1,0-0.1,0c-0.8,0.4-2.3,0.7-2.2,1.1c0.1,1.2,1.2,1.4,2.3,1.5c1.4,0.1,2.8-0.6,2.6-1.3
		C602.6,386,601.4,386.2,600.4,386z"/>
	<path d="M606.2,386.6c-0.7,0.1-1.3,0.7-2,1.1c0.7,0.6,1.4,1.1,2.3,1.8c0.9-0.7,2-1.2,2-1.6C608.3,386.8,607.1,386.5,606.2,386.6z"
		/>
	<path d="M612.6,381.2c0.6,0.4,1.1,1,1.7,1c0.5,0.1,1-0.5,1.6-0.8c-0.5-0.4-1-0.9-1.7-1.5C613.5,380.4,613,380.8,612.6,381.2z"/>
	<path d="M617.8,369.4c-0.5-0.5-1-1-1.8-1.7c-0.6,0.6-1,1-1.3,1.4c0.5,0.4,1.1,0.9,1.7,1C616.8,370.2,617.3,369.7,617.8,369.4z"/>
	<path d="M617.3,375.4c-0.6-0.4-1.1-1-1.7-1.1c-0.4-0.1-0.9,0.5-1.4,0.8c0.5,0.5,0.9,0.9,1.6,1.5C616.5,376,616.9,375.7,617.3,375.4
		z"/>
	<path d="M610.2,387.8c0.4,0.4,0.8,0.7,1.4,1.3c0.7-0.5,1.2-0.9,1.7-1.3c-0.5-0.3-1-0.9-1.5-0.9
		C611.3,386.9,610.8,387.5,610.2,387.8z"/>
</g>
</svg>
