<?xml version="1.0" encoding="utf-8"?>
<!-- Generator: Adobe Illustrator 24.0.0, SVG Export Plug-In . SVG Version: 6.00 Build 0)  -->
<svg version="1.1" id="Layer_1" xmlns="http://www.w3.org/2000/svg" xmlns:xlink="http://www.w3.org/1999/xlink" x="0px" y="0px"
	 viewBox="0 0 864 864" style="enable-background:new 0 0 864 864;" xml:space="preserve">
<g>
	<path d="M531.1,603.3c1.8-8.6,1.7-17.2,0.6-25.9c-1.1-8.9-3.6-17.4-8.5-25c-1.6-2.5-3.5-4.8-5.4-7.3c12.8,2.5,21.9,9.7,28,21
		c-0.8-4.6-2.1-9.1-4-13.3c-2.8-6.4-6.9-11.6-12.7-15.6c7.2,2,13.3,5.7,17.7,11.9c-2.4-8.2-5.8-15.7-10.9-22.1
		c3.4-2.6,6.8-4.9,9.8-7.8c3-2.8,5.4-6.2,8.1-9.2c0.1,2.9,0.1,6.1-1.2,9c-1.3,2.8-3,5.4-4.6,8.1c11.3-7.2,18.4-17.8,23.8-29.6
		c5.5-12,7.1-24.6,4.5-37.8c7.1,4.8,15.5,14,19.8,24c0.3-40.4-16.3-71-52.7-90.3c10.6-4.2,21.4-5.5,32.6-4.9
		c-0.3-0.3-0.6-0.4-0.9-0.5c-15.4-4.6-31.1-7.1-47.2-6.1c-9.1,0.6-18,2.1-26.6,5.1c-8.4,2.9-15.7,7.2-20.5,15.1
		c-8.8,14.7-12.7,30.6-12.2,47.6c0,0.6,0.1,1.2,0.1,1.8c0,0.6,0.1,1.1,0.1,1.7c1.3-11.1,5.1-21,11.8-29.9c4.3-5.7,9.7-9.5,17-10.4
		c6.3-0.7,12.1-3.2,16.6-7.7c3.8-3.8,7-8.2,10.5-12.2c0.6-0.7,1.2-1.7,2-1.9c5.6-1.9,11.3-2.9,16.8-2.7c-2.9,1.4-6,2.9-9,4.6
		c-0.9,0.5-1.5,1.6-1.9,2.5c-1.5,3.7-2.7,7.6-4.3,11.3c-2.7,6.1-6.6,11.4-12.2,15.1c-5.2,3.4-11.1,4.8-17.2,5.5
		c-1.7,0.2-3.5,0.8-5,0.3c-2.4-0.7-3.6,0.8-4.9,2c-2.3,2.2-4.5,4.5-6.3,7c-7.8,10.7-9.4,21.6-8.2,32.6c0.5-5.9,1.9-11.4,4.8-16.6
		c-1.1,9.6,1.3,18.4,6,26.6c-1.5-5.3-2-10.7-2-16.1c-0.1-11.8,2.3-22.9,8.2-33.2c0.6-1,1.1-1.3,2.2-0.9c5.8,1.9,11.7,2.1,17.7,1.7
		c6.3-0.5,11.7-2.8,15.8-7.7c3-3.5,5.1-7.4,6.4-11.8c1.1-3.5,1.9-7.2,2.9-11c28,11.1,46.7,30.5,54.2,60.1c-0.2,0-0.3-0.3-0.4-0.5
		c-4.4-6.1-10-10.7-16.8-13.8c-4-1.9-7.6-4-9.9-7.8c-0.7-1.2-1.8-2.1-2.8-3.1c-1.4-1.3-2.8-2.6-4.3-3.9c13.5,24.6,9,51.2-3.2,63.6
		c0-5.8-1.6-11.1-4-16.2c-1.2,23.7-18.3,44-30.2,52c0.2-0.4,0.4-0.7,0.5-0.9c3.2-4.5,5.5-9.5,7.5-14.6c4.2-11.2,5.9-22.6,2.9-34.4
		c-2-7.9-6.1-14.6-12.2-20.4c11.6,24.3,2.8,51.3-8.1,61c-1.2-4.2-2.2-8.6-3.8-12.9c-2-5.6-4.7-11-6.7-16.6
		c-4.2-11.6-4.9-23.3-0.9-35.1c0.8-2.3,2-4.4,3-6.7c-6.6,5.8-11.1,15.5-11.5,24c-0.5,8.1,1,15.8,4.1,23.1c3.6,8.5,6.5,17.1,7,26.5
		c0.5,9.7,0.7,19.4-1.2,28.9c-4.3,20.6-21,31.5-39.7,31.4c-9.1-0.1-17.6-2.9-25.5-7.4c-1.4-0.8-2.4-0.8-3.8,0
		c-10.1,5.8-20.9,8.6-32.7,6.9c-12.8-1.8-28.9-10.6-32.7-30.9c-1.5-7.8-1.5-15.7-1.4-23.6c0-10,2-19.6,5.9-28.9
		c2.4-5.8,4.7-11.7,5.2-18.1c1-11.4-2-21.5-9.7-30.2c-0.3-0.4-0.8-0.7-1.2-1.1c1.2,3,2.6,5.7,3.4,8.6c3.4,12.2,2,23.9-2.9,35.5
		c-2.6,6.1-4.9,12.4-7.1,18.6c-0.9,2.6-1.2,5.4-1.8,8.5c-14.8-19-16.7-39.4-8.6-61.1c-0.1,0.1-0.4,0.4-0.7,0.6
		c-8,7.8-11.6,17.5-12.2,28.4c-0.8,14.6,3.5,27.8,11.5,39.9c0.2,0.2,0.2,0.5,0.5,1.2c-17.2-13.7-28.5-30.3-30.3-52.6
		c-0.4,0.9-0.7,1.6-1,2.2c-1.9,4.5-2.7,9.2-2.9,14.5c-7.7-9.3-11-19.7-11.3-31.2c-0.3-11.4,2.7-22.1,7.4-32.4
		c-3.2,3.1-6,6.4-8.9,9.7c-0.8,0.9-1.8,1.9-2.9,2.3c-7.8,3.5-14.8,8.1-20.2,14.8c-0.2,0.3-0.4,0.6-0.6,0.8c-0.2,0.3-0.5,0.5-1,1.1
		c4.3-16.9,12.6-30.9,25.2-42.3c8.7-7.9,18.7-13.4,29.7-17.6c0.8,5.8,2.2,11.3,4.7,16.3c3.9,7.8,9.9,12.8,18.7,13.9
		c6.4,0.8,12.8,0.3,19-1.4c1.5-0.4,2.1,0,2.8,1.2c4.4,7.6,6.6,15.8,7.4,24.5c0.8,8.2,0,16.3-1.9,24.4c4.5-8.5,7.2-17.3,5.9-27.1
		c3.2,5.2,4.6,10.8,5.2,16.8c0.6-5.1,0.5-10.1-0.5-15.1c-2.1-10.5-7.4-19.1-15.9-25.7c-0.5-0.3-1-0.8-1.5-0.8c-3-0.2-6-0.1-9-0.5
		c-9.5-1.2-17.3-5.3-23-13.2c-3.3-4.7-5.8-9.8-7.4-15.3c-1.1-4.1-3.6-6.5-7.3-8c-1.3-0.5-2.6-1-3.9-1.5c-0.4-0.1-0.7-0.3-1.1-0.5
		c5.8-0.3,11.5,0.5,17,2.4c0.8,0.3,1.6,1,2.1,1.7c1.8,2.2,3.3,4.5,5.1,6.7c5.6,6.8,12.2,12,21.3,13.6c3,0.5,6,1.2,8.7,2.5
		c5,2.4,8.5,6.6,11.4,11.2c5,8.1,8,16.8,9.1,26.3c0.2-1,0.3-2.1,0.4-3.1c0.5-15.8-2.8-30.7-10.2-44.7c-4.1-7.8-10.2-13.2-18.4-16.5
		c-11.4-4.6-23.4-6.6-35.6-6.9c-11.3-0.3-22.4,1.2-33.4,3.9c-3.2,0.8-6.3,1.8-9.5,2.7c11.3-0.3,22.1,1.1,32.9,5.2
		c-43.8,22.6-54.6,61-53.3,90.4c6.8-12.2,14.9-22.2,19.5-24.1c-1.9,8.3-1.8,16.6,0.1,24.9c3.5,15.4,11.2,28.4,23.1,38.8
		c1.9,1.7,4.2,2.8,6.3,4.2c0.1-0.1,0.2-0.2,0.2-0.4c-5.4-4.3-7.7-10.8-6.9-18c4.4,7.6,10.6,13.1,18.1,17.3
		c-5.3,6.6-8.8,13.9-11,21.8c4.5-6,10.5-9.7,17.6-11.6c-10.9,6.8-14.9,17.5-16.8,29.4c5.9-11.5,15.1-18.6,27.7-21.2
		c-2.4,3.5-5,6.8-7.1,10.5c-4.4,7.7-6.4,16.3-7.1,25.1c-0.7,9.2-0.4,18.4,2.2,27.3c3.1,10.8,8.9,20,17.3,27.5
		c-3.3-4.5-5.6-9.4-6.8-14.8c-1.2-5.4-1.3-10.8-0.6-16.2c0.4,1.8,0.5,3.6,0.9,5.4c1.8,9.1,6.1,17,11.7,24.3
		c7.5,9.7,15.2,19.2,22.6,29c5.8,7.7,11,15.9,13.2,25.5c0.4,1.8,0.7,3.6,1.1,5.8c1.9-8.4,2.5-16.5,1.3-24.7c0.2,0.1,0.4,0.1,0.5,0.2
		c8,8.7,15.5,17.7,20.6,28.5c5.3,11.2,6.9,22.7,2.8,34.6c-1.3,3.7-3.1,7.1-4.6,10.6c0,0,0.2-0.1,0.2-0.2c0.7-0.9,1.3-1.8,2-2.7
		c5.5-7.8,9.3-16.3,10.1-25.9c0.9-10.2-1.2-19.8-5.8-28.9c-5.1-10.1-12.3-18.6-19.9-26.9c-7.2-8-14.5-15.8-21.3-24.1
		c-9.8-12-14.3-25.7-11.4-41.2c0.8-4.3,2.1-8.5,3.3-13c1.7,1.2,3.1,2.1,4.3,3.1c0.4,0.3,0.7,1.1,0.6,1.6c-0.5,3.1-1.3,6.2-1.6,9.3
		c-1.1,10.7,0.8,20.8,7.3,29.6c0.2,0.2,0.3,0.5,0.5,0.7c0.1,0.2,0.3,0.3,0.5,0.5c-3.9-7.9-3.4-15.7-0.7-23.7
		c-0.2,5.5,0.8,10.8,2.8,15.9c2,5.1,4.7,9.8,7.9,14.5c0-4.5,0-8.7,0-12.9c0.4,0.3,0.5,0.6,0.5,1c1,7.4,3.4,14.2,7.3,20.5
		c3.8,6.2,7.9,12.2,11.9,18.2c4.6,6.9,9.4,13.7,12.5,21.5c1.2,3.1,2.2,6.4,3.3,9.7c0-0.3,0-0.6,0-0.8c-1.5-8.2-3-16.3-4.5-24.5
		c-2.3-12.3-5.7-24.2-12-35.2c-0.1-0.1-0.1-0.3-0.2-0.8c9.6,9.9,17,20.8,20.1,34.6c3.3-13.4,10.1-24.3,19.5-34
		c-1.8,4.1-3.6,7.9-5.2,11.8c-6.2,15.7-7.9,32.4-11.2,48.8c0.3-0.5,0.5-1,0.6-1.5c1.8-6.3,4.2-12.3,7.7-17.8
		c4.8-7.4,9.8-14.7,14.7-22.1c6-9.1,11.4-18.4,12.4-29.7c0.3,2.2,0.6,4.4,0.6,6.6c0,2.2-0.2,4.4-0.3,7c6.1-9.5,11.7-18.9,10.9-30.6
		c2.8,8,3.1,15.9-0.7,23.8c3.1-3.7,5.4-7.9,6.8-12.5c2.9-9.2,2.7-18.6,0.4-27.9c-0.1-0.5,0-1.4,0.3-1.8c1.1-1,2.3-1.7,3.6-2.7
		c2.5,6.4,4.2,12.9,4.5,19.7c0.5,11-3,20.7-9.2,29.6c-6.5,9.3-14.2,17.6-21.9,25.8c-8.2,8.7-16.2,17.6-21.7,28.4
		c-8.3,16-9.2,32.2-0.9,48.5c1.9,3.8,4.5,7.3,6.9,11.1c0.3-0.5,0.4-0.6,0.4-0.6c-0.3-0.7-0.7-1.3-1.1-2c-6.7-12.1-8.2-24.6-3.5-37.7
		c3.7-10.1,9.5-18.9,16.5-27c2.1-2.5,4.3-4.8,6.8-7.6c-0.1,2.6-0.3,4.6-0.3,6.7c0,2,0.1,4.1,0.3,6.1c0.2,2.1,0.4,4.2,0.8,6.3
		c0.3,1.9,0.8,3.8,1.3,6.2c0.5-2.9,0.7-5.3,1.3-7.6c1.9-8.3,6.1-15.6,11.1-22.3c6.9-9.4,14.3-18.4,21.5-27.6
		c4.8-6.2,9.2-12.6,11.7-20.1c1.4-4.1,2.1-8.3,3-12.1c1.2,10.4-0.3,20.7-6.7,29.9c0.3-0.1,0.5-0.2,0.7-0.4
		C523.3,626,528.5,615.4,531.1,603.3z M500,406.2c-4.9,0.2-8.3-1.9-10.6-6c-0.7-1.2-0.5-2.1,0.5-2.9c1.7-1.3,3.5-2.5,5.3-3.7
		c0,2.6,0.7,3.9,2.4,4.6c1.6,0.6,3.5,0,4.5-1.5c0.9-1.4,0.6-2.6-1.5-4.8c2.6-0.5,4.9-1.1,7.3-1.5c0.4-0.1,1,0.5,1.2,0.9
		C512.2,397.8,507.2,405.9,500,406.2z M356,391.7c0.4-1.2,1-1.7,2.3-1.4c2.3,0.6,4.6,1.1,6.9,1.6c-1.6,1.5-2.5,2.7-1.8,4.5
		c0.6,1.5,2.1,2.3,3.9,2.1c1.9-0.2,2.7-1.4,3.2-4.7c2,1.6,3.7,3,5.4,4.5c0.3,0.2,0.3,1,0.1,1.4c-2.2,5.4-8.2,8.1-13.6,6
		C356.8,403.3,354.1,397.2,356,391.7z M355.6,555.7c-8.4,6.8-14.1,15.4-17.4,25.6c-0.6,1.7-1,3.5-1.5,5.2
		c-2.2-10.9,8.2-33.2,18.9-40.2c0.4,2.7,0.9,5.2,1.1,7.7C356.8,554.5,356.1,555.3,355.6,555.7z M460.5,600.5
		c-7.7,1.6-12.8,6.4-16.8,12.8c-1,1.6-1.9,3.4-2.8,5c-0.4-1.8,1-7.7,2.7-11.8c-7.2,5.4-14.3,6.4-21.4-0.1c0.9,4.1,1.8,7.8,2.6,11.5
		c-0.1,0-0.2,0-0.3,0c-1.8-2.8-3.5-5.6-5.5-8.2c-3.4-4.4-7.6-7.6-13.1-8.8c-6.4-1.4-10.1-5.9-13.4-11.4c1.8,0.5,3.4,1.1,5.1,1.3
		c3.2,0.4,6.4,0.5,9.6,0.8c0.8,0.1,1.6,0.3,2.2,0.7c13.4,11.3,33.1,10.2,45.7,0.3c0.8-0.6,2.1-1.1,3.1-1c5,0.1,9.9-0.7,15-2.3
		C469.9,594.6,466.5,599.2,460.5,600.5z M509.4,555.6c-0.5-0.5-0.9-1.5-0.9-2.2c0.2-2.3,0.6-4.5,1-7.1c13.3,10.7,18,24.8,18.9,40.7
		c-0.8-2.6-1.5-5.3-2.5-7.9C522.5,569.9,517,562,509.4,555.6z"/>
	<path d="M335.4,625.8c-4.5-11.5-8.1-23.3-9.9-35.6c-0.1-0.5-0.1-1-0.2-1.6c-0.1-0.4-0.2-0.8-0.3-1.3c-0.3,11.1,1.1,21.9,4,32.5
		c-19.4-26.6-22.1-55.4-11.3-86c-9.3,7.2-16.5,16-20.3,27.4c0.7-11.3-0.4-22.5-2.5-33.5c-0.2,0-0.4-0.1-0.6-0.1
		c-1.2,5.4-2.4,10.9-3.7,16.5c-1.4-4.2-2.9-8.2-4.1-12.3c-2.5-8.7-3.7-17.5-1.8-26.5c0.5-2.6,1.6-5.1,2.5-7.7
		c-11.2,9.8-18.8,21.9-22.5,36.5c-1.9-9.2-3.8-18.3-2.2-27.7c-3.6,8.8-4.4,17.9-2.4,27.2c-0.2,0-0.4,0.1-0.6,0.1
		c-1.8-6.5-3.5-13-5.1-18.7c-0.4,5.7,0.4,12.1,3.5,18.7c-0.6-0.5-0.7-0.5-0.8-0.7c-0.3-0.5-0.6-1-0.9-1.5
		c-5.5-9.6-8.1-19.8-7.8-30.9c0.2-11.3,2.4-22.1,7.2-32.3c0.6-1.4,1.4-2.7,2.1-3.9c2.8,14,5.7,28.1,8.5,42.1
		c0.2-1.2,0.3-2.4,0.2-3.6c-0.2-7-0.6-13.9-0.7-20.9c-0.2-13,0.4-25.9,3.2-38.6c3-13.4,8.1-25.9,16.6-36.8c0.8-1,1.5-1.9,2.3-2.9
		c-11.9,8.7-22.3,18.8-30.9,30.8c2.3-6.1,4.7-12.1,7-18.2c-11.8,19.6-21,40.2-25.9,62.9c0-0.8,0-1.4,0-2c0-12.9,2.7-25.4,7.3-37.3
		c4.4-11.4,9.3-22.6,14-33.9c0.2-0.5,0.4-1,0.6-1.6c-4.2,5.6-8.3,11.3-12.9,16.5c-4.6,5.3-9.7,10.1-16.3,13.6
		c1.5-1.9,2.8-3.4,3.8-5.1c3.8-6.5,7.6-12.9,11.2-19.5c5.7-10.6,11.4-21.3,18.4-31.1c1-1.4,2.2-2.4,4-2.9c7.3-2,14.3-4.8,21-8.3
		c9.7-5.2,17.5-12.1,22.4-22.1c0.2-0.4,0.4-0.9,0.7-1.8c-8.8,9.5-11.6,12-19.3,15.8c-11.7,5.8-24.2,9.4-37.2,10.5
		c-3.8,0.3-7.6,0-11.7,0c3.7-1.8,7.1-3.4,10.4-5.2c6.5-3.6,13.3-6.7,20.5-8.4c2.7-0.6,5.4-1.2,8.1-1.9c-10.7,1.7-21.2-1-31.9-1.2
		c0.2-0.3,0.3-0.4,0.4-0.4c9.7-3.7,17.4-10.1,23.9-17.9c5.7-6.8,11-13.8,16.4-20.8c2.1-2.7,4.4-4.9,7.7-6.2
		c5.6-2.2,11.1-4.6,16.7-6.8c14.8-5.6,30-7.2,45.6-4.7c12,1.9,23.3,5.7,34.2,11c2.1,1,4.1,2,6.2,3.1c-0.1-0.5-0.4-0.8-0.7-1
		c-9.2-7-19.3-12.5-30.2-16.5c-17.8-6.5-35.8-8.2-54.1-2.2c-7.4,2.4-14.8,4.8-22.3,6.8c-4.7,1.3-9.6,1.4-14.5,0.7
		c-7.1-1.1-12.2-5-15.8-11.1c-2.7-4.4-4.3-9.2-4.5-14.7c0.8,1,1.4,1.9,2,2.6c0.6,0.7,1.3,1.4,2,2c0.7,0.6,1.4,1.2,2.4,2
		c-6.1-16.9-7.1-33.8-5.1-51c2.5,5.5,5.5,10.6,11,13.6c-1-2.1-2.2-4.1-3-6.1c-2.1-5.6-3.2-11.4-3.3-17.3c-0.1-6.9,0.1-13.8,0.4-20.7
		c0.1-3.3,0.9-6.6,1.3-9.9c0.2,7,0.7,13.8,2.5,20.3c1.3-7.6,2.4-15.4,4.1-23.1c2.2-10,6-19,8.4-21.3c-3.9,14.9-3.3,29.7,4.9,44.2
		c-2.5-1.6-4.6-3-6.6-4.3c0.5,5.7,1.7,11.4,5.3,16.4c-5.5-3.9-8.7-9.6-11.8-15.3c1,14.1,6,26.2,18,35.1c-5.4-0.9-9.5-3.1-13.1-6.6
		c4.2,7.2,7.3,15.1,14.2,20.5c-5.4-2.4-10.5-5.2-14.8-9.3c4.6,8,11.7,12,20.7,13.1c-0.1,0.2-0.1,0.4-0.2,0.6
		c-2.9-0.4-5.8-0.7-8.7-1.1c0.3,1.6,0.5,3.3,0.8,4.9c1.4,7.9,5.5,13.3,13.7,14.9c0.2,0,0.3,0.2,0.5,0.4c-4.5,1.1-8.8,1.3-13.2-0.1
		c1.7,1.5,3.3,3.1,5.1,4.8c-4-0.6-7.2-2.4-9.8-5.3c-3.5-4.1-4.8-9-5.6-14.1c-0.5-3.1-0.9-6.1-1.7-9.1c-0.8-2.8-2.9-4.5-5.8-5.1
		c2.5,2.3,3.3,5.2,3.3,8.4c0.1,3.6,0.1,7.2,0.2,10.7c0.2,5.2,1.2,10.3,4.2,14.8c-1.7-1.5-3.4-3-4.7-4.7c-1.3-1.7-2.4-3.7-3.6-5.5
		c0,0.9-0.1,1.9,0,2.9c0.8,6.7,4.5,13.9,14.2,14.9c4.9,0.5,9.6-0.2,14.2-1.4c8.8-2.2,17-6.5,26.2-7.4c0-0.2,0.1-0.4,0.1-0.6
		c-2.8-0.5-5.5-1.1-8.3-1.7c5.4-2.7,11-4.8,17.5-3.6c-3.4-5-8.2-8-13.4-10.6c5.1-0.5,10,0.1,14.7,2.2c-6.8-7.7-13.5-15.3-20.1-22.8
		c-0.3,0-0.1,0,0,0c7.1,0.8,13.9,2.5,20.1,6.3c4.7,2.9,7.2,7.3,8.4,12.4c1.2,5.2-0.9,8-6.2,8.9c-1.1,0.2-2.3,0.2-3.4,0.2
		c-0.1,0.2-0.2,0.3-0.3,0.5c1.1,1,2.1,2.2,3.3,2.8c4.6,2.3,9.2,2.2,13.5-0.6c6.7-4.4,9.9-12.5,8.1-20.4c-1.3-5.8-4.5-10.6-7.7-15.4
		c-0.7-1-1.3-2-2-2.9c0.2-0.2,0.4-0.4,0.6-0.6c1.9,2.2,3.7,4.4,5.6,6.7c0.2-0.2,0.3-0.3,0.5-0.5c-7.2-19.1-20-35.1-29-53.3
		c0.3,0.1,0.5,0.4,0.6,0.6c7.8,9.2,15.4,18.4,23.3,27.5c7.6,8.8,13.5,18.5,17.1,29.6c0.5,1.4,0.9,2.8,1.4,4.2c0.2,0,0.3,0,0.5,0
		c0.3-3.5,0.8-7.1,0.8-10.6c0.1-6.6-1.2-13-3.6-19.1c5.6,6.2,10.1,13.1,12.2,21.3c1.4,5.5,1.7,11,0.2,16.5
		c-2.4,8.5-8.3,13.3-16.6,15.6c-5.1,1.4-10.3,2.8-15.4,4.2c11.2,0.6,22.5,1.8,31.9-6.7c0.2,0.1,0.3,0.2,0.5,0.3
		c-1.5,5.1-3,10.1-4.5,15.1c6.6-5,12.6-10.7,15.7-18.9c0.6,2.3,1.1,4.5,1.2,6.7c0.1,2.3-0.2,4.6-0.4,6.9
		c10.6-25.2,7.9-47.7-13.4-66.8c4.2,0.8,8.1,1.8,11.5,3.9c3.3,2.1,6.6,4.5,9.3,7.4c2.7,2.9,4.9,6.3,6.7,9.8c1.8,3.4,3,7.1,4.5,10.7
		c-0.7-8.2-2.5-16.2-6.7-23.5c2.5,2.5,5.1,5,7.2,7.7c2.2,2.7,4.2,5.7,5.9,8.7c1.7,3,3.2,6.2,4.5,9.5c1.3,3.2,2.1,6.5,3.1,9.7
		c0.2,0,0.3-0.1,0.5-0.1c-1-4.8-1.7-9.7-2.9-14.4c-3.1-12-8.6-22.7-17.7-31.4c-8.4-8-18.3-12-30-11c-2.2,0.2-4.5,0.3-6.7,0.2
		c-8.8-0.3-16.4-3.6-22.6-9.6c-4.9-4.6-9.2-9.8-13.7-14.8c-7.8-8.8-15.2-18.1-24.1-25.9c-3.8-3.3-8-6.2-12.3-8.7
		c-4-2.3-8.5-3-13.1-1.6c-4.4,1.3-7.7,4.2-10.5,7.7c-5.3,6.6-8.6,14.2-10.9,22.2c-5.2,18.6-9.2,37.4-11.4,56.5
		c-1.3,11.6-2.3,23.2,0.5,35.1c-4.9-4.8-8.2-10.1-9.5-16.6c-0.6,17.4,7.2,32.1,15.4,46.9c-7.2-5.7-14.1-11.2-18.9-18.9
		c3.5,14,9.7,25.9,24.2,31.6c-7.8-1.3-14.2-4.9-19.1-11.1c2.2,5.7,5.6,10.6,10.2,14.6c4.7,4,10.4,5.8,16.8,6.1
		c-0.6,0.5-0.9,0.7-1.1,0.9c-1.1,0.8-2.1,1.6-3.3,2.4c-9.1,6-18.9,10.1-30.1,9.4c-5.6-0.3-8.5-3.1-9.2-8.6c-0.2,1.1-0.3,2.3-0.2,3.4
		c0.9,4.9,4,8.1,8.3,10.2c3.7,1.9,7.8,2.7,11.9,2.7c4.2,0,8.3-0.4,12.4-0.6c-0.4,0.4-1,0.9-1.6,1.5c-5.4,4.6-11.7,7.4-18.6,9
		c-4.9,1.2-9.8,1.6-14.7,0c-5.3-1.8-8.2-6-7.8-11.1c0.1-0.9,0.4-1.8,0.6-2.7c-0.2-0.1-0.3-0.2-0.5-0.2c-0.9,1.7-2,3.4-2.5,5.3
		c-1.2,4.4,0.9,8,3.6,11.2c4.7,5.5,10.8,8.9,17.7,10.9c2.7,0.8,5.5,1.2,8.5,1.9c-15.3,7.3-31.1,12.2-48.2,11.5
		c16.9,9.1,34.9,10,53.5,7.1c-3.1,3.2-6.2,6.5-9.6,9.4c-6.3,5.3-13.4,8.8-21.9,8.6c-5.8-0.2-10-2.8-12.4-8c-1.1-2.4-1.8-4.9-2.7-7.2
		c0,0-0.1,0.2,0,0.4c1.2,9.5,5.1,17.6,12.4,23.9c4.9,4.2,10.4,6.9,17.1,6.1c0,0.1,0,0.3,0,0.3c-0.5,0.9-1,1.7-1.5,2.6
		c-5.2,9.1-10.5,18.1-17.4,25.9c-6.2,7-13.1,12.8-22.9,13.8c13.6,1.8,27,2.5,40.1-4.1c-2.6,4.8-4.1,9.5-5,14.5
		c-1.6,8.7-0.7,17.3,0.5,25.9c1.1,8.1,1.2,16.2-0.4,24.3c-0.5,2.4-1,4.8-1.5,7.2c4.7-9.8,7.7-20.2,12.7-30
		c0.6,35.7,15.9,64.3,40.5,88.6c-5.4-8-7.5-17-7.8-26.5c-0.4-12.3,2.3-23.6,4.7-26.9c0.8,4.7,1.3,9.8,2.6,14.6
		c3.1,11.7,6.5,23.3,9.8,34.9c3.7,13.2,6.4,26.5,5.8,40.3c0,0.1,0.1,0.2,0.1,0.4c0.2,0,0.3,0,0.5,0.1c2.2-11,4.5-22,6.7-33.2
		c0.2,0.5,0.3,0.8,0.3,1.1c1,4,1.8,8,3.1,11.8c3.5,10.2,9.2,19.3,15.6,28c7.2,9.8,14.7,19.3,22.1,28.9c3,3.9,5.7,8,8.7,12.3
		c-0.9-2.8-1.6-5.4-2.5-7.8C344.2,648.1,339.7,636.9,335.4,625.8z M347.6,225.8c-7.5-3.7-15.2-6.3-23.3-7.3
		c9.4,2.8,16.8,8.4,22.3,16.6c5.2,7.9,9.9,16.1,8.3,26.5c-0.6-0.4-1-0.7-1.3-1c-1.2-1-2.3-2.2-3.6-3.1c-4.9-3.2-8.7-7.3-12.1-12.2
		c-4.4-6.3-11-10.4-17.5-14.4c-6.1-3.7-12.3-7.4-17.4-12.5c-0.7-0.7-1.3-1.4-1.9-2c5.2,2.1,10.3,4.2,15.4,6.2
		c0.1-0.2,0.2-0.3,0.2-0.5c-7.6-4.6-12.4-11.5-16.7-19.5c9,5.3,18.4,7,28.4,6.4c-6.9-1.4-13-4.4-18.1-9.4c5.3,2.3,10.9,3.5,17.2,3.7
		c-15-4.9-23.6-15.7-30.2-28.7c2.3,1.9,4.7,3.9,7,5.8c2.3,1.9,4.7,3.8,7.1,5.5c-2.6-3.9-5.3-7.7-8.2-12c3.2,2.3,6,4.3,8.8,6.3
		c0.1-0.1,0.3-0.2,0.4-0.4c-5.9-9.3-11.8-18.7-17.8-28.3C300.5,156.5,342.6,215.3,347.6,225.8z"/>
	<path d="M673,455.1c-2.6-0.7-5-1.1-7.1-2c-2.2-0.9-4.5-2.1-6.4-3.6c-3-2.4-5.8-4.9-8.4-7.7c-6.1-6.6-10.9-14.1-15.4-21.8
		c-1.5-2.5-2.9-5-4.4-7.7c5.1,0.5,9.5-0.9,13.5-3.6c8.3-5.5,13.7-13,15.7-22.8c0.3-1.3,0.5-2.6,0.7-3.9c-0.8,1.6-1.2,3.2-1.8,4.8
		c-3.3,8.6-9,11.4-18.1,10c-11.6-1.8-19.5-9.5-27.1-17.9c24.6,4.8,45.8-2.1,53.3-7c-17,0.7-32.8-3.8-48.1-11.3
		c0.1-0.2,0.2-0.3,0.2-0.3c0.2-0.1,0.5-0.1,0.7-0.1c8.1-0.7,15.3-3.7,21.7-8.6c3.6-2.8,6.6-6.1,7.7-10.6c0.9-3.6-0.1-6.6-2.9-9.4
		c1.3,7-1,11.4-6.8,13.6c-2.1,0.8-4.4,1.2-6.7,1.3c-9.3,0.2-17.7-3-25.3-8.2c-1.5-1-2.8-2.3-4.2-3.4c6,1.1,12,1.2,17.9,0.1
		c5.3-1,10.1-3.1,13.3-7.7c1.7-2.3,2.6-4.9,1.7-8.2c-0.7,5.4-2.5,7.7-7.7,8.6c-3,0.5-6.2,0.6-9.2,0.2c-9-1.3-17.2-4.9-24.4-10.5
		c-0.7-0.6-1.5-1.2-2.4-1.9c13-1.5,26.3-12,27.1-21.1c-6.1,7.5-14.8,11.2-19.2,11.3c14.1-5.8,20.4-17.5,24.2-31.5
		c-2.1,2.5-3.8,4.9-5.8,7c-2,2.1-4.1,4-6.3,5.9c-2.1,1.9-4.4,3.6-6.6,5.4c0-0.7,0.3-1.2,0.6-1.6c7.2-11.5,12.5-23.8,14.4-37.3
		c0.3-2.4,0-4.9,0-7.3c-1.5,6.3-4.7,11.4-9.1,16.1c0.4-3.5,0.9-6.7,1.1-10c0.4-9.3-0.1-18.5-1.5-27.7c-1.7-11.5-3.7-23-5.9-34.4
		c-2-10.2-4.4-20.3-8.7-29.9c-2.6-5.8-5.8-11.1-10.7-15.3c-5.1-4.4-10.8-5.5-17.2-3.3c-5.1,1.8-9.4,5-13.4,8.5
		c-8.2,7.1-15.2,15.5-22.4,23.6c-5.2,5.8-10.2,11.8-15.7,17.3c-7.6,7.4-16.9,11.2-27.7,10.6c-5-0.3-9.9-0.6-14.9,0.4
		c-9.3,2-16.5,7.3-22.4,14.5c-7,8.5-11.3,18.3-13.8,28.9c-1.1,4.4-1.7,8.9-2.5,13.4c0.2,0,0.4,0.1,0.6,0.1
		c1.3-7.1,4.1-13.6,7.5-19.9c3.9-7,10.1-14.7,13.3-16.4c-4.5,9.5-7,18.5-6.4,23.8c2.1-8.1,5.6-15.1,11-21c5.5-6.1,12.4-9.7,21-11
		c-10.4,8.3-17.2,18.4-19.3,31.1c-2.1,12.5,0,24.5,5.8,35.8c-0.9-6.9-0.8-11.5,0.5-13.8c3.1,8.9,12.2,17.2,16.3,19.1
		c-3-6.2-4.8-12.6-4.4-15.4c9.6,8.6,21.1,7.2,32.4,6.6c-4.3-1.2-8.7-2.4-13-3.5c-5.4-1.4-10.6-3.1-14.5-7.3
		c-6.1-6.5-7.1-14.5-5.6-22.8c1.6-9.2,6.7-16.7,12.9-23.6c0,0,0.2,0,0.2,0c-5.2,11.4-4.1,24.4-2.5,29.2c0.2-0.5,0.3-0.9,0.5-1.4
		c3.9-11.7,9.7-22.4,17.7-31.9c6.4-7.5,12.9-15,19.4-22.5c1.7-2,3.3-4,4.9-6c-0.5,1.6-1.2,3.1-2,4.5c-6.2,10.4-12.5,20.8-18.5,31.3
		c-3.2,5.5-5.8,11.4-8.7,17.1c0.3,0.2,0.6,0.4,0.8,0.6c1.9-2.2,3.9-4.3,5.8-6.5c0.1,0.1,0.2,0.2,0.3,0.3c-0.3,0.5-0.6,0.9-0.9,1.4
		c-3.1,4.8-6.4,9.5-8.1,15.1c-2.9,9.7,0.8,19.2,9.1,23.4c4.2,2.1,8.4,1.9,12.4-0.6c1.1-0.7,1.9-1.7,2.8-2.6
		c-1.3-0.4-2.3-0.3-3.3-0.4c-5.1-0.3-7.8-3.6-6.7-8.5c1.4-6.9,5.2-12.2,11.7-15c3.4-1.4,7-2.5,10.6-3.5c2.3-0.6,4.8-0.7,7.1-1
		c0,0.2,0.1,0.3,0.1,0.5c-8.4,5.9-13.1,15.2-20.8,22.2c2.8-0.7,5.1-1.4,7.5-1.7c2.4-0.3,4.9-0.3,7.3-0.4
		c-7.7,3.8-11.3,7.9-13.1,10.8c6.1-1,14.5,1,18.2,4.3c-3.2-0.6-6.2-0.2-9.1,1.5c2.6,0.6,5.1,1,7.4,1.7c4.7,1.5,9.4,3.2,14.1,4.8
		c6.7,2.2,13.6,3.5,20.7,2c8-1.8,13.5-9.9,11.9-17.7c-1.5,4.5-4.4,7.7-8.1,10.6c0.9-1.9,1.7-3.6,2.4-5.3c2-5.3,1.8-10.9,1.7-16.5
		c-0.1-4.4-0.2-8.8,3.8-12.4c-3.9,1-5.8,3.3-6.6,6.6c-0.5,2.2-0.8,4.5-1.1,6.7c-0.7,5.3-1.9,10.4-5.3,14.7c-2.6,3.3-6,5.5-10.6,6
		c1.8-1.7,3.4-3.2,5.3-5c-6.2,1.3-10.2,1.3-13,0c0.3-0.1,0.5-0.2,0.7-0.3c9-2.1,15.3-10.8,14.6-20.1c-1.5,0.3-3,0.7-4.5,0.9
		c-1.4,0.2-2.9,0.2-4.3,0.2c9.7-2.2,19.1-8.4,20.3-13.7c-4.4,4.3-9.5,7.3-15,9.7c7.1-5.5,10.7-13.5,14.8-21.1c-3.6,3.6-7.7,6-13,7.1
		c5.7-4.6,9.9-9.7,12.9-15.9c3-6.1,4.6-12.5,4.8-19.3c-3.1,5.8-6.5,11.4-12.1,15.3c3.6-4.9,5.3-10.4,5.4-16.3c-2,1.3-4,2.6-6.3,4
		c7.8-14.4,8.5-29,4.3-44.2c4.7,6.6,7.3,13.9,8.8,21.5c1.6,7.6,2.6,15.4,3.9,23.1c1.8-6.8,2.3-13.7,2.1-20.8c0.2,0.5,0.4,1,0.4,1.4
		c0.6,4.5,1.3,8.9,1.6,13.4c0.6,9,0.6,17.9-1.3,26.8c-1,4.5-2.4,9-5.2,12.8c5.7-2.9,8.7-7.9,11-13.5c2.4,17.3,1.6,34.3-4.3,51
		c1.9-2,3.8-4.1,6.1-6.5c-0.6,2.7-0.9,5.1-1.6,7.3c-2.5,7.8-6.8,14.3-14.9,17.4c-5.6,2.2-11.6,2.3-17.3,0.9
		c-7.1-1.7-14.2-3.9-21.1-6.3c-10.9-3.7-21.9-5.4-33.3-4.3c-12.2,1.2-23.7,5-34.8,10.3c-7.2,3.4-13.9,7.7-20.2,12.6
		c0.1,0.1,0.2,0.2,0.2,0.1c0.4-0.2,0.7-0.3,1.1-0.5c13.7-7.1,28-12.3,43.4-14c8.5-0.9,17-0.8,25.4,0.7c11.9,2.1,23,6.5,33.9,11.7
		c2.8,1.3,5.1,3.2,7,5.7c6,7.8,12,15.6,18.3,23.1c6,7.2,13.3,12.8,22.4,15.8c0.2,0.1,0.3,0.3,0.6,0.5c-10.8,0-21.3,2.9-31.9,0.9
		c0.5,0.3,1,0.5,1.6,0.6c9.1,1.9,17.7,5,25.9,9.4c3.3,1.8,6.9,3.3,10.3,4.9c0.4,0.2,0.8,0.4,1.1,0.5c-3.7,0.3-7.3,0.4-11,0.2
		c-3-0.1-6.1-0.5-9.1-1c-12-2.1-23.3-5.9-33.8-12.1c-5.7-3.4-10.8-7.5-14.6-13.3c0,0.3-0.1,0.5-0.1,0.6c0.2,0.4,0.4,0.8,0.6,1.3
		c3.7,7.5,9.1,13.5,15.9,18.2c8.3,5.8,17.6,9.5,27.2,12.3c1.8,0.5,3,1.4,4.1,2.9c5.2,7,9.6,14.4,13.7,22.1
		c6.1,11.3,10.7,23.4,19.1,33.4c-12.7-7.5-21.5-18.7-29.1-31c0.1,0.5,0.2,0.9,0.4,1.3c3.5,8,6.9,16.1,10.4,24.1
		c5.9,13.6,10.6,27.6,11.7,42.6c0.2,2.3,0,4.6,0,7.1c-3-18.4-17.6-50.2-26.3-62.7c2.3,6,4.8,12.4,7.2,18.6
		c-4.8-5.5-9.4-11.1-14.3-16.4c-4.9-5.3-10.4-10.1-16.5-14.8c0.3,0.6,0.4,0.7,0.5,0.8c7.4,8.7,12.4,18.7,15.8,29.5
		c5.2,16.4,6.1,33.3,5.8,50.4c-0.2,7.5-0.5,15-0.7,22.5c0.1,0,0.3,0.1,0.4,0.1c2.9-14.1,5.7-28.2,8.5-42c12.2,15.5,12.5,56.6,0,69
		c3.1-6.3,3.7-13,3.1-20.2c-1,6.9-4,17.9-5.4,20.2c2-9.3,1-18.2-2.3-26.9c0,2.3,0.2,4.6,0.2,6.8c0,2.3-0.1,4.6-0.3,6.8
		c-0.2,2.3-0.6,4.6-1.1,6.9c-0.4,2.2-1,4.3-1.5,6.4c-1.6-7.1-4.8-13.4-8.5-19.5c-3.7-6.1-8.2-11.4-13.9-16.2
		c0.9,2.2,1.9,4.1,2.4,6.1c2.1,8.3,1.4,16.5-0.9,24.6c-1.5,5.1-3.3,10.2-5,15.5c-1.4-5.8-2.7-11.2-4-16.6c-0.2,0-0.4,0.1-0.5,0.1
		c-2.2,11-3.1,22.2-2.3,33.5c-2-5.5-4.8-10.5-8.4-15.1c-3.8-4.9-10.2-11.2-12.4-12.1c13.1,29.4,5.6,65.8-11,85.8
		c2.9-10.4,4.1-20.9,4-31.6c-1.7,12.8-5.6,25.1-10.2,37.1c-3.7,9.8-7.8,19.4-11.6,29.2c-1.5,3.8-2.6,7.8-3.9,11.7
		c0.5-0.1,0.7-0.3,0.8-0.5c3.1-4.4,6.1-8.9,9.3-13.2c7.9-10.7,16.1-21.2,23.8-32c6.1-8.6,10.8-18.1,13.6-28.3
		c0.6-2.4,1.1-4.9,1.7-7.7c2.4,11.4,4.8,22.4,7.1,33.4c0.2,0,0.3-0.1,0.5-0.1c0-0.2,0-0.4,0-0.7c-0.2-9.2,0.5-18.3,2.6-27.2
		c2.3-9.8,5.1-19.4,7.7-29.1c2.3-8.9,4.5-17.8,6.7-26.7c0.5-2.2,0.5-4.5,0.8-7.1c0.4,1,0.8,1.6,1,2.3c0.4,1.1,0.9,2.2,1.2,3.3
		c2.8,9.4,3.5,19,2.4,28.7c-0.7,6-2.3,11.8-5.6,17c-0.6,1-1.4,2-2.2,3.1c0.3-0.1,0.4-0.1,0.5-0.2c0.3-0.3,0.6-0.5,0.9-0.8
		c10.8-10.2,19.6-22,26.4-35.3c5.9-11.5,10.3-23.6,12-36.5c0.7-5.2,0.8-10.6,1.2-15.7c5,9.6,7.9,20.4,12.7,30.4c0-0.2,0-0.5-0.1-0.7
		c-1.8-6.9-3.2-13.9-2.9-21c0.3-6.2,1.1-12.4,1.8-18.5c1-9.3,0.3-18.5-3.2-27.3c-0.6-1.6-1.4-3.3-2-4.9
		C646,457.7,659.4,456.5,673,455.1z M553.6,180.7c2.9-2.1,5.8-4.1,8.7-6.2c0.1,0,0.1,0.1,0.2,0.1c-2.6,3.7-5.1,7.5-7.7,11.2
		c0,0.1,0.1,0.1,0.1,0.2c4.6-3.7,9.2-7.5,14.1-11.5c-7,13.4-16,24-30.6,29c3-0.5,6-0.7,8.9-1.4c2.9-0.7,5.7-1.8,8.6-2.8
		c-5.3,5.2-11.7,8.1-19,9.6c4.9,1.6,16.1-0.7,28.3-5.7c-4.1,7.5-8.9,14.1-15.9,18.8c0.1,0.2,0.2,0.3,0.3,0.5
		c4.9-2.1,9.9-4.2,14.8-6.2c0.1,0.1,0.2,0.1,0.2,0.2c-3.1,2.6-6.1,5.4-9.4,7.7c-4.1,2.9-8.4,5.4-12.6,8c-7.8,4.9-14.9,10.6-19.3,19
		c-0.2,0.4-0.5,0.7-0.8,0.9c-4.1,3-8.2,6-12.3,9c-0.6-3.2-0.5-6.7,0.6-10c3.6-11.4,9.5-21.3,19.7-27.9c2.7-1.7,5.8-2.8,8.7-4.1
		c0.5-0.2,1-0.3,1.4-0.5c-8,0.8-15.4,3.3-22.6,6.8c15.9-25.9,33.9-50.2,53.2-73.6c-6,9.6-12,19.1-18,28.7
		C553.5,180.5,553.5,180.6,553.6,180.7z"/>
	<path d="M458.5,517.4c-8.6-2.8-17.4-3.3-26.4-3.6c-5.5,0.5-11.1,0.8-16.6,1.5c-5.4,0.7-10.5,2.1-15.2,5.1
		c-5.8,3.8-10.4,11.6-5.5,20.3c1.5,2.7,2.9,5.5,4.4,8.2c3.7,6.8,8.1,13,14,18.1c7.2,6.2,15.5,8.7,24.9,7c6.9-1.3,12.3-5,17-9.9
		c7.1-7.5,12-16.4,16.4-25.6c1.7-3.4,1.5-6.9-0.1-10.4C468.9,522.4,464.2,519.2,458.5,517.4z"/>
	<path d="M440.8,341.6c-0.1,0-0.3,0-0.4,0c-2.6-22.3-5.3-44.5-7.9-66.6c-1.2,22.2-4.6,44.4-7.9,66.6c-4-6.9-8-13.7-12-20.6
		c-0.2,0.1-0.3,0.2-0.5,0.2c0.6,1.6,1.3,3.2,1.9,4.8c4.6,12.7,7.3,26,9.8,39.2c3,15.8,5.8,31.7,8.7,47.9c0.3-0.5,0.4-0.6,0.4-0.8
		c2.3-12.8,4.5-25.6,6.8-38.3c2.5-13.3,5.1-26.6,9.1-39.6c1.5-4.9,3.2-9.7,4.9-14.5c-0.1,0-0.1-0.1-0.2-0.1
		C449.2,327.1,445,334.3,440.8,341.6z"/>
	<path d="M469.4,356.5c2-2.7,4.2-5.3,6.4-8.1c-0.4,0.2-0.7,0.3-0.9,0.5c-2.7,2.6-5.6,4.9-7.9,7.7c-7.4,9-11.4,19.5-12.2,31
		c-0.2,2.9,0.5,5.9,1.3,8.7c0.9,2.9,3.2,4.9,6.3,5.8c-5.9,10-3.1,24,0.7,29.9c-0.3-1.5-0.6-2.8-0.7-4.1c-1.3-10.6,2-19.7,8.9-27.7
		c4.6-5.3,10-9.5,16.1-12.9c2.2-1.2,3.8-2.9,5.3-4.8c2.2-2.8,4.3-5.8,7.1-8c10.3-8.1,22.3-9.8,34.9-8c8.5,1.2,16.3,4.4,24,8.1
		c2.5,1.2,4.9,2.4,7.6,3.8c-0.3-0.4-0.4-0.6-0.5-0.6c-7.3-5.2-14.8-10.4-23.1-13.9c-13.9-6-27.3-5.3-40,3.3
		c-0.1,0.1-0.3,0.1-0.5,0.1c2.9-5.6,6.4-10.6,11-14.8c-5.4,2.4-10.1,5.7-14.3,9.7c-6.5,6.3-11.1,13.9-15,21.9
		c-0.7,1.4-1.5,2.9-2.6,3.9c-3.3,3.2-7.2,5.5-11.6,6.7c-4.5,1.3-8.1-0.5-9.2-5.1c-0.7-3-1-6.2-0.7-9.2
		C460.7,371.6,464.3,363.7,469.4,356.5z"/>
	<path d="M301,377.6c4.7-2.3,9.4-4.8,14.2-6.7c10.5-4.3,21.4-6.2,32.8-4c10.4,2,18.9,6.7,24.9,15.8c1.3,2,3.3,3.7,5.3,4.9
		c6.1,3.9,11.8,8.3,16.3,14c5.6,7,8.9,14.8,8,24c-0.2,2.3-0.6,4.5-0.9,6.8c4.5-7.7,6.6-19.7,0.8-30.2c3.9-1.1,6-3.8,7.2-7.4
		c1.1-3.6,1.1-7.2,0.5-10.8c-2.2-13.5-8.2-24.9-18.6-33.9c-0.7-0.6-1.4-1.1-2.1-1.6c5,5.5,9.1,11.4,12.2,18c3.1,6.8,5,13.9,3.7,21.5
		c-0.8,4.8-3.7,7.9-7.4,7.3c-6.5-1.1-12.1-4-15.6-9.9c-1.8-3-3.3-6.2-5.1-9.2c-5.7-9.7-13.2-17.6-23.4-22.7c-0.5-0.2-1-0.5-1.5-0.7
		c4.4,4.2,7.7,9.1,10.5,14.5c-0.2,0-0.3,0.1-0.3,0.1c-0.2-0.2-0.5-0.3-0.7-0.5c-9-5.7-18.6-8-29.1-6c-12.9,2.4-23.1,10-33.3,17.5
		C300,378.1,300.5,377.8,301,377.6z"/>
	<path d="M421.1,222.1c1.3-5.7,2.6-11.2,1.8-16.9c1.4,1.8,2.8,3.6,3.9,5.6c3.4,5.9,4.8,12.5,5.8,19.3c2.5-13.5,5.4-21.4,9.4-25.1
		c0,2-0.1,3.9,0,5.8c0.1,1.9,0.4,3.7,0.6,5.6c0.3,1.8,0.6,3.6,1,5.7c3.7-18.5,14.8-29,33-32.6c-16.3-1.9-31.4-0.1-43.9,11.6
		c-12.4-11.9-27.5-13-43.5-11.5C407.3,193.2,418.4,203.3,421.1,222.1z"/>
	<path d="M310.1,364.1c2.2-2,5.4-5,8.6-7.9c3.3-2.9,6.6-5.8,10.2-8.4c3.6-2.5,7.4-4.8,11.3-6.7c3.8-1.9,7.9-3.3,11.9-4.9
		c-3-0.3-6.1-0.3-9.1-0.4c-0.8,0-1.7-0.3-2.4-0.8c-6.4-4.3-13.5-6.3-21.2-6.6c-2.7-0.1-5.3,0-8.1,0c4-5.2,7.1-10.6,7.8-17.5
		c-1.2,2.1-2,4-3.1,5.7c-5,7.7-11.8,13.3-19.8,17.4c-3.1,1.6-6.4,2.8-9.6,4.3c-4.8,2.2-9,5-12.8,8.7c8.3-4.5,17.3-6.6,26.6-7.6
		c9.3-1,18.5-0.2,27.9,2.2C319.6,348,314.4,356.6,310.1,364.1z M317.4,336.8c-4.8,0-9.5-0.7-14.3-1.2c3.4-2.7,7.3-3.5,11.4-3
		c5,0.6,10,1.4,15,2.1c0,0.3,0,0.6,0,0.9C325.4,336.1,321.4,336.8,317.4,336.8z"/>
	<path d="M524.7,335.3c-0.6,0.4-1.4,0.5-2.1,0.5c-3.1,0.1-6.2,0-9.3,0c0,0.2,0,0.4-0.1,0.6c17.7,4.6,30.4,16.4,42.6,29
		c-5.1-8.7-10.1-17.6-19-24c19.5-4.4,37.9-3.1,55.7,6.1c-1-0.8-1.8-1.5-2.6-2.2c-5.5-4.6-12-7.3-18.5-10.3
		c-11.3-5.1-20.2-12.8-25.4-24.9c0.4,1.9,0.6,3.3,0.9,4.7c1.3,5.1,3.9,9.6,7.2,13.5c-2,0-4,0-6,0
		C539.7,328.4,531.8,330.4,524.7,335.3z M555.1,332.7c2.7-0.1,4.9,1.5,7,2.9c-5.3,0.5-10.6,1.1-15.8,1.5c-1.5,0.1-3-0.3-4.5-0.6
		c-2-0.3-4-0.8-6.1-1.4c2.3-0.5,4.6-1.3,6.9-1.5C546.7,333.1,550.9,332.8,555.1,332.7z"/>
	<path d="M453.6,450.4c-2.4,13-2.3,25.8,0.6,38.6c1.7,7.4,4.2,14.6,8.8,20.9c1.9,2.7,4.1,5,7.3,6.9c-0.1-1.4-0.1-2.6-0.3-3.7
		c-0.7-4.6-2.8-8.7-5.2-12.6c-7.4-12.1-10.6-25.4-11.1-39.4C453.5,457.5,453.6,453.9,453.6,450.4z"/>
	<path d="M394.8,516.3c5.7-3.7,9.1-9,11.7-14.9c5.5-12.1,7.2-24.8,6.5-37.9c-0.2-4.7-0.9-9.3-1.4-13.9c-0.2,0-0.3,0.1-0.5,0.1
		c0,0.4,0,0.8,0.1,1.2c0.6,7.4,0.2,14.7-1,22.1c-1.6,10.1-5.3,19.3-10.3,28.2c-1.7,2.9-2.9,6.1-4,9.3
		C395.2,512.3,395.2,514.3,394.8,516.3z"/>
	<path d="M386.3,512.1c2.2-3.1,4.6-6.1,7.2-9.4c-1.2,0.8-2.2,1.4-3.2,2.1c-5.3,3.7-9.6,8.2-11.7,14.5c-3.5,10.6,2.8,18.7,11.7,21.7
		c-1.3-1.4-2.3-2.5-3.3-3.7c-3.8-4.5-5.6-9.5-4.7-15.4C382.8,518.3,384.2,515.1,386.3,512.1z"/>
	<path d="M486.6,519c-2.7-7.4-8.3-12.2-15-16.1c0.4,0.4,0.7,0.8,1.1,1.2c3.5,3.5,6.5,7.4,8.6,11.9c3.8,8.1,2.6,15.6-3.5,22.2
		c-0.9,1-1.9,2-2.9,2.9c0.1,0.1,0.2,0.3,0.2,0.4c1.9-1.1,3.9-2.1,5.7-3.3C487.4,533.4,489.4,526.6,486.6,519z"/>
	<path d="M328.1,422.4c3.1,11.8,10.7,18.8,23.6,20.4c-14.3-7-21.6-19-24.8-33.9C326.7,413.5,327,418,328.1,422.4z"/>
	<path d="M538.3,408.8c-1.4,7.2-4.1,13.9-8.3,19.9c-4.3,6.1-9.7,10.8-17,14.1C531.9,440.1,539.3,426.5,538.3,408.8z"/>
	<path d="M454.6,567.9c0.8,0.2,1.4,0.5,2,0.4c4.6-0.1,9.3,0.1,13.8-0.4c7.9-0.9,14.6-7.3,16.5-15.1
		C479.1,564.2,467.1,566.2,454.6,567.9z"/>
	<path d="M459.8,574.5c-4.1,0.5-8.4,0.5-12.7,0.8c15.1,3.7,30,0.7,36.9-7.2c-3.9,1.3-7.8,2.8-11.9,3.9
		C468.1,573.1,464,573.9,459.8,574.5z"/>
	<path d="M392.2,567.4c3.7,0.9,7.6,0.9,11.5,1.1c2.1,0.1,4.2-0.3,6.3-0.4c-12-1.6-23.6-3.8-31.4-14.4
		C380.8,560.5,384.9,565.7,392.2,567.4z"/>
	<path d="M416.6,575.5c-5.2-0.5-11.5-0.9-17.7-1.9c-6.2-1-12.3-2.7-17.9-5.7C388.7,577.7,405.6,578.3,416.6,575.5z"/>
	<path d="M486.5,539.2c-4.1,10.5-12.6,15-22.8,17.5c5.6,1.3,10.9,1,15.6-2.6C483.5,550.9,487.2,543.2,486.5,539.2z"/>
	<path d="M400.3,556.6c-9.8-2.7-18.1-7.2-21.8-18.1C380,553.1,390,560.1,400.3,556.6z"/>
</g>
</svg>
