<?xml version="1.0" encoding="utf-8"?>
<!-- Generator: Adobe Illustrator 24.0.0, SVG Export Plug-In . SVG Version: 6.00 Build 0)  -->
<svg version="1.1" id="Layer_1" xmlns="http://www.w3.org/2000/svg" xmlns:xlink="http://www.w3.org/1999/xlink" x="0px" y="0px"
	 viewBox="0 0 864 864" style="enable-background:new 0 0 864 864;" xml:space="preserve">
<style type="text/css">
	.st0{fill:#272528;}
</style>
<g>
	<path class="st0" d="M430.8,297.1C430.8,297,430.8,297,430.8,297.1C430.8,297,430.8,297,430.8,297.1
		C430.9,297,430.8,297.1,430.8,297.1z"/>
	<path class="st0" d="M430.8,297.1C430.8,297.1,430.9,297,430.8,297.1C430.9,297,430.9,297.1,430.8,297.1
		C430.9,297.1,430.9,297.1,430.8,297.1z"/>
	<path class="st0" d="M298.7,240.7c0,0.1,0,0.2,0.1,0.4c-0.1-0.1-0.3-0.1-0.4-0.2l-0.1,0c0,0,0-0.1,0-0.1c0,0,0,0,0.1,0.1
		C298.5,240.8,298.6,240.8,298.7,240.7z"/>
	<path class="st0" d="M325.7,319.8C325.7,319.8,325.7,319.8,325.7,319.8c-0.1,0.1-0.2,0.1-0.2,0.1
		C325.5,319.9,325.6,319.8,325.7,319.8z"/>
	<path class="st0" d="M304.1,237.3c-0.1,0.1-0.2,0.2-0.3,0.3c0-0.2-0.1-0.3-0.1-0.5C303.8,237.1,303.9,237.2,304.1,237.3z"/>
	<path class="st0" d="M325.7,319.8C325.7,319.8,325.7,319.7,325.7,319.8C325.7,319.7,325.7,319.8,325.7,319.8L325.7,319.8z"/>
	<polygon class="st0" points="430.9,297.1 430.9,297.1 430.9,297.1 	"/>
	<path class="st0" d="M499.4,360.2c0,0.1,0,0.1,0,0.2c-0.1-0.1-0.1-0.1-0.2-0.2C499.3,360.3,499.4,360.3,499.4,360.2z"/>
	<path class="st0" d="M499.5,360.5C499.5,360.5,499.5,360.5,499.5,360.5C499.5,360.5,499.5,360.5,499.5,360.5
		C499.5,360.5,499.5,360.5,499.5,360.5C499.5,360.5,499.5,360.5,499.5,360.5L499.5,360.5z"/>
	<path class="st0" d="M602.6,373.6c-0.1-0.1-0.1-0.1-0.2-0.2C602.5,373.5,602.5,373.5,602.6,373.6L602.6,373.6
		C602.6,373.6,602.6,373.6,602.6,373.6C602.6,373.6,602.6,373.6,602.6,373.6L602.6,373.6z"/>
	<path class="st0" d="M430.8,281.6c0,0.1-0.1,0.1-0.1,0.2c-0.2-0.1-0.4-0.2-0.6-0.3c0,0,0.1-0.1,0.1-0.1
		C430.4,281.5,430.6,281.6,430.8,281.6z"/>
	<path class="st0" d="M430.9,297.1C430.9,297.1,430.9,297.1,430.9,297.1C431.1,297.1,431,297.1,430.9,297.1z"/>
	<path class="st0" d="M618.4,384.4c-0.1,0-0.1,0-0.2,0.1c-0.1-0.1-0.1-0.3-0.2-0.4c0,0,0.1-0.1,0.1-0.1
		C618.3,384,618.3,384.2,618.4,384.4z"/>
	<path class="st0" d="M319.5,458.4C319.5,458.4,319.5,458.4,319.5,458.4C319.5,458.4,319.5,458.5,319.5,458.4
		C319.5,458.5,319.5,458.4,319.5,458.4z"/>
	<path class="st0" d="M310.2,459c0-0.1,0-0.1,0-0.2c0.1,0,0.1,0.1,0.2,0.1C310.3,458.9,310.2,459,310.2,459z"/>
	<path class="st0" d="M310.2,458.8C310.2,458.8,310.2,458.8,310.2,458.8L310.2,458.8C310.2,458.8,310.1,458.7,310.2,458.8
		C310.2,458.7,310.2,458.7,310.2,458.8C310.2,458.8,310.2,458.8,310.2,458.8z"/>
	<path class="st0" d="M319.5,458.4C319.5,458.4,319.5,458.4,319.5,458.4C319.5,458.4,319.5,458.4,319.5,458.4L319.5,458.4z"/>
	<path class="st0" d="M319.6,459.1c0-0.2,0-0.4-0.1-0.6c0.1,0.2,0.2,0.3,0.2,0.5C319.7,459,319.6,459,319.6,459.1z"/>
	<path class="st0" d="M587.6,417.9c-0.1,0-0.1,0.1-0.2,0.1c0-0.1,0-0.1,0-0.2C587.5,417.9,587.6,417.9,587.6,417.9z"/>
	<path class="st0" d="M487.1,258.8C487.1,258.8,487.2,258.9,487.1,258.8C487.1,258.9,487.1,258.9,487.1,258.8
		C487.1,258.9,487.1,258.9,487.1,258.8C487.1,258.8,487.1,258.8,487.1,258.8C487.1,258.8,487.1,258.8,487.1,258.8
		C487.2,258.8,487.2,258.8,487.1,258.8L487.1,258.8z"/>
	<path class="st0" d="M345.5,316.8c-0.1-0.1-0.1-0.1-0.2-0.2c0.2,0,0.3-0.1,0.5-0.1C345.6,316.6,345.6,316.7,345.5,316.8z"/>
	<path class="st0" d="M295.7,340.2c-0.1,0.2-0.2,0.3-0.3,0.5c0-0.2,0-0.4,0.1-0.6C295.5,340.2,295.6,340.2,295.7,340.2z"/>
	<path class="st0" d="M310.6,301.1C310.6,301.2,310.5,301.2,310.6,301.1L310.6,301.1c-0.1,0.1-0.1,0.1-0.1,0.1
		C310.5,301.2,310.5,301.2,310.6,301.1C310.5,301.2,310.6,301.1,310.6,301.1z"/>
	<path class="st0" d="M310.9,301c-0.1,0-0.2,0.1-0.4,0.1c0.1-0.1,0.1-0.2,0.2-0.2C310.8,300.9,310.9,301,310.9,301z"/>
	<path class="st0" d="M295.4,340.9c0,0.1,0,0.1-0.1,0.2C295.3,341,295.3,340.9,295.4,340.9L295.4,340.9z"/>
	<path class="st0" d="M295.4,340.9C295.4,340.9,295.3,340.8,295.4,340.9C295.4,340.8,295.4,340.8,295.4,340.9
		C295.4,340.8,295.4,340.8,295.4,340.9z"/>
	<path class="st0" d="M486.8,259c0.1,0,0.2,0,0.3-0.1c-0.1,0.1-0.1,0.2-0.2,0.3C486.8,259.1,486.8,259,486.8,259z"/>
	<path class="st0" d="M275,551.9c11.6-2.7,22.7-6.3,33.4-11.2c10.7-4.9,20.7-11,29.8-18.6c-10.5,11.2-23.3,18.8-37.3,24.5
		c-10,4.1-20.3,6.9-31,8.2c-0.1-0.2-0.2-0.3-0.3-0.5c0.3-0.5,0.4-1.1,0.8-1.5c0.8-0.7,1.7-1.3,2.6-1.9
		C274.2,550.2,275,550.2,275,551.9z"/>
	<path class="st0" d="M268.9,546.8c-0.5-0.1-1.3-0.8-1.4-1.3c-0.2-1.1,1.3-2.5,3-2.6c0.2,0.3,1,0.8,1.1,1.4
		C271.8,545.3,270.1,546.9,268.9,546.8z"/>
	<path class="st0" d="M262.5,555.8c-0.2-0.3-0.9-0.8-1.1-1.4c-0.2-1,1.3-2.6,2.5-2.5c0.6,0.1,1.4,0.7,1.6,1.3
		C265.8,554.3,264.2,555.7,262.5,555.8z"/>
	<path class="st0" d="M283.2,557.4c-0.4-0.4-1.3-1-1.2-1.2c0.4-0.9,1.1-1.7,1.9-2.9c0.7,0.9,1.5,1.7,1.4,1.8
		C284.7,556,283.9,556.7,283.2,557.4z"/>
	<path class="st0" d="M287.8,546.6c0.5-0.8,1.1-1.6,1.9-2.6c0.6,0.7,1.1,1.3,1.1,1.3c-0.7,0.7-1.4,1.4-2.2,2
		C288.6,547.4,287.8,546.7,287.8,546.6z"/>
	<path class="st0" d="M567.8,517.4C567.8,517.4,567.8,517.4,567.8,517.4L567.8,517.4c-0.1-0.1-0.1-0.1-0.1-0.1
		C567.7,517.3,567.8,517.3,567.8,517.4C567.8,517.4,567.8,517.4,567.8,517.4z"/>
	<path class="st0" d="M567.7,517.7c0-0.1,0-0.2,0.1-0.3c0.1,0.1,0.1,0.2,0.2,0.2C567.9,517.7,567.8,517.7,567.7,517.7z"/>
	<path class="st0" d="M275.2,535.7c-0.2-0.3-0.8-0.8-0.9-1.3c-0.1-1.1,1.4-2.6,2.6-2.4c0.6,0.1,1.3,0.8,1.4,1.3
		C278.6,534.2,276.8,535.7,275.2,535.7z"/>
	<path class="st0" d="M592.5,502.4c-0.1,0-0.1,0.1-0.2,0.1c0,0,0-0.1-0.1-0.1c0,0,0.1-0.1,0.1-0.1
		C592.4,502.3,592.5,502.3,592.5,502.4z"/>
	<path class="st0" d="M538.8,480.6c7.8-0.6,15,2,21.9,5.3c0.4,0.2,0.7,0.4,1.1,0.6c0.1-0.1,0.1-0.2,0.2-0.2c-0.3-0.2-0.7-0.5-1-0.7
		c-11.5-8.6-23.6-16.1-37.3-20.8c13.6,0.9,26.3,4.6,38.1,11.4c11.2,6.5,27.7,20.7,30.3,26.2c-18.4-11.4-38.2-15.9-59.6-12.9
		c4.9-0.6,8.2,2.3,11.3,5.2c7.8,7.2,15.5,14.6,23.2,21.9c0.2,0.3,0.5,0.5,0.7,0.8c-0.3-0.2-0.7-0.4-1-0.5c-0.4-0.3-0.9-0.6-1.3-0.9
		c-10-7.4-19.7-15-30.5-21.1c-6.1-3.4-12.5-4.6-19.4-3.7c-1.6,0.2-3.2,0.5-4.9,0.7c6-3.7,12.1-7.1,18.8-9.2
		C532.4,481.6,535.6,480.8,538.8,480.6z"/>
	<path class="st0" d="M367.1,655.6C367.1,655.6,367.1,655.6,367.1,655.6c-0.1-0.1-0.3-0.2-0.4-0.3c0,0,0,0,0,0
		C366.9,655.4,367,655.5,367.1,655.6L367.1,655.6C367.1,655.7,367.1,655.6,367.1,655.6z"/>
	<path class="st0" d="M451.7,496.3c-0.5-3.1-1.9-6-2.9-8.9c3.2,2.6,6,5.7,7.6,9.7c11.2-18.9,28.1-27.5,49.4-28.7
		c-3.2,0.9-6.6,1.5-9.7,2.7c-14.6,5.8-24.6,16.4-31.2,30.5c-3.1,6.6-4.5,13.6-3.4,20.9c0.6,3.7,1.6,7.3,2.4,10.9
		c-3.2-3.1-6-6.8-8-11.2c-7.8,13.3-20,20.7-27.6,16.7c3.6-0.6,7-1.9,9.7-4.2C450.2,524.6,454.1,511.5,451.7,496.3z"/>
	<path class="st0" d="M286.7,467.3c0.1,0,0.3,0.1,0.4,0.1c-0.1,0.1-0.2,0.2-0.4,0.3C286.8,467.6,286.7,467.5,286.7,467.3z"/>
	<path class="st0" d="M264.8,559.6c0,0.5,0,1,0,1.7c12.3-1,24.3-3.1,35.9-7.1c16.6-5.7,32.1-13.5,44.5-26.4c0.1-0.1,0.2-0.2,0.2-0.3
		c0.3-0.3,0.6-0.6,0.9-0.9c0.1,0.1,0.2,0.1,0.2,0.2c-0.3,0.3-0.5,0.6-0.8,0.9c-0.1,0.1-0.2,0.2-0.3,0.4c-0.8,0.9-1.5,1.9-2.3,2.7
		c-10.6,11.1-23.5,18.7-37.6,24.4c-11.1,4.5-22.6,6.9-34.5,7.9c-2.8,0.2-5.6,0.3-8.4,0.4c-0.5,0-1.5-0.7-1.5-1
		C261,561.3,263.3,559.6,264.8,559.6z"/>
	<path class="st0" d="M171.6,534c1.2,0.6,2.5,1.1,3.7,1.7c2.1,1.2,3,2.8,2.7,5.4c-0.3,2.3-0.2,4.7,0.4,7c1.8,7.3,6.2,13,12.1,17.5
		c6.3,4.9,13.5,8,21.2,9.7c1.5,0.3,2.3,0.9,2.7,2.5c0.4,1.6,1.1,3.1,1.9,4.6c4.2,8.4,11.3,13.5,19.7,17c2.4,1,4.9,1.7,7.4,2.6
		c-0.7,7.8,0.2,16.3,2.3,22.3c0.1-0.5,0.2-0.9,0.3-1.3c0.9-3.1,1.6-6.2,2.8-9.1c1.6-3.9,4-7.3,7.9-9.2c1.1-0.5,2.3-0.8,3.7-1.3
		c-8.5,16.3-8.1,37-4.8,50.8c0.6-10.1,3.8-19.2,10.3-27.5c0,0.7,0,1,0,1.2c-0.1,5.4,1.4,10.5,3.7,15.4c2.9,6.2,7.4,11.1,12.1,16
		c4.9,5.2,9.9,10.4,14.5,15.9c3.8,4.4,6.9,9.4,8.2,15.1c0.6,2.8,0.8,5.7,1.2,8.5c7.1-9.6,10.1-20.8,10.7-32.8
		c2.8,7.8,7.9,14,13.4,19.9c5.7,6.1,11.6,12,16.9,18.4c3.5,4.1,6,9,9,13.6c0.2,0.3,1,1.1-0.3,1.1c2.6,2.7,3.4,6.2,4.1,9.7
		c1.4,7.3,1.2,14.6-1.3,21.7c-0.1,0.3-0.2,0.7,0.1,1.3c2.1-2.1,4.3-4.1,6.2-6.3c5.1-5.8,9.3-12.3,13.3-18.9c0.6-1,1.4-1.9,2.2-2.8
		c0-0.3-0.1-0.6,0-0.9c1.4-3,2.8-6,4.1-9.1c1.5-3.7,2.7-7.4,4.1-11.2c0.3,3.8,0.3,7.6,1.1,11.2c0.7,3.6,2.2,7.1,3.3,10.6
		c1.8,4.1,5,7,8.2,10c0.9,0.8,1.8,1.6,2.8,2.2c0.3,0.2,1.3-0.1,1.4-0.3c1-4.4,3.1-8.3,5.3-12.2c0.8-1.2,1.6-2.5,2.5-3.7
		c6.3-8.2,14.5-13.8,23.8-17.9c6.2-2.8,12.7-5.2,18.8-8.4c11.4-5.9,21.3-13.7,27.4-25.5c0,0,0.2,0,0.4,0c-0.5,2.4-0.8,4.9-1.4,7.3
		c-1.8,7.1-5.3,13.3-9.9,18.9c-0.1,0.1-0.2,0.2-0.3,0.4c-0.1,0.1-0.2,0.2-0.3,0.3c0.2,0,0.3,0,0.5,0l0,0c0.1-0.1,0.2-0.2,0.3-0.3
		c8.7-6,17-12.6,24.3-20.2c6.9-7.2,12.2-15.2,14-25.2c0.4-2.4,0.8-4.7,1.3-7.6c2.9,8,7.6,14.3,13.4,19.8c0.6,0.5,1,1.4,1.2,2.2
		c1.4,4.5,3.4,8.6,6.3,12.3c3.2,4.2,7.9,8.3,11,9.5c-1.2-4.3-1.2-7.8,0-12.4c1.7-7.2,4.7-13.9,8.6-20.1c5.9-9.4,12.3-18.5,18.4-27.8
		c0.7-1.1,1.4-2.1,2.1-3.2c0.2,0,0.3,0.1,0.5,0.1c0,3.3,0.2,6.5,0,9.8c-0.2,3.3-0.6,6.6-1.2,9.9c-0.6,3.1-1.6,6.1-2.4,9.1
		c16.9-20.1,24.8-44,28.1-69.8c0.2,0.6,0.4,1.2,0.5,1.8c0.8,4.7,1.6,9.4,2.2,14.1c1,8.6,0.9,17.1-2.1,25.3c0,0.3,0,0.5-0.1,0.8
		c0.1,0,0.1,0,0.2,0c0.1-0.2,0.1-0.4,0.2-0.6c6.8-11.3,10.8-23.6,11.6-36.8c0.7-11.5-0.6-22.9-3.7-34c-0.1-0.3,0.1-0.6,0.1-0.9
		c0,0,0,0,0,0c0.1,0.3,0.2,0.5,0.4,0.8c6,10.5,10,21.7,12.3,33.5c0.6,3.2,1,6.5,1.5,9.8c0.2,0,0.3,0,0.5,0
		c0.1-6.5,0.3-12.9,0.5-19.4c0-1.1,0.3-2.2,0.8-3.2c2.5-5.1,5.3-10,7.6-15.2c6.6-14.7,8.2-30.1,5-45.9c-1.1-5.4-3.2-10.7-4.8-16
		c-0.1-0.2-0.2-0.4-0.3-0.6c0.1,0,0.1-0.1,0.2-0.1c0.1,0.1,0.3,0.3,0.4,0.4c11.2,12.3,18.7,26.4,21.2,43c-0.1-5.1-0.2-10.2-0.7-15.3
		c-1.3-13.3-4.9-26.1-10.5-38.2c-5.4-11.7-12.5-22.1-21.7-31.2c-0.1-0.1-0.2-0.2-0.4-0.3c0-0.2,0-0.4,0-0.5c0,0.1,0.1,0.2,0.1,0.4
		c0.2,0.1,0.3,0.1,0.5,0.2c9.2,5.5,17.8,11.8,25.5,19.2c9.2,9,16.8,19.1,21.5,31.2c1,2.6,1.8,5.3,2.9,8.4
		c-0.3-9.5-1.6-18.4-3.8-27.1c-5.6-22.2-16.4-41.9-29.9-60.4c2.8,1.2,5.5,2.4,8.2,3.5c11.5,4.6,23.4,6.9,35.8,4.3
		c7.2-1.5,13.9-4.2,19.4-9.3c0-0.1,0-0.2,0-0.4c-7.9,0.5-14.8-2.1-20.8-7c-15.9-13.2-27.8-29.4-35-48.7
		c-3.9-10.5-8.3-20.6-16.3-28.6c-5.3-5.3-11.1-9.9-16.7-14.8c-1.5-1.3-3-2.7-4.4-4.1c1.8,0.3,3.2,1,4.8,1.7
		c12.3,5.3,24.9,9.2,38.6,8.4c3.2-0.2,6.3-0.8,9.5-1.2c-2.3-1-4.6-1.7-6.7-2.5c-2.2-0.9-4.3-1.9-6.3-3c-8.2-4.6-14.3-11.4-19.9-18.8
		c-2.7-3.5-5.3-7.1-7.9-10.6c0,0,0,0,0,0c0.4-0.1,0.7-0.1,1.1-0.1c2.8,0,5.6,0.2,8.4,0c3.4-0.3,6.5-1.4,9.6-3.7
		c-5.3,0.2-9.9-1.2-14-3.7c-11.4-6.8-20.6-15.9-26.4-27.8c-8.3-17.1-15.9-34.5-23.9-51.7c-4.1-8.9-8.3-17.7-12.4-26.6
		c-1.6-3.3-3.1-6.5-4.7-9.8c-3.1-6.4-6.2-12.8-9.4-19.1c-3-5.7-6-11.5-9.5-16.9c-4.6-7.1-9.9-13.8-17.2-18.4
		c-9.6-6.1-22.5-4.1-29.5,6.4c-4,6-6,12.9-7.9,19.7c-0.2,0.8-0.5,1.6-0.8,2.5c-0.3,1.5-0.7,3.1-1,4.6c-1.2,5.5-3,10.9-5.4,16
		c-7,14.7-17.6,25.3-33.1,31c-3.6,1.3-7,3.6-10.3,5.6c-1.3,0.8-2.3,2-3.6,3.2c1.7-7,5.6-12.3,11.3-16.9c-1.8,0.2-3.1,0.3-4.4,0.6
		c-9.2,1.7-17.4,5.8-24.8,11.6c-0.9,0.7-1.6,0.8-2.5,0.1c-3.6-2.8-7.5-5.3-10.9-8.3c-7.6-6.6-14.9-13.5-22.5-20.1
		c-11.9-10.4-25.3-18.8-38.8-26.9c-0.6-0.4-1.1-0.9-1.7-1.3c-1.3-0.7-2.7-1.3-4-2.2c-7.8-5.3-15.6-10.7-23.4-16
		c-6.5-4.5-13.1-9-20.7-11.3c-5.3-1.6-10.3-1.2-14.7,2.5c-2.4,2.1-3.7,4.9-4.8,7.8c-2,5.1-2.9,10.5-3.1,15.9
		c-0.2,7.5-0.3,14.9-0.3,22.4c0,2.4,0.5,4.9,0.6,7.3c0,1.1-0.4,2.2-0.6,3.3c0.8-0.3,0.9,0.1,1,0.8c0.6,6.3,1.1,12.6,1.8,18.9
		c0.9,8.3,1.8,16.5,2.9,24.8c1.2,9.3,2.4,18.5,3.7,27.8c1.3,9.3,2.6,18.5,4,27.8c0.7,4.9,1.6,9.8,2.4,14.8c-5.4,2-10.8,2.5-16.8,0.7
		c4.2,4,9,5.5,14.1,6.2c5.1,0.7,10.1,0.3,15.2-0.6c-12.9,8.4-27.2,12.1-42.6,11.7c4.9,2.6,10,4.5,15.4,5.4
		c5.4,0.9,10.9,0.9,16.3,0.2c-0.6,0.5-1.3,0.8-1.9,1.2c-4.2,2.6-8.6,5.1-12.7,7.9c-11.8,8-20.1,18.6-23.7,32.7
		c-0.5,1.9-0.8,3.9-1.1,5.9c-0.3,1.9-0.5,3.9-0.7,5.8c4.4-7.7,11.1-12,19.2-14.5c1.3-0.4,2.7-0.3,4.1-0.4c-0.5,0.3-1,0.5-1.4,0.8
		c-6.6,4.7-11.5,10.8-14.5,18.2c-2.2,5.2-3.5,10.7-4.9,16.2c-2,7.7-6.7,12.5-14.4,14.2c-1.9,0.4-3.9,0.4-6.1,0.6
		c7.9,6.1,16.5,7.1,26,4.9c-1.6,3.3-2.9,6.3-4.5,9.1c-3.1,5.8-6.9,11-13.5,13.5c4,2.6,8.3,2.9,12.7,2.1c3.5-0.7,6.8-1.9,10.2-2.9
		c0.2-0.1,0.4-0.2,0.6-0.3c0,0.1,0.1,0.1,0.1,0.2c-0.1,0.1-0.3,0.3-0.4,0.4c-2.9,3.1-4.7,6.8-4.8,11.1c-0.1,2.9,0.1,5.9,0.6,8.7
		c0.3,1.5-0.1,2.3-1.2,3.2c-15.2,13.2-30.3,26.4-45.5,39.5c-3.9,3.4-7.8,6.9-12.6,9.3c-5.4,2.7-10.1,6.4-14.3,10.7
		c-3.4,3.5-6.3,7.3-7.8,12C164.4,527.4,166.2,531.5,171.6,534z M617.1,293.7C617.2,293.6,617.3,293.5,617.1,293.7
		C617.1,293.7,617.1,293.7,617.1,293.7z M263.9,388.9c1.4,3.3,2.8,6.8,4.4,10.2c1.2,2.5,2.6,4.8,4,7.2c1.8,3.1,1.9,6.3,0.2,9.4
		c-2.9,5.1-6,10.1-9.2,15.3C256,421.8,256.7,397.6,263.9,388.9z M264.7,479.5c0.2,0,0.4,0,0.5,0.1c0,0.1,0,0.1,0,0.2
		c-0.2,0-0.4,0-0.5-0.1C264.7,479.6,264.7,479.6,264.7,479.5z M277.7,395.4c0.5,0.4,1,1.2,1,1.7c-0.1,1.3-0.5,2.7-0.9,4.2
		c-5.8-3.4-8.9-8.2-9.3-14.8c2.9-0.4,3.1-0.3,3.4,1c0,1.9,0.3,2.7,1.1,3.6c0,0,0,0,0,0c0.1,0.1,0.3,0.3,0.4,0.4
		c0.1,0.1,0.2,0.2,0.4,0.4c0.3,0.2,0.5,0.5,0.8,0.7c0.1,0.1,0.1,0.1,0.2,0.2h0C275.8,393.6,276.8,394.5,277.7,395.4z M275.2,390.8
		c-1.1,0-1.9-0.9-1.9-1.9c0-1.1,0.9-1.9,1.9-1.9c1.1,0,1.9,0.9,1.9,1.9C277.1,389.9,276.2,390.8,275.2,390.8z M262.2,350.3
		C262.2,350.3,262.2,350.3,262.2,350.3c0-0.1-0.1-0.1-0.1-0.2C262.1,350.1,262.1,350.2,262.2,350.3z M366.7,228.2
		c0,0-0.1,0.1-0.1,0.1c0,0-0.1-0.1-0.1-0.1c0,0,0.1-0.1,0.1-0.1C366.6,228.2,366.6,228.2,366.7,228.2z M512.7,119.3
		c-2,0.5-3.9,0.5-5.2,1.4c-2.4,1.7-4.8,3.6-6.7,5.8c-3.7,4.5-5.7,9.9-7.2,15.5c-2.3,9-3,18.1-3.1,27.3c-0.1,9.7-2.7,18.5-8.6,26.3
		c-5.4,7.2-11.7,13.5-17.9,20.1c-5.9,6.3-12.2,12.5-17.2,19.4c-8.9,12.2-10.8,25.8-4.7,40c0.1,0.2,0,0.4,0.1,1.1
		c-0.4-0.7-0.6-1.1-0.8-1.4c-0.3-0.6-0.6-1.2-0.9-1.9c-5.4-12.9-4.2-25.3,2.9-37.3c4.3-7.3,10.3-13.2,16-19.4
		c5.7-6.1,11.4-12.1,16.9-18.4c6.5-7.5,10.3-16.3,11.1-26.2c0.5-5.8,0.9-11.6,1.4-17.4c0.6-6.7,1.9-13.3,4.5-19.5
		c1.9-4.6,4.2-9.1,7.9-12.7C504.4,119.1,508,117.6,512.7,119.3z M560.2,253.8c0,15-1.7,29.9-4.6,44.6c-0.9,4.3-1.8,8.7-2.7,13
		c-0.7-13.9-3.1-27.4-8.5-40.2c-0.3,3.6-0.5,7.1-0.8,10.7c-0.6,7.9-1.1,15.9-2.1,23.8c-0.6,4.8-2.7,9.1-6.6,12.3
		c-2.1,1.7-4.8,2.8-6.6,2.7c2.9-1.6,5-4,5.7-7.2c0.8-3.3,1.5-6.7,1.6-10.1c0.5-9.2,0.7-18.5,1.1-27.7c0.1-2.4,0.4-4.8,0.6-7.2
		c-0.2-0.1-0.3-0.1-0.5-0.2c-2.3,5.4-4.7,10.9-6.9,16.2c-0.8-4.6-0.7-9.6,0.5-14.3c2.1-8.7,4.5-17.3,7.2-25.8
		c4.3-13.6,6.1-27.3,3.2-41.4c-0.9-4.6-2.5-9.1-4.8-13.3c1.4,9.9,0.5,19.5-1.7,28.5c-0.5-5.1-0.7-10.8-1.7-16.3
		c-1-5.5-2.5-11-4.5-16.2c-2-5.3-4.6-10.4-7.4-15.2c-3.7-6.3-8.8-11.8-11-12.7c0.1,0.4,0.2,0.7,0.3,1c2,5.9,3.1,12,3.2,18.2
		c0.3,12-3.1,23.1-8.4,33.7c-4.6,9.3-10.3,18-16.8,26.2c-0.1,0.1-0.2,0.2-0.3,0.3c-0.1,0.1-0.2,0.2-0.3,0.3
		c-0.1,0.1-0.2,0.2-0.3,0.3c-0.1,0.2-0.1,0.3-0.2,0.5c0.1-0.1,0.3-0.2,0.4-0.3c0.1-0.1,0.2-0.2,0.4-0.3c0.1-0.1,0.2-0.2,0.4-0.3
		c0.1-0.1,0.2-0.2,0.4-0.3c9-8.2,18.1-16.3,25.9-25.9c-0.5,3.6-2,6.5-4.1,9.1c-2.6,3.4-5.3,6.6-7.9,10c-6.6,8.2-12,17-15.3,27.1
		c-0.1,0.4-0.1,0.9-0.1,1.3c4.7-8.7,11.6-15.2,19.7-20.6c0.4-0.3,0.7-0.5,1.1-0.8c0.1,0.1,0.1,0.2,0.2,0.2c-0.3,0.3-0.6,0.6-1,0.9
		c-0.3,0.4-0.5,0.8-0.8,1.1c-6.8,8.8-12.2,18.3-15.4,29c-0.1,0.2-0.1,0.5-0.2,0.7c0.1,0,0.1,0.1,0.2,0.1c0.1-0.2,0.2-0.4,0.3-0.6
		c5.1-7.3,11.4-13.4,18.8-18.3c-9,12.4-14.3,26.1-15.4,41.4c3.6-12.2,12.1-21.7,17.6-25.2c-0.2,0.3-0.2,0.5-0.4,0.7
		c-10,16.5-13.3,34-8.8,52.9c0,0.2,0.1,0.5,0.1,0.7c-0.1,0-0.1,0-0.2,0c-0.1-0.2-0.1-0.4-0.2-0.6c-0.4-0.6-0.8-1.1-1.1-1.7
		c-4.7-8.6-11.5-15.1-20-19.9c-5.1-2.9-8.7-7-10.9-12.2c-5.6-13.4-4.3-26.3,3.7-38.5c0.2-0.2,0.3-0.4,0.5-0.6
		c-0.1-0.1-0.1-0.1-0.2-0.2c-0.2,0.2-0.5,0.3-0.7,0.5c-0.5,0.2-1.1,0.4-1.5,0.7c-8.1,4.8-13.7,11.8-16.9,20.6
		c-1.6-2.8-2.1-7.6-1.3-11.8c1.5-7.7,5.5-13.8,11-19.2c0.1-0.1,0.3-0.3,0.5-0.4c0-0.1-0.1-0.1-0.1-0.2c-0.2,0.1-0.4,0.2-0.5,0.3
		c-6,3-10.7,7.4-14.6,13.3c0.7-5.1,2.2-9.5,4.4-13.6c5.2-9.5,13.1-16.3,22.2-21.8c1.5-0.9,2.4-1.9,2.8-3.7
		c1.4-7.2,5.3-13.4,9.4-19.3c7-9.9,11.5-20.8,14.4-32.4c0.9-3.7,1.8-7.3,2.8-11c0.8-2.8,2.6-3.8,5.4-3.1c1.3,0.3,2.6,0.6,3.7,1.4
		c2.9,2.1,5.9,4.1,8.3,6.6c7.8,8.3,13.9,17.7,18.9,27.9c5.1,10.4,9.5,20.9,12.2,32.1C558.4,227.5,560.2,240.5,560.2,253.8z
		 M617.8,452.8c0.2,0,0.4,0,0.6,0c0,0,0,0,0,0c-0.2,0.1-0.4,0.1-0.5,0.2C617.8,452.9,617.8,452.8,617.8,452.8z M606.1,551.4
		c0.1,0,0.2,0,0.4,0c-0.1,0.1-0.1,0.2-0.2,0.2C606.2,551.5,606.2,551.4,606.1,551.4z M317.4,610.5c0-0.1,0.1-0.1,0.1-0.2
		c0,0.1,0.1,0.1,0.1,0.2C317.6,610.5,317.5,610.5,317.4,610.5z M307.1,630.1c1.7-6.6,4.2-12.8,8.9-18c0.2-0.2,0.4-0.5,0.6-0.7
		c0.3-0.3,0.5-0.5,0.8-0.8c-0.2,0.3-0.4,0.7-0.5,1c-0.2,0.3-0.4,0.6-0.5,0.8c-1.9,3.9-4.1,7.7-5.5,11.8c-1.5,4.1-2.4,8.4-3.2,12.6
		c-0.7,4.2-1,8.5-1.4,12.7C305.3,643,305.5,636.5,307.1,630.1z M221.2,560c6.1-2.2,11-5.6,15.3-9.6c6.8-6.3,12.5-13.4,15.4-22.4
		c2-6.2,1.7-11.4-4.5-16c2.1-0.9,4.2-1.8,6.2-2.8c8-3.9,14.9-9.2,20.3-16.4c0.2-0.2,0.4-0.4,0.6-0.6c0.2-0.2,0.4-0.5,0.5-0.7
		c-0.1-0.1-0.3-0.3-0.4-0.4c-0.1,0.3-0.3,0.5-0.4,0.8c-0.2,0.2-0.5,0.4-0.7,0.6c-0.5,0.4-1,0.7-1.5,1.1
		c-8.2,6.2-17.1,10.4-27.6,10.5c-2.7,0-5.3-0.2-8-0.3c0.5-0.5,1-0.6,1.5-0.7c10.1-2.7,19.3-7.3,27.9-13.2c8.5-5.9,15.5-13.3,21-22
		c-0.4,0.3-0.9,0.4-1.2,0.8c-5.2,5.1-11.2,8.7-18.2,10.7c-0.5,0.2-1.1,0.2-1.7,0.3c1.1-1,2.4-1.5,3.5-2.3
		c5.1-3.7,10.2-7.4,15.2-11.2c6.3-4.9,13.1-8.4,21.4-7.9c1.4,0.1,2.8,0.4,4.3,0.7c-3.9-3.9-8.4-6.6-14.1-6.9
		c-3.6-0.2-6.7,1.3-9.7,2.9c-3.6,2-7.3,4.1-10.9,6.2c-0.2,0.1-0.4,0.3-0.6,0.4c-0.2,0.1-0.3,0.1-0.5,0.2c-0.2,0.1-0.4,0.2-0.5,0.3
		c0-0.1-0.1-0.1-0.1-0.2c0.2-0.1,0.3-0.2,0.5-0.3c0.1-0.1,0.3-0.2,0.4-0.3c0.2-0.2,0.4-0.3,0.6-0.5c10.8-8.5,21.6-16.9,32.9-25.7
		c-1.6,0-2.7-0.2-3.7,0c-2.2,0.6-4.3,1.5-6.5,2.2c-0.2,0.1-0.4,0.3-0.6,0.4c-0.1,0-0.3,0.1-0.4,0.1c0.1-0.1,0.1-0.2,0.2-0.3
		c0.2-0.2,0.3-0.3,0.5-0.5c3.9-3.5,7.8-7.1,11.8-10.5c4.6-3.9,9.3-7.6,14.8-10.2c0.2,0,0.3,0,0.5,0c-0.1,0.1-0.2,0.2-0.3,0.3
		c-0.4,0.5-0.9,0.9-1.3,1.4c-3.1,3.2-5.8,6.7-7.6,10.8c0,0.1-0.1,0.3-0.1,0.4c0.1-0.1,0.2-0.1,0.3-0.2c7.4-5.1,19.1-6.1,24.1-5.2
		c-1.5,0.6-3.2,1-4.6,1.9c-8.1,4.9-13.8,11.8-16.1,21.2c-1,3.9-1.2,7.9,0.3,11.7c0.2-2.4,0.1-4.8,0.6-7.1
		c1.5-6.1,5.7-10.4,10.7-13.8c6.2-4.3,13.2-6.8,20.6-8.3c3.1-0.6,5.3-2,6.4-5c0.2-0.4,1-0.6,1.5-0.9c2.5,0,5.1,0,7.6,0
		c8.7-0.3,16.9-2.1,24.5-6.5c2.6-1.5,5.2-3,7.7-4.5c4.5-2.7,9.4-3.9,14.6-3.7c6.9,0.3,13.6,1.7,19.7,5c6.1,3.3,12,6.9,18,10.4
		c4,2.3,8.1,4.5,12.1,6.8c7.6,4.3,15.7,5.9,24.8,4.3c-4.1-0.6-7.6-1.3-10.7-3.5c8.3,1,15.8-1.3,23.6-4.8c-0.7,0-0.8,0-1,0
		c-11.9,2-21.9-1.4-29.6-10.6c-3.5-4.2-6.5-8.9-9.6-13.4c-9.3-13.5-20.6-25.1-34.6-33.9l0,0c-0.1-0.1-0.3-0.1-0.4-0.2c0,0,0,0,0,0
		c-0.1,0-0.3-0.1-0.4-0.1c0.1,0.1,0.1,0.2,0.2,0.3v0c0.1,0.1,0.2,0.2,0.3,0.4c0.4,0.5,0.8,1,1.2,1.4c4.9,5.6,8.6,11.9,11.3,18.8
		c0.1,0.2,0.1,0.4,0.2,0.6c-0.2-0.1-0.3-0.2-0.5-0.3c-3.5-2.8-6.8-5.8-10.4-8.5c-6.5-4.8-13.6-8.5-21.8-9.8
		c-2.9-0.4-5.9-0.5-9.2-0.8c3.6-2.3,6.8-4.5,10.2-6.4c3.4-2,6.9-3.9,10.5-5.5c3.7-1.6,7.4-3.1,11.3-4.2c3.8-1.1,7.6-2,11.5-2.7
		c3.8-0.6,7.7-0.9,12-1.3c-3.6-0.2-6.7-0.6-9.9-0.6c-10.5-0.2-21,0.6-31.3,2.7c-10.8,2.2-21.5,4.7-31.4,9.9
		c-0.2,0.1-0.4,0.1-0.7,0.1c-0.4,0.3-0.7,0.6-1.1,0.8c-6.2,3.6-11,8.6-14.4,14.9c-2.2,4.2-4.5,8.4-6.7,12.6
		c-0.8,1.6-1.5,3.3-2.3,5.1c1.9-0.1,3.6-0.2,5.2-0.3c-2.6,2.9-5.3,5.5-8.1,8c-3.9,3.4-8.2,6.2-13.1,8c-0.7,0.3-1.8,0.4-2.3,0
		c-5.4-3.2-9.6-7.6-12.2-13.4c-3.3-7.4-3.1-14.9-1.3-22.5c0.5-1.8,0.8-3.6,1.5-5.3c4.3-11.1,11.2-20.2,21-27
		c0.2-0.1,0.3-0.2,0.5-0.3c0-0.1-0.1-0.1-0.1-0.2c-0.2,0.1-0.4,0.2-0.6,0.3l0,0c-6.7,2.1-13,5.1-18.7,9.3
		c-8.1,6-14.6,13.6-19.7,22.3c-0.1,0.2-0.2,0.4-0.3,0.5c-0.1,0-0.1-0.1-0.2-0.1c0.1-0.2,0.2-0.4,0.3-0.7c2.5-7.7,5.9-14.9,9.9-21.9
		c7.6-13.4,16.9-25.4,28.6-35.5c0.1-0.1,0.3-0.2,0.4-0.3c-0.1-0.1-0.1-0.1-0.2-0.2c-0.2,0.1-0.3,0.1-0.5,0.2c0,0,0,0,0,0
		c-28.4,15.3-46.8,38.8-56.9,69.3c0-1.7,0-3.4,0.3-5c1.7-9.7,3.5-19.3,5.2-28.9c0.7-3.7,1.2-7.4,1.9-11.2c-0.9,2.6-1.9,5.2-2.7,7.9
		c-1.8,6.1-3.4,12.3-5.1,18.5c-1.8,7.4-3.6,14.9-5.4,22.4c-3.3-3.2-6.1-6.2-9.3-8.8c-3.2-2.6-6.8-4.6-10.2-7
		c-0.4-0.3-0.7-1.2-0.6-1.7c0.4-2,0.9-4,1.6-5.9c1.1-3.1,2.2-3.5,5.2-1.8c0.5,0.3,1,0.6,1.4,1c2.8,2.3,4.6,5.4,5.8,8.8
		c0.8,2.4,1.4,4.8,2.2,7.6c0.2-9.6-1.5-17.8-10.6-22.7c0.4-1,0.8-2.1,1.3-3.1c0-0.3,0-0.6,0.1-0.8c4-13.4,11.1-25.1,20.1-35.7
		c6-7,12.9-13,20.7-18c0.2-0.1,0.4-0.2,0.6-0.4c-0.3,0-0.5,0.1-0.8,0.1c0,0,0,0,0,0c-7.2,2.4-13.3,3.4-15.8,2.7
		c12.7-10,25.9-19.3,42.5-23.4c-11.5-3.4-22.6-4.2-34-2.5c3.3-1.9,6.6-3.7,10-5.3c6.2-2.9,12.5-5.5,18.6-8.4
		c5.6-2.7,10.3-6.4,13.8-11.6c4.5-6.8,5.4-14.2,3.4-22c-0.2,5.7-2.8,10-7.2,13.3c-0.1,0.1-0.2,0.2-0.4,0.3c-0.1,0-0.3,0.1-0.4,0.1
		c0.1-0.1,0.1-0.2,0.2-0.3c0.1-0.1,0.2-0.3,0.3-0.4c0.6-1.4,1.4-2.8,1.8-4.3c3.2-10.3,1.8-20.1-3.8-29.1c-3.1-4.9-6.8-9.5-10.7-13.9
		c-9.3-10.7-16.5-22.6-20.6-36.3c-0.9-3.1-1.9-6.3-3.1-9.3c-4.4-10.9-11.3-20.4-18-30.3c0.2,5.7,0.3,11.3,0.7,16.9
		c0.7,9.1,2.2,18.1,5.3,26.8c3.3,9,8.4,17.1,13.6,25.1c6.2,9.6,12.6,19,18.8,28.7c4.1,6.5,6.9,13.5,7.3,21.3
		c0.2,3.2,0.2,6.3-1.5,9.2c0-0.3-0.1-0.6,0-1c0.8-5.5-0.2-10.7-1.9-15.9c-2.7-7.9-7-14.8-11.8-21.5c-5.1-7-10.3-14-15.3-21
		c-6.8-9.7-12.5-20-15.6-31.5c-1.8-6.5-2.6-13.3-4.1-19.9c-0.8-3.5-1.9-7-3.4-10.2c-1.2-2.6-3.4-2.5-4.9-0.1c-1,1.8-1.9,3.7-2.3,5.7
		c-1,6.4-2,12.8-2.5,19.2c-0.9,12.2-0.4,24.5,1.6,36.6c2,11.9,4.6,23.6,6.9,35.4c1.3,6.5,2.4,13.1,3.6,19.6c1.4,2.5,2.8,5.1,4.3,7.5
		c2.8,4.6,5.6,9.2,8.3,13.8c0.6,1,0.9,2.2,1.4,3.3c0.2-2.3,0.3-4.6,0-6.8c-0.9-6.4-3.7-12.1-7.1-17.4c0.4,0.2,0.9,0.3,1.2,0.5
		c3.6,3,6.5,6.7,8.8,10.8c0.1,0.2,0.1,0.4,0.2,0.6c0.1,0,0.1,0,0.2,0c0-0.3-0.1-0.5-0.1-0.8c-1-3.9-2-7.7-3-11.8
		c2.4,1.5,4.7,2.9,7.1,4.3c0.2,0.1,0.3,0.1,0.5,0.2c-0.1-0.2-0.2-0.3-0.3-0.5c-2-2.7-4.1-5.4-6.1-8.1c0-0.2,0-0.3-0.1-0.5
		c0.1,0.1,0.2,0.2,0.3,0.2c0.5,0.3,1.1,0.5,1.6,0.8c0.1,0.1,0.2,0.2,0.2,0.3c0-0.2,0-0.3,0-0.5c-2.2-3.2-4.5-6.4-6.7-9.5
		c0.1-0.1,0.2-0.1,0.3-0.2c2.1,1.7,4.3,3.4,6.4,5.1c0.1,0.1,0.2,0.1,0.3,0.2c0-0.1-0.1-0.3-0.1-0.4c-2.1-3.6-4.3-7.2-6.3-10.8
		c-0.8-1.5-1.2-3.2-1.8-4.8c0.3,0.2,0.7,0.5,1,0.7c2.6,2.2,5.2,4.4,7.8,6.6c0.2,0.2,0.4,0.4,0.6,0.6c0.1,0,0.1-0.1,0.2-0.1
		c-0.1-0.3-0.3-0.5-0.4-0.8c-3.8-6-7.5-12-11.3-18c5.1,3,8.9,4.7,10.9,4.6c-4.2-3.4-7.9-7.2-11-11.7c-6.1-8.9-9.7-18.5-9.8-29.4
		c0-3.7,0.5-7.3,2.7-10.5c2,3.8,3.9,7.5,6,11.1c5.3,9.2,10.2,18.6,14.1,28.4c0.2,0.5,0.6,1.2,0.4,1.4c-1.7,2.1-0.1,3.7,1,5.2
		c2.2,3,4.7,5.9,7.1,8.9c3.7,4.4,7,9.1,9.2,14.5c0,0.1,0.1,0.3,0.1,0.4c-0.1-0.1-0.3-0.1-0.4-0.2c-2.9-3.3-5.9-6.5-10.2-8.9
		c6.8,10,9.4,20.5,7.5,32.1c-0.2-0.2-0.3-0.4-0.3-0.6c-1.9-7-5.6-12.7-11.6-16.9c-0.1,0.1-0.2,0.2-0.3,0.3c1.3,2.2,2.7,4.3,3.8,6.5
		c2.4,4.8,3.7,9.9,3.3,15.3c-0.1,1.3-0.6,2.5-1,4.2c-3.6-5.9-6.5-9.3-8.8-10.5c0.7,3.2,1.4,6.8,2.1,10.3c0.4,2.2-0.1,3.9-2.2,5
		c-0.8,0.4-1.5,1.1-2.2,1.7c-3.2,2.7-6.4,5.3-9.8,8.1c-1.3-4.2-2.7-8.2-3.8-12.4c-2.7-9.8-5.2-19.6-7.8-29.3
		c-0.1-0.4-0.2-0.7-0.3-1.1c0-0.2-0.1-0.4-0.1-0.6c-0.1-0.3-0.3-0.5-0.3-0.8c-1.2-6.1-2.4-12.1-3.6-18.2
		c-3.5-17.6-7.2-35.2-9.1-53.1c-0.9-8.4-1.4-16.7-0.3-25.1c0.8-5.8,2.4-11.3,5.5-16.4c4.3-7,11-8.2,17.4-3.6
		c2.7,1.9,5.1,4.3,7.2,6.9c3.6,4.5,7.1,9.2,10.2,14c4.9,7.5,8.3,16,14.7,22.4c3.4,3.5,7,6.8,10.6,10c2.1,1.9,4.5,3.4,6.7,5.1
		c-5.1-1.6-9.8-4.1-13.9-7.5c-0.1-0.1-0.3-0.2-0.4-0.3c-0.1-0.1-0.2-0.2-0.2-0.2c0,0.1,0.1,0.2,0.1,0.3c0.1,0.2,0.1,0.3,0.2,0.5
		c0,0,0,0,0,0c4.5,6.5,9.1,13,13.6,19.4c-3.4-2.1-6.6-4.2-9.6-6.8c-4.8-4.2-9.4-8.6-14.1-12.9c-0.1-0.1-0.2-0.1-0.3-0.2
		c0,0.1,0.1,0.3,0.1,0.4c0,0,0,0,0,0c2.8,6.5,6.9,12,11.8,17.1c6.2,6.4,12.5,12.7,18.5,19.3c6.8,7.4,12.4,15.7,15.2,25.5
		c3.2,11.1,1.2,21.1-7.7,29c-3.1,2.7-6.8,4.7-10.2,7c-1.2,0.8-2.5,1.3-3.7,2c0,0.1,0.1,0.3,0.1,0.4c3.4-0.6,6.8-1.1,10.1-1.9
		c6.7-1.7,12.7-4.6,17-10.1c6.5-8.2,8.2-17.4,4.6-27.4c-0.1-0.2-0.2-0.5-0.2-0.7c0.1,0,0.1,0,0.2-0.1c0.1,0.2,0.2,0.4,0.3,0.5
		c0.5,1.1,1.1,2.1,1.6,3.2c4.6,11.5,3.1,21.2-5.4,29.7c-2.1,2.1-4.3,4-6.4,6c-1.7,1.7-3.1,3.8-3.1,6.3c0,1.3-0.5,2.1-1.2,3
		c-9.8,11-18,23-24.5,36.2c-0.9,1.9-1.6,3.9-2.5,5.8c0.9-1.1,1.8-2.1,2.7-3.2c10.9-12.4,22.9-23.7,36.2-33.6c1.4-1.1,2.2-2.4,2.8-4
		c2.3-5.9,5.5-11.3,9.9-15.8c3.5-3.6,7.1-7.2,11-10.4c5.7-4.7,11.7-9,17.6-13.5c0.1-0.1,0.2-0.2,0.3-0.2c0.2,0,0.3,0,0.5-0.1
		c-0.1,0.1-0.1,0.2-0.2,0.3c-0.1,0.1-0.2,0.2-0.3,0.4c-0.4,0.5-0.8,0.9-1.3,1.4c-4.7,4.9-8.9,10.1-11.7,16.3
		c-6.5,13.9-3.3,27.2,8.9,36.6c1.4,1.1,3,2,4.5,3.1c-5.6-0.8-10.6-2.7-14.5-7.8c0.2,0.9,0.3,1.3,0.4,1.6c2.3,5.9,6.2,10.3,11.9,13
		c1.1,0.5,1.9,1.2,2.4,2.5c2.3,5.6,5.7,10.5,9.7,14.9c0.1,0.1,0.3,0.1,0.4,0.2c0-0.2-0.1-0.4-0.1-0.5l0,0c-1.5-3-3.3-5.9-4.3-9.1
		c-1.6-4.9,0.1-8.4,4.7-10.8c0.4-0.2,0.8-0.4,1.3-0.8c-1-0.4-1.8-0.8-2.9-1.2c1.2-0.3,2.2-0.7,3.2-0.8c3.9-0.4,7.9-0.7,11.9-1
		c-2.4-0.8-4.9-1.6-7.3-2.4c4,0.1,8,0.2,12,0.8c4,0.6,7.9,1.6,11.8,2.5c-1.6-1.1-3.2-2.2-5-2.9c-7.2-2.9-14.5-5.7-21.8-8.6
		c-4.8-1.9-9.6-3.9-13.6-7.2c-3.3-2.7-4.9-6.1-5-10.3c-0.2-8.9,3.3-16.6,7.9-24c0.1-0.2,0.2-0.3,0.2-0.5c0.1-0.2,0.2-0.3,0.4-0.5
		c0.1,0,0.1,0.1,0.2,0.1c-0.1,0.2-0.2,0.4-0.3,0.6c-0.1,0.2-0.1,0.3-0.2,0.5c-0.2,0.5-0.4,1-0.6,1.4c-6.8,15.8,3.6,33.4,20.7,35
		l0.1-0.1c-0.5-0.3-1-0.7-1.6-1c-6.8-3.9-11.3-9.4-12.8-17.2c-0.9-5.1-0.5-10.1,0.7-15c2.5-10.4,7.9-19.3,14.5-27.5
		c6.8-8.4,14.8-15.8,22.8-23c11.4-10.2,20.6-21.9,24.3-37.1c0.3-1,0.6-2.1,0.8-3.1c0.1,0,0.3,0.1,0.4,0.1c-0.3,2-0.5,4-0.9,5.9
		c-2.8,12.4-9.2,22.8-18.1,31.7c-5.5,5.4-11,10.8-16.4,16.3c-14.2,14.6-19.9,31.9-15.9,52.1c2.6,13.1,9.4,23.5,21.5,29.8
		c4.4,2.3,9.3,3.9,14,5.7c4.2,1.6,8.5,3.2,12.8,4.8c-14.3,0.9-28.1,5.6-42.5,4c0.7,0.4,1.3,0.7,2,0.9c8.8,2.6,17.6,5.2,26.4,7.9
		c8.3,2.5,16.6,4.8,24.7,7.8c11.5,4.3,21,11.8,30.3,19.7c10.5,8.9,21.1,17.8,32,26.1c11.9,9,24.9,16.3,39.2,20.9
		c0.4,0.1,0.8,0.3,1.1,0.4c0.3,0.1,0.7,0.1,1.3,0.2c-5.8-5.2-9.8-11.2-13-17.8c0-0.2-0.1-0.4-0.1-0.5c0.1,0.1,0.3,0.1,0.4,0.2
		c0.9,0.8,1.7,1.6,2.6,2.3c5.9,4.8,11.9,9.6,17.8,14.4c1.8,1.4,3.3,3.1,5.1,4.8c-0.3-1.8-0.6-3.5-1-5.2c-3-11.3-7.7-21.8-14.4-31.5
		c-0.1-0.1-0.1-0.2-0.2-0.3c0.1,0,0.3,0,0.4,0.1c4.5,2.9,9.3,5.5,13.6,8.7c6.3,4.7,11.5,10.5,15.9,17c0,0,0.1-0.1,0.1-0.1
		c-3.3-24.5-18.1-37.9-41.4-43c3.8,0,7.8-0.4,11.7,0.1c11.5,1.3,20.9,6.5,28.2,15.5c5.4,6.7,8.6,14.5,11,22.6
		c3.1,10.4,7.9,19.7,15.5,27.4c2,2,4.2,3.9,6.5,6c-4.1-0.8-7.6-2.5-10.9-4.6c-6.8-4.3-12.6-9.8-18.1-15.5
		c-6-6.2-12.1-12.4-18.2-18.5c0,0.3,0,0.5,0.1,0.7c5.1,9.6,8.1,19.9,10.1,30.6c0.6,3.1,0.9,6.3,1.4,9.4c-0.6,0-0.7-0.2-0.9-0.3
		c-9.8-9.2-21.3-14.8-34.7-16.6c-18.7-2.6-35.9-9.5-51.8-19.4c-8.8-5.5-17.5-11.2-26.2-16.9c-0.2-0.1-0.4-0.3-0.6-0.4
		c-0.1-0.1-0.3-0.1-0.4-0.2c0.1,0.1,0.2,0.2,0.3,0.3c0.2,0.2,0.3,0.4,0.5,0.6c0,0,0,0,0,0c3.8,3.5,7.4,7.2,11.5,10.4
		c14.3,11.4,29.8,20.9,47.1,27c4.4,1.6,8.8,3.1,13.4,4.7c-0.6,0.2-0.9,0.3-1.2,0.3c-1.8,0.2-3.5,0.4-5.3,0.4
		c-14.8-0.2-29-3.4-42.5-9.5c-8.8-4-16.4-9.4-21.6-17.8c-0.1-0.2-0.2-0.4-0.3-0.5c-0.1,0-0.1,0-0.2,0.1c0.1,0.2,0.1,0.5,0.2,0.7
		c0,0,0,0,0,0c1.1,2.5,1.9,5.1,3.2,7.4c8.8,14.5,22.1,22.3,38.4,25.6c1,0.2,1.9,0.3,2.9,0.4c0.9,0.1,1.9,0.2,2.8,0.3
		c-10.5,1.4-20.7,0.5-30.8-2.4c-0.4,5.2,3.8,14.7,8.7,19.7c0.2,0.2,0.3,0.3,0.5,0.5c0.1,0.1,0.2,0.2,0.2,0.4
		c-0.1-0.1-0.3-0.1-0.4-0.2c-0.2-0.1-0.4-0.3-0.6-0.4c-8.8-5.5-13.3-13.7-14.1-24c-6.7,9.8-1.6,28.5,9.8,36c0.9,0.3,1.9,0.5,2.7,0.9
		c13.9,5.4,26.9,12.7,38.9,21.5c14.1,10.3,26.5,22.2,36.9,36.3c-0.2-0.7-0.2-1.5-0.5-2.1c-7.8-15.3-17.7-29.3-29.5-41.8
		c-5.1-5.5-10.6-10.5-17.3-14c12,1.2,21.5,6.4,27.6,17.2c0-0.6-0.1-1-0.2-1.4c-3.6-10.8-11-18.3-21.2-23c-6.8-3.1-13.8-5.7-20.6-8.6
		c-2-0.9-3.9-2.1-5.9-3.1c2.3,0.3,4.5,1,6.7,1.5c10.5,2.6,21.1,3.9,31.9,1.5c5.8-1.3,11.2-3.5,15.9-7.2c-0.2,0-0.4,0-0.6,0
		c-8.2,4-16.8,5.2-25.8,4.7c-3-0.2-6.1-0.8-9.1-1.2c2-0.8,4-1.2,5.8-2c6.7-2.8,11.9-7.5,16-13.5c0.9-1.4,1.7-1.7,3.3-1.2
		c21.6,6.8,40,18.9,56.5,34.2c0.2,0.2,0.3,0.3,0.5,0.5c0.1,0.1,0.2,0.2,0.4,0.3c0.1,0.1,0.1,0.2,0.2,0.3c-0.1,0-0.3-0.1-0.4-0.1
		c-0.1-0.1-0.3-0.2-0.4-0.2c-0.2-0.2-0.4-0.3-0.6-0.5c-5.2-3.6-10.7-6.7-16.8-8.6c0.3,0.5,0.7,0.8,1.1,1.1c5.3,4,10.2,8.5,14.1,14
		c0.1,0.1,0.2,0.2,0.3,0.3c-0.2,0-0.3,0-0.5-0.1c-4.2-2.3-8.4-4.8-12.7-6.9c-10.4-5.1-21.3-8.5-33-9c-2.2-0.1-4.4,0-6.5,0
		c0.7,0.9,1.4,1.4,2.1,2c0.7,0.5,1.3,1.1,1.9,1.7c7.7,7.3,13.7,16,18.2,25.5c9.3,19.4,15.5,39.8,16.1,61.5c0.2,6-0.7,12.1-1.1,18.2
		c0,0.2-0.1,0.5-0.1,0.7c0,0.1-0.1,0.2-0.1,0.2c-0.1-0.1-0.1-0.2-0.2-0.3c0-0.2-0.1-0.4-0.1-0.6l0,0.1c-0.3-0.4-0.6-0.8-0.9-1.2
		c-2.6-3.3-4.9-6.8-7.8-9.9c-11.6-12.7-25.6-21.8-41.5-28.1c-4.4-1.7-8.8-3.3-13.2-4.9c19.4,13.8,32.4,32.3,41.6,53.8
		c-0.4-0.2-0.6-0.6-0.9-0.9c-2.6-3.3-5-7-8-9.9c-14.2-13.7-30.6-24-48.8-31.5c-1.9-0.8-4.2-1.2-6.2-1.1c-7.2,0.7-14.3,1.7-21.5,2.6
		c-6.8,0.9-13.6,1.5-20.4,0.6c-0.5-0.1-1-0.2-1.5-0.2c-0.4-0.1-0.9-0.1-1.3-0.1c-0.1,0.2-0.2,0.4-0.2,0.6c3.2,1.6,6.4,3.6,9.8,4.8
		c4.9,1.8,10.1,2.9,15,4.7c19,6.8,33,19.6,43.7,36.4c3.9,6.1,7.2,12.4,9.5,19.3c0,0.4,0.1,0.7,0.1,1.1c0.1,0,0.2,0,0.2,0
		c-0.1-0.4-0.2-0.8-0.2-1.1c0,0,0,0,0,0l0,0c0-0.2,0-0.3,0-0.5c-1.8-16.4-8.7-30.4-20.6-41.7c-4-3.8-8.6-6.9-13-10.4
		c-0.4-0.2-0.7-0.4-1.1-0.6c0-0.1,0.1-0.2,0.1-0.3c0.4,0.2,0.8,0.4,1.2,0.5c1.7,0.8,3.3,1.5,5,2.3c10.9,5.5,21,12,29.1,21.3
		c5.9,6.8,9.6,14.5,10,23.6c0.5,11.8-2.6,22.7-7.3,33.3c0,0.1-0.2,0.1-0.4,0.3c0.5-6.8-0.4-13.3-2.6-19.6c-4.4-12.7-12.5-23-22-32.2
		c-0.1,0.1-0.2,0.3-0.3,0.4c0.3,0.5,0.6,1,0.9,1.4c5.8,8.2,10.3,17,13.1,26.7c0.9,3,1.6,6.1,2.4,9.1c-11.4-23.9-29.3-42.2-50.1-58.4
		c0.1,0.6,0,0.7,0.1,0.8c0.3,0.4,0.7,0.8,1,1.2c10.5,11.7,19.1,24.6,25.3,39.1c4.9,11.5,8.2,23.3,7,35.9c-0.4,4.8-1.8,9.3-4.2,13.8
		c-0.3-3.2-0.4-6.1-0.9-9.1c-1.3-8.7-4.4-16.8-8.5-24.5c-5-9.5-11.3-18.1-19.5-25.1c-0.1-0.1-0.2-0.2-0.4-0.3
		c-0.1,0.1-0.2,0.2-0.2,0.2c0.1,0.1,0.2,0.2,0.3,0.4l0,0c1,1.3,2,2.5,2.9,3.9c10,14.7,14.4,31.3,15.6,48.8c0.4,6.6,0.6,13.2,1,19.8
		c0.3,4,0.8,8,1.2,12.1c-1.8-3.8-3.5-7.6-4.9-11.6c-5.8-16.6-14.5-31.3-27-43.8c-7.4-7.4-15.4-14.1-24-20.1
		c-0.1-0.1-0.3-0.2-0.4-0.3c-0.3-0.2-0.6-0.5-0.8-0.7c-0.1,0.1-0.1,0.1-0.2,0.2c0.3,0.3,0.6,0.5,0.8,0.8c0.1,0.1,0.2,0.2,0.3,0.3
		c10.5,10.6,18.9,22.6,24.1,36.7c-0.4-0.2-0.6-0.6-0.8-0.9c-2.9-4.2-5.7-8.5-8.6-12.6c-0.9-1.2-2.2-2.2-3.4-3.2
		c0.5,1.1,1,2.2,1.5,3.3c7.5,16.2,12.3,32.9,10.5,51c-0.6,6.1-2.3,11.9-5.1,17.6c-1.8-15.6-7.7-28.9-18.2-40.2
		c-0.1,0.3,0,0.6,0.1,0.8c2.5,8.3,3.1,16.8,0.9,25.3c-3.6,14.2-12.2,24.9-23.5,33.8c-0.1,0.3-0.2,0.5-0.4,0.8
		c-0.1-0.1-0.2-0.2-0.4-0.4c0.1-0.2,0.3-0.4,0.4-0.6c0.4-1.2,1-2.3,1.3-3.5c1.9-7.1,1.3-14.1-0.2-21.1
		c-3.6-16.6-11.3-31.1-21.4-44.5c-0.6-0.7-1.1-1.5-1.7-2.2c-0.5-0.7-1.1-1.4-1.6-2.2c4.3,8.6,7.1,17.5,8.9,26.8
		c2.1,10.5,2.3,20.9-1.2,31.1c-2.1,6.2-5.2,11.8-9.2,17c-6.2,8-13.4,15-21.1,21.9c-0.3-0.7-0.5-1.2-0.8-1.7
		c-4.2-8.5-8.6-17-12.7-25.6c-2.1-4.5-3.1-9.5-3.5-14.5c-0.5-6.5,0.6-12.7,2.7-18.8l0,0c0-0.2,0-0.4,0-0.5c-0.1,0.1-0.2,0.2-0.3,0.3
		c0.1,0,0.1,0.1,0.2,0.1c-0.1,0-0.1-0.1-0.2-0.1c-15.5,15.4-22.7,33.8-20,55.7c-0.3-0.4-0.7-0.7-1-1.1c-0.3-0.4-0.6-0.8-0.9-1.2
		c-8.4-10.4-11.3-22.3-9.5-35.5c0.3-2.5,1-5,1.5-7.5c-4.3,4.1-7.9,8.7-10.6,14c-1.7,3.5-1.9,7-0.5,10.7c0.8,2,1.6,3.9,2.4,5.9
		c-7.8-5.5-14.3-12.2-19.5-20.2c-5.4-8.3-8.8-17.3-9.4-27c1.5,3.9,3,8.1,4.9,12c3.2,6.6,7.4,12.6,12.9,17.5c0.1-0.1,0.1-0.1,0.2-0.2
		c-2.6-4.4-4.9-8.9-5.7-14.1c-0.7-4.7-0.5-9.3,0.8-13.9c0.2,7.6,1.7,14.9,4.8,21.3c0.7-2.7,1.2-5.7,2.2-8.6c1.1-2.9,2.6-5.7,4-8.5
		c1.9-3.8,1.9-7.5,0-11.2c-1-1.9-2.1-3.7-3.2-5.5c0-0.1-0.1-0.3-0.1-0.4c0.1,0.1,0.3,0.1,0.4,0.2c0.4,0.3,0.9,0.6,1.2,0.9
		c7.7,6.3,14.2,13.7,19.7,22.1c1.1,1.7,2.3,3.3,3.4,5c-0.1-0.5-0.2-0.9-0.3-1.4c-0.8-2.6-1.8-5.1-2.4-7.7
		c-1.7-7.2-1.3-14.5-0.5-21.8c0.2-2,0.7-4,1-6.1c0.2,0,0.3,0,0.5,0.1c0.5,7.2,1.1,14.3,1.6,21.5c1.8-7.4,4.8-14.1,9.3-20.1
		c1.7-2.3,4-4.1,6-6.1c0.9-0.8,2-0.9,3-0.1c1.8,1.6,3.8,3,5.3,4.8c4.1,5,6.7,10.8,8.7,16.9c4.4,13.8,5.8,28.2,6.9,42.5
		c0.3,4.3,0.3,8.6,0.5,12.8c2.3-12.2,4.5-24.4,4.6-36.8c0.1-11.1-1.1-22-4.8-32.5c-2.9-8.3-6.8-16.2-11.2-23.8
		c0-0.1-0.1-0.3-0.1-0.4c0.1,0.1,0.2,0.1,0.4,0.2c7.8,8.7,13.5,18.5,16,30c0-1.4-0.1-2.8-0.2-4.1c-0.7-8-2.6-15.7-6.5-22.8
		c-3.3-6-8-10.8-13.5-14.7c-0.1-0.1-0.2-0.2-0.3-0.3c0.2,0,0.4,0,0.6,0c0.9,0.4,1.9,0.8,2.8,1.3c10.8,6.2,18.7,15.2,24.7,25.9
		c1.1,1.9,2,3.8,3,5.7c-0.4-4-0.6-8-1.4-11.9c-2.4-12.3-8.6-22.1-19.7-28.5c-7.1-4.1-14.7-6.2-23-6.2c0.5-0.2,1-0.4,1.6-0.5
		c8.5-1.1,16.8-0.2,24.9,2.8c10.8,4.2,20,10.9,28.4,18.8c3.2,3.1,6.3,6.3,9.4,9.4c-5.6-11.3-13.4-20.9-22.4-29.7
		c0.6,0.1,1.1,0.4,1.6,0.6c10.8,5.4,20.1,12.8,28.9,20.9c10,9.3,18.5,19.9,26.4,31.1l0,0c0.1,0.2,0.2,0.3,0.3,0.5
		c0.1,0,0.1,0,0.2-0.1c-0.1-0.2-0.2-0.5-0.2-0.7c-0.2-0.6-0.3-1.2-0.6-1.8c-3.4-8.7-7.6-17.1-12.7-24.9c-8.5-13.1-18.7-24.6-32-33.1
		c-9.3-5.9-19.4-9.6-30.5-9.9c-7.8-0.2-15.3,1.3-22.7,3.4c-15.1,4.3-29.7,10-44.2,15.9c-18,7.4-36,14.9-53.9,22.4
		c-4.4,1.8-8.8,2.6-13.5,2.6c-7,0-14-0.9-20.8-2.6c-6.6-1.7-13-4-18.3-8.7c-2-1.8-3.7-3.9-4.9-6.9c0.8,0.7,1.2,1,1.6,1.4
		c0.5,0.4,1,0.8,1.5,1.1c10,6.9,21.2,9.6,33.2,9.2c5.9-0.2,11.6-1.2,16.9-3.9c2.7-1.4,5.5-2.6,8.4-3.5c29.8-9.8,59.2-20.5,88.2-32.5
		c6.4-2.6,12.6-5.8,18.8-8.8c0.6-0.3,1.4-1.1,1.5-1.7c0.8-5.5,4.1-8.8,9.1-10.9c2-0.8,4-1.8,5.7-3.1c2.9-2.1,4.5-5,4-8.8
		c-0.7-5.4-4.2-8.5-9-10.2c-5.3-1.9-10.6-1.1-15.8,0.8c-8.5,3.1-15.5,8.6-22.2,14.5c-7.5,6.7-14.7,13.7-22.6,20
		c-18.7,15.1-39.5,25.5-64,27.2c-17,1.2-33.3-1.3-48.8-8.3C226.4,563,224,561.5,221.2,560z M389.3,584.7c0,0,0.1,0,0.1,0.1
		c0,0-0.1,0.1-0.1,0.1C389.3,584.9,389.3,584.8,389.3,584.7C389.3,584.8,389.3,584.7,389.3,584.7z M390,585.1c0,0,0.1,0.1,0.1,0.1
		c0,0-0.1,0-0.1,0.1C390,585.2,389.9,585.2,390,585.1C389.9,585.1,389.9,585.1,390,585.1z M527.8,429.3c-0.1-0.1-0.2-0.1-0.3-0.2
		c0.1,0,0.2,0,0.3,0.1C527.8,429.2,527.8,429.3,527.8,429.3z M577.7,373.1L577.7,373.1L577.7,373.1L577.7,373.1z M287.8,244.4
		c0,0.1-0.1,0.1-0.1,0.2c0-0.1,0-0.2,0-0.2C287.7,244.4,287.7,244.4,287.8,244.4z M290.4,219.5c0,0.1,0.1,0.1,0.1,0.2
		c-0.1,0-0.1,0-0.2,0C290.3,219.7,290.3,219.6,290.4,219.5z M319.2,231.9C319.2,231.9,319.2,231.9,319.2,231.9
		C319.2,232.1,319.2,232,319.2,231.9z M330.5,248.8c0,0.2-0.1,0.4-0.1,0.6c-0.1,0-0.2-0.1-0.2-0.1
		C330.3,249.2,330.4,249,330.5,248.8z M380.2,403.7c0.7-1.1,1.3-2.3,1.9-3.5c2.2,0.3,4.3,0.7,6.8,1.1c-0.7,1.9-1.1,3.7-1.9,5.2
		c-2.3,4.3-6,6.5-10.9,6.5c-4.7,0-8.4-2-10.7-6.3c-0.3-0.5-0.5-1.5-0.3-1.8c1.1-1.6,2.3-3,3.5-4.5c0.7,3.7,2,5.6,4.5,6.3
		C375.8,407.5,378.2,406.5,380.2,403.7z M375.5,401.4c-1.2,0-2.2-1-2.2-2.2c0-1.2,1-2.2,2.2-2.2s2.2,1,2.2,2.2
		C377.7,400.4,376.7,401.4,375.5,401.4z M358.9,392.7c2.5-3.1,4.9-6.3,7.8-8.9c8.4-7.8,18.1-9.7,29-6.2c5.7,1.9,11,4.6,16,7.7
		c7.3,4.5,14.2,9.5,20.6,15.2c-11.6-4.5-23.6-7-36-8.1C383.9,391.5,371.5,391.4,358.9,392.7z M214.2,547.1c4.5,2.3,8.8,2.5,13.3,1.5
		c-2.4,2.5-5.3,3.8-8.8,2.8C216.6,550.9,215,549.7,214.2,547.1z M186.1,553c5,3.8,10.7,6,16.9,6.9c0.3,0,0.7,0.7,0.8,1.1
		c0.8,2.3,1.5,4.7,2.3,7.1C198.3,564.7,190.9,560.6,186.1,553z M176.8,515.9c0.2-0.1,0.4-0.2,0.6-0.3c1.3-0.8,2.5-1.8,3.9-2.4
		c8-3.6,16.4-4.2,24.9-2.5c5.4,1,10.3,3,14.2,7.1c1.9,2,3.2,4.4,3.9,7.1c-3.4-4.2-8.1-6.1-13.1-7.4c-3.7-1-7.5-1.8-11.2-2.3
		c-7.5-0.9-15-1.3-22.4,0.7C177.3,515.9,177.1,515.9,176.8,515.9z"/>
	<path class="st0" d="M354.5,468c0-0.3,0-0.6,0-1c-0.5-3.6-0.8-7.3-1.5-10.9c-1.2-6.1,0.7-10.2,6.7-12c3.3-1,6.7-1.5,10.1-1.6
		c10.8-0.3,21.2,1.8,31.4,5.2c3.6,1.2,7.2,2.7,10.8,4c0.9,0.5,1.7,0.9,2.6,1.4c11.3,5.5,21.5,12.5,30.1,21.7
		c4.9,5.3,9.1,11.1,11.9,18.2c-0.4-0.4-0.6-0.4-0.7-0.6c-3.9-6.2-9.1-11.1-14.8-15.5c-15.7-12.1-33.3-19.6-53.2-21.2
		c-8.1-0.7-16.2-0.1-23.9,2.9c-0.9,0.4-1.4,0.8-1.7,1.9c-1.3,6.3-3.5,12.2-7.6,17.3c-1.6,2-3.5,3.7-5.3,5.6
		c-0.1-0.1-0.2-0.2-0.3-0.3c3-4,4.9-8.5,5.2-13.6C354.4,469,354.5,468.5,354.5,468z"/>
	<path class="st0" d="M286.9,531.7c-0.4-0.1-0.9-0.7-0.9-1.1c-0.1-1.2,1.8-2.8,3.4-2.8c0.2,0.2,0.7,0.7,0.7,1.1
		C290.2,530,288,531.9,286.9,531.7z"/>
	<path class="st0" d="M495.3,460.6c-4.2-2.9-8.4-5.8-12.6-8.8c-0.9-0.6-1.7-1.2-2.6-1.7c-17.5-10.9-34.9-21.8-52.4-32.7
		c-0.8-0.5-1.6-1.1-2.4-1.6c2.1,0.4,4.3,0.6,6.4,1.1c6.7,1.5,12.9,4.4,19.1,7.4c0.6,0.4,1.1,0.7,1.7,1.1c8.7,4.7,17.1,9.8,24.6,16.3
		c3.9,3.4,7.5,7,11.3,10.6c2.4,2.7,4.7,5.4,7.1,8.1c0.2,0.3,0.4,0.5,0.6,0.8c-0.1,0.1-0.3,0.2-0.4,0.3
		C495.6,461.1,495.4,460.9,495.3,460.6z"/>
	<path class="st0" d="M331.6,514.7C331.6,514.7,331.6,514.7,331.6,514.7C331.6,514.7,331.6,514.7,331.6,514.7
		c-3.8,3.2-7.4,6.4-11.4,9.3c-11.8,8.7-24.7,15.2-38.8,19.4c-2.3,0.7-4.8,1.1-7.2,1.6c0-0.2-0.1-0.3-0.1-0.5
		c0.3-0.2,0.5-0.4,0.8-0.6c2.4-1.5,5.2-2.6,6.4-5.5c0.1-0.3,0.5-0.6,0.8-0.6c0.4-0.1,1-0.1,1.2,0.2c0.2,0.2,0.1,0.9-0.1,1.2
		c-0.4,0.6-0.9,1.1-1.6,1.8c0.6-0.1,1-0.2,1.3-0.3c5.7-2.3,11.4-4.4,17-7c11.1-5.2,21.7-11.4,31.3-19.2c0.1-0.1,0.2-0.2,0.4-0.3
		c0.2-0.2,0.3-0.3,0.5-0.5c0.3-0.2,0.5-0.3,0.8-0.5c0.1,0.1,0.1,0.2,0.2,0.2c-0.2,0.2-0.4,0.3-0.6,0.5
		C332.1,514.2,331.9,514.4,331.6,514.7z"/>
	<path class="st0" d="M339.4,521c-0.3,0.4-0.6,0.7-1,1.1c-0.1-0.1-0.2-0.2-0.3-0.4c0.3-0.3,0.6-0.6,1-0.9c0.1-0.1,0.2-0.2,0.3-0.3
		c0.1-0.3,0.3-0.6,0.4-0.9c0.2,0.2,0.3,0.3,0.5,0.5c-0.2,0.3-0.4,0.5-0.6,0.8C339.6,520.8,339.5,520.9,339.4,521z"/>
	<path class="st0" d="M541.2,550.2c-0.1-0.1-0.2-0.3-0.3-0.4c-0.1-0.3-0.1-0.6-0.2-1c-0.1,0.1-0.2,0.1-0.4,0.2
		c0.1-0.1,0.2-0.1,0.4-0.2c0,0,0,0,0,0c0,0,0,0,0,0c0.2,0.3,0.3,0.5,0.5,0.8h0c0.1,0.1,0.3,0.3,0.4,0.4c0.1,0,0.2,0.1,0.2,0.2
		c-0.1,0.1-0.2,0.3-0.3,0.4C541.4,550.5,541.3,550.3,541.2,550.2z"/>
	<path class="st0" d="M339,668.2c0.1-0.1,0.1-0.1,0.2-0.2c0.1,0.1,0.2,0.2,0.3,0.3C339.3,668.3,339.1,668.3,339,668.2z"/>
	<path class="st0" d="M580.9,459c0,0,0.1-0.1,0.1-0.1c0.1,0.1,0.2,0.1,0.2,0.2c0,0.1-0.1,0.2-0.1,0.2
		C581,459.2,580.9,459.1,580.9,459z"/>
	<path class="st0" d="M358.8,655.3C358.8,655.3,358.8,655.4,358.8,655.3C358.8,655.3,358.8,655.3,358.8,655.3L358.8,655.3z"/>
	<path class="st0" d="M339.5,668.4C339.5,668.4,339.5,668.5,339.5,668.4C339.5,668.5,339.5,668.5,339.5,668.4L339.5,668.4
		C339.5,668.4,339.4,668.4,339.5,668.4C339.5,668.4,339.5,668.4,339.5,668.4L339.5,668.4z"/>
	<path class="st0" d="M339.6,668.8c0-0.1,0-0.2,0-0.3c0.1,0.1,0.1,0.2,0.2,0.3C339.6,668.8,339.6,668.8,339.6,668.8z"/>
	<path class="st0" d="M587.5,418C587.5,418.1,587.5,418.1,587.5,418L587.5,418C587.5,418.1,587.5,418.1,587.5,418
		C587.4,418.1,587.4,418.1,587.5,418C587.4,418.1,587.4,418.1,587.5,418C587.4,418.1,587.4,418.1,587.5,418z"/>
	<path class="st0" d="M483.6,590.8C483.6,590.8,483.6,590.8,483.6,590.8L483.6,590.8c0.1,0.1,0.1,0.1,0.1,0.2
		C483.7,590.9,483.6,590.9,483.6,590.8C483.6,590.8,483.6,590.8,483.6,590.8z"/>
	<path class="st0" d="M507.8,561.1c-0.1,0.1-0.2,0.2-0.2,0.2c0-0.2-0.1-0.3-0.1-0.5C507.6,560.9,507.7,561,507.8,561.1z"/>
	<path class="st0" d="M483.5,590.4c0,0.1,0,0.3,0,0.4c-0.1-0.1-0.2-0.1-0.2-0.2C483.4,590.5,483.5,590.5,483.5,590.4z"/>
	<path class="st0" d="M358.8,655.3C358.8,655.3,358.8,655.3,358.8,655.3c0.1,0,0.1,0,0.2-0.1C358.9,655.3,358.9,655.3,358.8,655.3z"
		/>
	<path class="st0" d="M615.9,430.6c0,0,0.1,0.1,0.1,0.1c-0.1,0-0.1,0.1-0.2,0.1c0,0,0-0.1-0.1-0.1
		C615.8,430.6,615.8,430.6,615.9,430.6z"/>
	<path class="st0" d="M492.2,348.5c-7.5-8.3-14.3-17.4-24.9-22.3c0.1-0.2,0.1-0.3,0.2-0.5c3.2,1.1,6.4,2,9.5,3.3
		c11.7,5.1,21.6,12.8,31,21.2c8.3,7.5,16.6,14.9,25.9,21.1c3,2,6.2,3.9,9.5,6c-0.6,0-1,0-1.4-0.1c-8.5-1.8-16.5-4.6-24.3-8.3
		C507.5,364.2,499.6,356.7,492.2,348.5z"/>
	<path class="st0" d="M366.7,655.3C366.7,655.3,366.7,655.3,366.7,655.3C366.7,655.3,366.7,655.3,366.7,655.3L366.7,655.3z"/>
	<polygon class="st0" points="615.2,430.4 615.1,430.3 615.2,430.3 	"/>
	<polygon class="st0" points="543.8,377.6 543.7,377.5 543.9,377.5 	"/>
	<path class="st0" d="M350.2,353.1c-5.3,3.8-10.1,8.1-14,13.3c-6.8,9.2-11.3,19.1-10,30.9c-2.2-5.7-3.2-11.6-2.5-17.8
		c0.2-0.6,0.5-1.1,0.7-1.7c1.1-2.5,2-5.2,3.3-7.5c7.1-12.4,17.6-20.6,31-25.5c3.9-1.4,8-2.2,12.2-2.3c-0.1,0.2-0.3,0.2-0.4,0.3
		C362.7,344.5,356.1,348.2,350.2,353.1z"/>
	<polygon class="st0" points="371.9,342.4 372,342.4 371.9,342.4 	"/>
	<path class="st0" d="M346.1,316.2c0,0,0.1-0.1,0.1-0.1c0,0,0.1,0.1,0.1,0.1c0,0-0.1,0.1-0.1,0.1
		C346.2,316.2,346.1,316.2,346.1,316.2z"/>
	<path class="st0" d="M417.7,322.2C417.7,322.2,417.8,322.2,417.7,322.2C417.8,322.2,417.7,322.2,417.7,322.2
		c-0.1-0.1-0.2-0.2-0.3-0.3c-0.1-0.1-0.2-0.2-0.3-0.3c0.2,0,0.3,0.1,0.5,0.1c0,0,0,0,0,0c0.1,0.1,0.2,0.3,0.3,0.4l0,0
		c0.1,0.1,0.1,0.2,0.2,0.3C417.9,322.4,417.8,322.3,417.7,322.2z"/>
</g>
</svg>
